<?xml version="1.0" encoding="UTF-8"?><svg id="Layer_1" xmlns="http://www.w3.org/2000/svg" viewBox="0 0 20 20"><defs><style>.cls-1{fill:none;stroke:#2e2d2c;stroke-linecap:round;stroke-linejoin:round;stroke-width:.74px;}</style></defs><path class="cls-1" d="M14.66,3.37c.38,0,.75,.07,1.11,.21,.77,.3,1.39,.88,1.73,1.63,.34,.76,.36,1.6,.07,2.37-.45,1.18-4.02,5.03-7.48,8.38M4.19,3.62c.37-.15,.76-.22,1.15-.22,1.28,0,2.41,.77,2.88,1.95,.02,.05,.03,.11,.05,.17"/><path class="cls-1" d="M10.1,18.4c-.05-.05-8.28-7.59-9.28-10.09C-.19,5.82,1.02,2.97,3.53,1.97c2.5-1,5.35,.21,6.35,2.71,.04,.11,.08,.24,.12,.38,.03-.12,.06-.23,.1-.33,.96-2.52,3.79-3.78,6.3-2.82,2.52,.96,3.78,3.79,2.82,6.3-.96,2.52-9.12,10.18-9.12,10.18Z"/></svg>