<?xml version="1.0" encoding="UTF-8"?><svg id="Layer_1" xmlns="http://www.w3.org/2000/svg" viewBox="0 0 20 20"><defs><style>.cls-1,.cls-2{fill:none;}.cls-2{stroke:#2e2d2c;stroke-linecap:round;stroke-linejoin:round;stroke-width:.56px;}</style></defs><path class="cls-1" d="M11.33,2c.54,0,.97,.44,.97,.97v6.75c0,.54-.44,.97-.97,.97H6.44l-2.5,2.84c-.08,.08-.17,.11-.26,.11-.19,0-.38-.15-.38-.38v-2.57H1.37c-.54,0-.97-.44-.97-.97V2.97c0-.54,.44-.97,.97-.97H11.33"/><g><path class="cls-2" d="M18.63,6.35h-6.32v3.38c0,.54-.44,.97-.97,.97h-3.63v3.38c0,.54,.44,.97,.97,.97h4.89l2.5,2.84c.24,.24,.64,.07,.64-.27v-2.57h1.92c.54,0,.97-.44,.97-.97V7.32c0-.54-.44-.97-.97-.97Zm-1.82,2.6h0Zm-6.31,3.51h0Zm2.51-1.76h0Z"/><path class="cls-2" d="M12.3,6.35V2.97c0-.54-.44-.97-.97-.97H1.37c-.54,0-.97,.44-.97,.97v6.75c0,.54,.44,.97,.97,.97h1.92v2.57c0,.34,.41,.51,.64,.27l2.5-2.84h1.26"/></g><g><line class="cls-2" x1="9.51" y1="4.59" x2="3.19" y2="4.59"/><line class="cls-2" x1="9.51" y1="6.35" x2="3.19" y2="6.35"/><line class="cls-2" x1="9.51" y1="8.1" x2="3.19" y2="8.1"/></g></svg>