<svg width="34" height="34" viewBox="0 0 34 34" fill="none" xmlns="http://www.w3.org/2000/svg">
<path d="M19.6372 21.9267C18.9426 22.6484 18.0172 23.0455 17.034 23.0455C16.0511 23.0455 15.1257 22.6484 14.4311 21.9267L9.21511 16.5177C8.51937 15.7971 8.13645 14.8377 8.13645 13.8181C8.13645 12.7986 8.51937 11.8391 9.21511 11.1188C9.90972 10.397 10.8351 9.99994 11.8183 9.99994C12.8012 9.99994 13.7266 10.397 14.4212 11.1188L17.034 13.827L24.2469 6.34721C21.8905 4.2638 18.8394 3 15.5001 3C8.04431 3 2 9.26818 2 16.9999C2 24.7318 8.04431 31 15.5001 31C22.9557 31 29 24.7318 29 16.9999C29 15.5529 28.7878 14.1579 28.395 12.8445L19.6372 21.9267Z" fill="#48C2FF"/>
<path d="M17.4853 20.6297C17.1691 20.6297 16.8529 20.5022 16.612 20.2484L11.3623 14.7176C10.8792 14.2089 10.8792 13.3863 11.3623 12.8776C11.8452 12.3686 12.6258 12.3686 13.1089 12.8776L17.4853 17.4881L29.8912 4.41866C30.3741 3.90992 31.1547 3.90992 31.6378 4.41866C32.1207 4.92764 32.1207 5.74996 31.6378 6.25894L18.3586 20.2484C18.118 20.5022 17.8015 20.6297 17.4853 20.6297V20.6297Z" fill="#FF8548"/>
</svg>
