<?xml version="1.0" encoding="utf-8"?>
<!-- Generator: Adobe Illustrator 26.3.1, SVG Export Plug-In . SVG Version: 6.00 Build 0)  -->
<svg version="1.1" id="Layer_1" xmlns="http://www.w3.org/2000/svg" xmlns:xlink="http://www.w3.org/1999/xlink" x="0px" y="0px"
	 viewBox="0 0 14400 14400" style="enable-background:new 0 0 14400 14400;" xml:space="preserve">
<g>
	<path d="M7196.56,7190.26c1.23,0.04,2.2,0.56,2.88,1.6c0.08,0.12,0.07,0.11,0.15,0c0.57-0.88,1.38-1.41,2.42-1.55
		c1.45-0.2,2.82,0.55,3.46,1.79c0.21,0.41,0.33,0.84,0.37,1.31c0.07,0.89-0.2,1.67-0.73,2.37c-0.44,0.58-0.91,1.12-1.4,1.65
		c-0.83,0.9-1.71,1.76-2.59,2.62c-0.48,0.46-0.97,0.91-1.45,1.37c-0.15,0.14-0.31,0.13-0.46-0.01c-0.91-0.85-1.79-1.73-2.66-2.63
		c-0.8-0.83-1.59-1.67-2.31-2.57c-0.33-0.42-0.68-0.83-0.86-1.34c-0.46-1.3-0.24-2.49,0.68-3.53c0.53-0.6,1.21-0.93,2-1.05
		C7196.23,7190.27,7196.39,7190.25,7196.56,7190.26z M7193.76,7193.64c-0.01,0.47,0.12,0.96,0.37,1.36
		c0.38,0.61,0.84,1.15,1.31,1.68c0.67,0.76,1.37,1.5,2.08,2.22c0.6,0.61,1.22,1.22,1.85,1.81c0.07,0.07,0.12,0.06,0.18,0
		c0.47-0.46,0.96-0.9,1.43-1.36c0.75-0.73,1.48-1.46,2.19-2.23c0.54-0.58,1.06-1.17,1.52-1.8c0.41-0.56,0.62-1.18,0.55-1.88
		c-0.06-0.75-0.37-1.37-0.93-1.87c-0.62-0.55-1.36-0.8-2.18-0.68c-1.15,0.17-1.94,0.81-2.32,1.93c-0.05,0.16-0.15,0.23-0.3,0.23
		c-0.15,0-0.25-0.08-0.29-0.24c-0.03-0.11-0.07-0.22-0.12-0.32c-0.53-1.15-1.74-1.81-2.99-1.6
		C7194.72,7191.14,7193.79,7192.25,7193.76,7193.64z"/>
	<path d="M7209.35,7195.76c-0.02,0.65-0.03,1.3-0.05,1.95c-0.02,0.51-0.03,1.02-0.04,1.54c-0.01,0.55-0.02,1.1-0.05,1.65
		c-0.02,0.3,0,0.61-0.03,0.91c-0.03,0.22-0.11,0.41-0.27,0.57c-1.04,1.04-2.09,2.09-3.13,3.13c-0.05,0.05-0.1,0.07-0.17,0.07
		c-0.21,0-0.41,0-0.62,0c-0.03,0-0.08,0.02-0.09-0.02c-0.01-0.03,0.03-0.05,0.05-0.07c0.29-0.29,0.59-0.59,0.88-0.88
		c0.85-0.85,1.7-1.71,2.56-2.55c0.14-0.14,0.2-0.28,0.2-0.48c0.01-0.7,0.03-1.4,0.05-2.11c0.02-0.52,0.03-1.05,0.05-1.57
		c0.02-0.54,0.03-1.09,0.05-1.63c0.01-0.25,0.01-0.5,0.02-0.75c0-0.13-0.02-0.16-0.16-0.13c-0.54,0.1-0.88,0.43-1.02,0.95
		c-0.09,0.32-0.12,0.66-0.16,0.99c-0.09,0.64-0.17,1.28-0.25,1.92c-0.02,0.18-0.04,0.36-0.07,0.54c-0.01,0.06,0.02,0.08,0.06,0.1
		c0.1,0.05,0.2,0.11,0.29,0.18c0.29,0.23,0.33,0.69,0.07,0.96c-0.81,0.81-1.62,1.62-2.43,2.43c-0.12,0.12-0.3,0.12-0.42,0.01
		c-0.12-0.11-0.12-0.29-0.02-0.42c0.02-0.03,0.05-0.05,0.08-0.08c0.75-0.75,1.51-1.51,2.26-2.26c0.12-0.12,0.12-0.14-0.03-0.23
		c-0.44-0.26-0.84-0.21-1.2,0.15c-0.39,0.39-0.79,0.78-1.18,1.18c-0.08,0.08-0.16,0.13-0.27,0.15c-0.93,0.14-1.61,0.68-2.18,1.38
		c-0.33,0.41-0.49,0.9-0.56,1.41c-0.03,0.24-0.05,0.48-0.05,0.72c0,0.09-0.03,0.12-0.12,0.12c-0.13,0-0.26,0-0.39,0
		c-0.06,0-0.1-0.02-0.1-0.09c0-0.98,0.18-1.9,0.84-2.67c0.62-0.71,1.35-1.26,2.3-1.44c0.07-0.01,0.13-0.05,0.19-0.1
		c0.37-0.37,0.74-0.74,1.11-1.11c0.29-0.29,0.63-0.45,1.05-0.46c0.07,0,0.1-0.03,0.11-0.1c0.06-0.48,0.12-0.96,0.18-1.43
		c0.08-0.61,0.14-1.21,0.25-1.81c0.1-0.54,0.35-1,0.83-1.3c0.27-0.17,0.56-0.26,0.88-0.29c0.34-0.03,0.69,0.28,0.7,0.62
		C7209.36,7195.51,7209.35,7195.64,7209.35,7195.76C7209.35,7195.76,7209.35,7195.76,7209.35,7195.76z"/>
	<path d="M7193.64,7205.58c-0.24,0.07-0.43-0.07-0.62-0.27c-0.92-0.94-1.85-1.87-2.79-2.79c-0.28-0.28-0.41-0.6-0.42-0.98
		c0-0.46-0.01-0.93-0.03-1.39c-0.02-0.54-0.03-1.08-0.05-1.62c-0.01-0.53-0.03-1.05-0.05-1.58c-0.01-0.48-0.02-0.96-0.05-1.45
		c-0.02-0.42,0.34-0.83,0.88-0.71c0.87,0.18,1.42,0.76,1.55,1.66c0.12,0.76,0.21,1.52,0.3,2.28c0.04,0.29,0.08,0.59,0.11,0.88
		c0.01,0.07,0.03,0.09,0.1,0.09c0.43,0,0.78,0.18,1.08,0.48c0.35,0.36,0.72,0.71,1.07,1.07c0.06,0.06,0.12,0.1,0.21,0.12
		c0.76,0.15,1.4,0.53,1.95,1.07c0.45,0.44,0.8,0.92,0.98,1.52c0.15,0.49,0.2,0.99,0.2,1.5c0,0.08-0.03,0.11-0.11,0.1
		c-0.12,0-0.24-0.01-0.36,0c-0.1,0.01-0.13-0.04-0.13-0.13c0.01-0.4-0.03-0.79-0.14-1.17c-0.12-0.44-0.33-0.83-0.64-1.15
		c-0.35-0.36-0.71-0.71-1.18-0.92c-0.27-0.12-0.56-0.2-0.85-0.26c-0.1-0.02-0.18-0.07-0.25-0.14c-0.39-0.4-0.79-0.79-1.19-1.19
		c-0.36-0.36-0.78-0.41-1.21-0.13c-0.13,0.08-0.13,0.1-0.03,0.21c0.76,0.76,1.52,1.52,2.27,2.27c0.04,0.04,0.08,0.08,0.1,0.12
		c0.08,0.13,0.06,0.29-0.06,0.39c-0.11,0.09-0.27,0.09-0.39,0c-0.02-0.02-0.04-0.04-0.06-0.05c-0.78-0.78-1.56-1.56-2.34-2.34
		c-0.28-0.28-0.3-0.67-0.05-0.94c0.09-0.1,0.2-0.17,0.32-0.23c0.08-0.04,0.1-0.08,0.09-0.18c-0.08-0.58-0.14-1.15-0.22-1.73
		c-0.07-0.54-0.12-1.08-0.23-1.61c-0.08-0.35-0.25-0.65-0.57-0.85c-0.15-0.09-0.32-0.14-0.49-0.17c-0.09-0.02-0.13,0.01-0.13,0.1
		c0,0.46,0.02,0.93,0.04,1.39c0,0.04,0,0.08,0,0.13c0.01,0.45,0.01,0.9,0.03,1.34c0.02,0.53,0.03,1.07,0.05,1.6
		c0.01,0.53,0.04,1.05,0.04,1.58c0,0.22,0.07,0.39,0.24,0.55c1.12,1.11,2.24,2.23,3.36,3.35c0.02,0.02,0.04,0.04,0.06,0.06
		c0.01,0.02,0.04,0.03,0.03,0.06s-0.04,0.02-0.06,0.02C7193.93,7205.58,7193.81,7205.58,7193.64,7205.58z"/>
	<path d="M7203,7206.74c-0.76,0-1.51,0-2.27,0c-0.12,0-0.15,0.03-0.15,0.15c0.01,0.5,0,1,0,1.5c0,0.12-0.03,0.23-0.13,0.3
		c-0.1,0.06-0.2,0.08-0.31,0.02c-0.11-0.06-0.16-0.16-0.16-0.28c0-0.66,0-1.32,0-1.98c0-0.01,0-0.02,0-0.03
		c0.01-0.16,0.12-0.27,0.28-0.27c0.03,0,0.06,0,0.09,0c1.76,0,3.52,0,5.28,0c0.28,0,0.38,0.1,0.38,0.39c0,0.62,0,1.24,0,1.86
		c0,0.13-0.03,0.24-0.14,0.32c-0.1,0.06-0.2,0.07-0.3,0.01c-0.1-0.06-0.16-0.15-0.16-0.27c0-0.52,0-1.03,0-1.55
		c0-0.15,0-0.15-0.15-0.15C7204.51,7206.74,7203.76,7206.74,7203,7206.74z"/>
	<path d="M7196,7206.13c0.89,0,1.78,0,2.67,0c0.25,0,0.35,0.1,0.35,0.35c0,0.64,0,1.28,0,1.92c0,0.2-0.11,0.34-0.29,0.34
		c-0.18,0.01-0.31-0.13-0.31-0.33c0-0.51,0-1.01,0-1.52c0-0.16,0-0.16-0.16-0.16c-1.51,0-3.01,0-4.52,0c-0.15,0-0.15,0-0.15,0.15
		c0,0.5,0,1,0,1.51c0,0.21-0.11,0.35-0.29,0.35c-0.18,0-0.31-0.14-0.31-0.35c0-0.32,0-0.63,0-0.95c0-0.31,0-0.62,0-0.94
		c0-0.21,0.08-0.39,0.38-0.38C7194.24,7206.14,7195.12,7206.13,7196,7206.13z"/>
	<path d="M7201.93,7208.18c-0.22,0-0.39-0.17-0.39-0.38c0-0.22,0.17-0.39,0.39-0.39c0.22,0,0.38,0.17,0.38,0.38
		C7202.33,7208.01,7202.16,7208.18,7201.93,7208.18z"/>
	<path d="M7197.07,7208.18c-0.22,0-0.38-0.17-0.39-0.38c0-0.21,0.18-0.39,0.4-0.39c0.21,0,0.39,0.17,0.39,0.38
		C7197.46,7208.01,7197.29,7208.18,7197.07,7208.18z"/>
	<path d="M7204.35,7193.64c-0.01,0.39-0.1,0.73-0.31,1.04c-0.31,0.45-0.67,0.87-1.03,1.28c-0.93,1.04-1.93,2.03-2.92,3.01
		c-0.05,0.05-0.1,0.1-0.16,0.15c-0.12,0.11-0.3,0.1-0.41-0.01c-0.11-0.11-0.12-0.31,0-0.42c0.21-0.21,0.42-0.41,0.63-0.61
		c0.67-0.66,1.33-1.33,1.97-2.01c0.46-0.5,0.91-1,1.32-1.54c0.19-0.25,0.32-0.53,0.32-0.85c0-0.64-0.51-1.2-1.14-1.26
		c-0.05,0-0.09-0.01-0.14-0.02c-0.2-0.01-0.32-0.13-0.32-0.31c0.01-0.17,0.14-0.3,0.33-0.29c1,0.04,1.74,0.76,1.85,1.68
		C7204.34,7193.52,7204.35,7193.59,7204.35,7193.64z"/>
	<path d="M7198.35,7193.12c0,0.17-0.1,0.29-0.25,0.32c-0.13,0.03-0.27-0.05-0.32-0.18c-0.05-0.12-0.09-0.23-0.17-0.34
		c-0.25-0.34-0.59-0.54-1.02-0.55c-0.27-0.01-0.42-0.25-0.29-0.46c0.05-0.09,0.13-0.14,0.23-0.14c0.75-0.05,1.58,0.52,1.8,1.24
		C7198.34,7193.05,7198.35,7193.09,7198.35,7193.12z"/>
</g>
</svg>
