<svg id="Layer_1" xmlns="http://www.w3.org/2000/svg" viewBox="0 0 20 20"><defs><style>.cls-1{fill:none;stroke:#2e2d2c;stroke-linecap:round;stroke-linejoin:round;stroke-width:.62px;}</style></defs><g><path class="cls-1" d="M15.01,3.85c.17-.24,.26-.5,.26-.76,0-1.36-2.36-2.46-5.27-2.46-2.35,0-4.35,.72-5.02,1.72-.16,.24-.25,.49-.25,.74s.09,.52,.26,.76"/><g><path class="cls-1" d="M9.2,7.73l-3.91-3.54c-.11-.11-.21-.21-.29-.33-.17-.24-.26-.5-.26-.76s.09-.51,.25-.74h0l-2.12,3.05h0c-.23,.34-.35,.69-.35,1.06,0,.55,.28,1.08,.77,1.54h0l2.75,2.66"/><polyline class="cls-1" points="10.8 15.34 14.97 19.37 18 15.91 13.97 12.25"/><polyline class="cls-1" points="6.82 11.45 2 15.9 5.03 19.36 10 14.54"/><path class="cls-1" d="M13.17,11.45l3.56-3.46h0c.49-.47,.77-.99,.77-1.54,0-.37-.12-.73-.35-1.06h0l-2.12-3.05h0c.16,.23,.25,.48,.25,.74s-.09,.52-.26,.76c-.08,.11-.18,.22-.29,.33l-4.72,4.35"/><line class="cls-1" x1="10" y1="14.54" x2="13.17" y2="11.45"/><polyline class="cls-1" points="10 8.53 8.52 9.88 6.82 11.45"/></g></g><path class="cls-1" d="M5.96,4.8s4.35-3.91,7.8,.27"/></svg>