<?xml version="1.0" encoding="utf-8"?>
<!-- Generator: Adobe Illustrator 23.0.1, SVG Export Plug-In . SVG Version: 6.00 Build 0)  -->
<svg version="1.1" id="Layer_1" xmlns="http://www.w3.org/2000/svg" xmlns:xlink="http://www.w3.org/1999/xlink" x="0px" y="0px"
	 viewBox="0 0 102.8 104.7" style="enable-background:new 0 0 102.8 104.7;" xml:space="preserve">
<style type="text/css">
	.st0{fill:#55B7D3;}
</style>
<ellipse class="st0" cx="8.8" cy="8.9" rx="7.5" ry="7.6"/>
<ellipse class="st0" cx="37.6" cy="8.9" rx="7.5" ry="7.6"/>
<ellipse class="st0" cx="66.5" cy="8.9" rx="7.5" ry="7.6"/>
<ellipse class="st0" cx="95.3" cy="8.9" rx="7.5" ry="7.6"/>
<ellipse class="st0" cx="8.8" cy="38.3" rx="7.5" ry="7.6"/>
<ellipse class="st0" cx="37.6" cy="38.3" rx="7.5" ry="7.6"/>
<ellipse class="st0" cx="66.5" cy="38.3" rx="7.5" ry="7.6"/>
<ellipse class="st0" cx="95.3" cy="38.3" rx="7.5" ry="7.6"/>
<ellipse class="st0" cx="8.8" cy="67.7" rx="7.5" ry="7.6"/>
<ellipse class="st0" cx="37.6" cy="67.7" rx="7.5" ry="7.6"/>
<ellipse class="st0" cx="66.5" cy="67.7" rx="7.5" ry="7.6"/>
<ellipse class="st0" cx="95.3" cy="67.7" rx="7.5" ry="7.6"/>
<ellipse class="st0" cx="8.8" cy="97.1" rx="7.5" ry="7.6"/>
<ellipse class="st0" cx="37.6" cy="97.1" rx="7.5" ry="7.6"/>
<ellipse class="st0" cx="66.5" cy="97.1" rx="7.5" ry="7.6"/>
<ellipse class="st0" cx="95.3" cy="97.1" rx="7.5" ry="7.6"/>
</svg>
