<?xml version="1.0" encoding="UTF-8"?><svg id="Layer_1" xmlns="http://www.w3.org/2000/svg" viewBox="0 0 20 20"><defs><style>.cls-1{fill:#2e2d2c;}.cls-2{fill:none;stroke:#2e2d2c;stroke-linecap:round;stroke-linejoin:round;stroke-width:.63px;}</style></defs><path class="cls-2" d="M16.33,6.83c1.75,0,3.17,1.42,3.17,3.17s-1.42,3.17-3.17,3.17V6.83Z"/><path class="cls-2" d="M3.67,6.83c-1.75,0-3.17,1.42-3.17,3.17s1.42,3.17,3.17,3.17V6.83Z"/><path class="cls-2" d="M3.67,6.83C3.67,3.34,6.5,.5,10,.5s6.33,2.84,6.33,6.33"/><path class="cls-2" d="M11.55,17.95c2.64,0,4.79-2.14,4.79-4.79"/><path class="cls-2" d="M11.55,17.95c0,.85-.69,1.55-1.55,1.55s-1.55-.69-1.55-1.55,.69-1.55,1.55-1.55,1.55,.69,1.55,1.55Z"/><path class="cls-2" d="M5.27,6.83c0-2.61,2.12-4.73,4.73-4.73s4.73,2.12,4.73,4.73"/><path class="cls-1" d="M8.23,8.4c0,.37-.3,.68-.68,.68s-.68-.3-.68-.68,.3-.68,.68-.68,.68,.3,.68,.68Z"/><path class="cls-1" d="M13.03,8.4c0,.37-.3,.68-.68,.68s-.68-.3-.68-.68,.3-.68,.68-.68,.68,.3,.68,.68Z"/><path class="cls-2" d="M5.27,6.83c0-2.61,2.12-4.73,4.73-4.73s4.73,2.12,4.73,4.73"/><path class="cls-2" d="M12.84,12.23c-.16,.37-.38,.7-.66,.98-.28,.28-.61,.5-.98,.66-.37,.16-.77,.24-1.2,.24s-.83-.09-1.2-.24c-.37-.16-.7-.38-.98-.66s-.5-.61-.66-.98"/></svg>