<svg id="Layer_1" xmlns="http://www.w3.org/2000/svg" viewBox="0 0 20 20"><defs><style>.cls-1{fill:#2e2d2c;}.cls-2{fill:none;stroke:#fff;stroke-miterlimit:10;}</style></defs><rect class="cls-2" x="-1957.57" y="-1951.91" width="4000" height="4000"/><g><path class="cls-1" d="M15.7,19.66h-6.04c-.41,0-.75-.33-.75-.75h0c0-.41,.33-.75,.75-.75h6.04c1,0,1.81-.81,1.81-1.81V3.64c0-1-.81-1.81-1.81-1.81h-6.04c-.41,0-.75-.33-.75-.75h0c0-.41,.33-.75,.75-.75h6.04c.44,0,.88,.09,1.28,.26,.39,.17,.75,.4,1.05,.71,.3,.3,.54,.66,.71,1.05,.17,.41,.26,.84,.26,1.28v12.72c0,.44-.09,.88-.26,1.28-.17,.39-.4,.75-.71,1.05-.3,.3-.66,.54-1.05,.71-.41,.17-.84,.26-1.28,.26Z"/><path class="cls-1" d="M13.59,10.75H1.75c-.41,0-.75-.33-.75-.75H1c0-.41,.33-.75,.75-.75H13.59v1.49Z"/><path class="cls-1" d="M9.87,13.71h0c-.29-.29-.29-.76,0-1.05l2.66-2.66-2.66-2.66c-.29-.29-.29-.76,0-1.05h0c.29-.29,.76-.29,1.05,0l3.71,3.71-3.71,3.71c-.29,.29-.76,.29-1.05,0Z"/></g></svg>