<?xml version="1.0" standalone="no"?>
<!DOCTYPE svg PUBLIC "-//W3C//DTD SVG 1.1//EN" "http://www.w3.org/Graphics/SVG/1.1/DTD/svg11.dtd" >
<svg xmlns="http://www.w3.org/2000/svg" xmlns:xlink="http://www.w3.org/1999/xlink" version="1.1">
<metadata>
Created by FontForge 20170731 at Mon May  2 15:56:20 2022
 By Aleksey,,,
Copyright (c) 2020 by MadeType. All rights reserved.
</metadata>
<defs>
<font id="MADETOMMY-Bold" horiz-adv-x="1222" >
  <font-face 
    font-family="MADE TOMMY"
    font-weight="700"
    font-stretch="normal"
    units-per-em="2048"
    panose-1="2 0 8 3 0 0 0 2 0 4"
    ascent="1638"
    descent="-410"
    x-height="1038"
    cap-height="1434"
    bbox="-115 -518 2572 1993"
    underline-thickness="102"
    underline-position="-307"
    unicode-range="U+0020-F6C3"
  />
<missing-glyph horiz-adv-x="532" 
 />
    <glyph glyph-name=".notdef" horiz-adv-x="532" 
 />
    <glyph glyph-name=".null" horiz-adv-x="0" 
 />
    <glyph glyph-name="nonmarkingreturn" horiz-adv-x="682" 
 />
    <glyph glyph-name="space" unicode=" " horiz-adv-x="532" 
 />
    <glyph glyph-name="exclam" unicode="!" horiz-adv-x="612" 
d="M305 342q76 0 130 -54.5t54 -129.5q0 -77 -54 -131t-130 -54q-75 0 -128.5 54.5t-53.5 130.5q0 75 53.5 129.5t128.5 54.5zM442 518h-272l-47 916h366z" />
    <glyph glyph-name="quotedbl" unicode="&#x22;" horiz-adv-x="858" 
d="M123 940v494h237v-494h-237zM498 1434h237v-494h-237v494z" />
    <glyph glyph-name="numbersign" unicode="#" horiz-adv-x="1312" 
d="M1198 813h-172l-33 -190h176l-34 -217h-177l-51 -316h-241l51 316h-221l-52 -316h-241l51 316h-172l35 217h174l31 190h-177l35 217h178l52 311h239l-51 -311h221l51 311h242l-51 -311h170zM754 623l30 190h-221l-31 -190h222z" />
    <glyph glyph-name="dollar" unicode="$" horiz-adv-x="1220" 
d="M1180 420q0 -80 -32 -154t-90.5 -134t-148.5 -100.5t-200 -51.5v-207h-164v204q-92 7 -171 31t-147.5 67t-116.5 111t-69 156l324 100q15 -70 78 -120t171 -50q94 0 151.5 37t57.5 105q0 22 -7 40t-25.5 32t-34 23.5t-49.5 20t-53.5 16t-65 16.5t-66.5 16
q-217 53 -317.5 158t-100.5 284q0 182 122 297t319 137v205h164v-205q164 -19 281 -111.5t153 -242.5l-324 -80q-15 59 -66 99t-137 40q-77 0 -124.5 -38t-47.5 -99q0 -23 9 -43t28.5 -35t38.5 -26.5t50 -21.5t51.5 -16t55.5 -15t50 -13q259 -72 356 -167t97 -265z" />
    <glyph glyph-name="percent" unicode="%" horiz-adv-x="1800" 
d="M1274 1434h201l-949 -1434h-198zM803 1081q0 -149 -106 -254.5t-255 -105.5t-254.5 105.5t-105.5 254.5t105.5 255t254.5 106t255 -106t106 -255zM301 1081q0 -59 41.5 -101t99.5 -42q60 0 102 42t42 101t-42 100.5t-102 41.5q-58 0 -99.5 -41.5t-41.5 -100.5zM1358 713
q149 0 254.5 -106t105.5 -255t-105.5 -254.5t-254.5 -105.5t-255 105.5t-106 254.5t106 255t255 106zM1358 211q58 0 99.5 41.5t41.5 99.5q0 59 -41.5 100.5t-99.5 41.5t-99.5 -41.5t-41.5 -100.5q0 -58 41.5 -99.5t99.5 -41.5z" />
    <glyph glyph-name="ampersand" unicode="&#x26;" horiz-adv-x="1615" 
d="M1595 0h-426l-118 100q-187 -127 -445 -127q-151 0 -273 46.5t-197 140.5t-75 221q0 128 73 227t194 158q-113 163 -113 299q0 180 122 286.5t335 106.5q209 0 328.5 -99.5t119.5 -252.5q0 -137 -93.5 -238.5t-248.5 -140.5q10 -9 107 -95t143 -130q38 89 49 178l275 -51
q-23 -178 -111 -322zM672 1204q-62 0 -98.5 -38.5t-36.5 -100.5q0 -75 79 -170q70 7 126.5 53.5t56.5 122.5q0 58 -34 95.5t-93 37.5zM397 418q0 -84 67.5 -135.5t174.5 -51.5q106 0 195 50q-4 3 -44.5 35.5t-51.5 42t-47 38.5t-54 45.5t-47.5 42.5t-53.5 49t-47 46
q-92 -57 -92 -162z" />
    <glyph glyph-name="quotesingle" unicode="'" horiz-adv-x="483" 
d="M123 1434h237v-494h-237v494z" />
    <glyph glyph-name="parenleft" unicode="(" horiz-adv-x="737" 
d="M635 1501q-82 -128 -141.5 -335t-59.5 -449q0 -243 59.5 -451t141.5 -336l-215 -159q-51 69 -100 161.5t-95 213t-74 270.5t-28 301t28 301t74 270.5t95 213t100 161.5z" />
    <glyph glyph-name="parenright" unicode=")" horiz-adv-x="737" 
d="M317 1663q51 -69 100 -161.5t95 -213t74 -270.5t28 -301t-28 -301t-74 -270.5t-95 -213t-100 -161.5l-215 159q82 128 142.5 336.5t60.5 450.5t-60.5 448.5t-142.5 335.5z" />
    <glyph glyph-name="asterisk" unicode="*" horiz-adv-x="935" 
d="M854 1077l-238 -53l166 -188l-178 -129l-131 221l-131 -221l-178 129l170 194l-252 55l70 209l235 -102l-22 242h215l-23 -252l231 100z" />
    <glyph glyph-name="plus" unicode="+" horiz-adv-x="1048" 
d="M926 756v-293h-256v-254h-291v254h-256v293h256v256h291v-256h256z" />
    <glyph glyph-name="comma" unicode="," horiz-adv-x="546" 
d="M219 293l246 -141l-252 -388l-193 111z" />
    <glyph glyph-name="hyphen" unicode="-" horiz-adv-x="903" 
d="M123 756h657v-293h-657v293z" />
    <glyph glyph-name="period" unicode="." horiz-adv-x="532" 
d="M266 342q75 0 130 -54.5t55 -129.5q0 -76 -55 -130.5t-130 -54.5q-76 0 -130 54t-54 131q0 75 54 129.5t130 54.5z" />
    <glyph glyph-name="slash" unicode="/" horiz-adv-x="1048" 
d="M674 1630h293l-592 -1829h-293z" />
    <glyph glyph-name="zero" unicode="0" horiz-adv-x="1370" 
d="M684 1458q126 0 228.5 -39t173.5 -107t119.5 -162t70.5 -202.5t22 -230.5t-22 -230.5t-70.5 -203.5t-119 -163.5t-173.5 -107.5t-229 -39q-155 0 -275 59.5t-192 163.5t-108.5 235.5t-36.5 285.5q0 122 22 230.5t70.5 202.5t119 162t173 107t227.5 39zM684 311
q70 0 123 33t82.5 91.5t44 128.5t14.5 153q0 82 -14.5 151.5t-44 127.5t-82.5 91t-123 33t-122 -33t-82 -90.5t-44 -127.5t-14 -152q0 -83 14 -153t44 -128.5t82 -91.5t122 -33z" />
    <glyph glyph-name="one" unicode="1" horiz-adv-x="950" 
d="M498 1434h258v-1434h-350v1036l-220 -147l-145 237z" />
    <glyph glyph-name="two" unicode="2" horiz-adv-x="1187" 
d="M610 330h475v-330h-985v276q188 180 387 400q11 13 36 40t37 40t33 37.5t32 38t26.5 34.5t23.5 35.5t16.5 31.5t12 31.5t3.5 28.5q0 53 -35.5 93t-102.5 40q-69 0 -107.5 -42.5t-45.5 -106.5l-334 76q23 133 96 226t177.5 136t234.5 43q218 0 346.5 -120.5t128.5 -325.5
q0 -52 -11 -100t-39 -101t-59.5 -99t-90.5 -113t-112 -122.5t-143 -146.5z" />
    <glyph glyph-name="three" unicode="3" horiz-adv-x="1196" 
d="M907 741q217 -92 217 -335q0 -195 -143.5 -314t-388.5 -119q-208 0 -360 102.5t-181 272.5l334 78q12 -55 61.5 -98t145.5 -43q92 0 136 46t44 122t-57.5 111.5t-141.5 35.5h-139v270h139q85 0 133 34t48 104t-44.5 107.5t-117.5 37.5q-66 0 -111.5 -36t-56.5 -89
l-324 74q38 159 174 257.5t318 98.5q237 0 368.5 -113.5t131.5 -297.5q0 -98 -47 -177t-138 -129z" />
    <glyph glyph-name="four" unicode="4" horiz-adv-x="1316" 
d="M1235 557v-309h-152v-248h-350v248h-651v274l526 912h475v-877h152zM444 557h289v500z" />
    <glyph glyph-name="five" unicode="5" horiz-adv-x="1196" 
d="M672 926q214 0 333 -124t119 -325q0 -99 -37 -190t-103 -161t-166.5 -111.5t-219.5 -41.5q-202 0 -348.5 108t-177.5 271l323 74q3 -20 14.5 -42t33 -45.5t60 -38.5t87.5 -15q90 0 139 54.5t49 139.5q0 94 -54 139.5t-140 45.5q-87 0 -183 -66l-266 61l88 775h793v-332
h-537l-26 -238q100 62 219 62z" />
    <glyph glyph-name="six" unicode="6" horiz-adv-x="1224" 
d="M629 963q236 -5 380 -136.5t144 -349.5q0 -220 -149 -362t-392 -142q-241 0 -390.5 140.5t-149.5 363.5q0 67 14.5 130t41.5 118t46 86.5t48 74.5q3 4 5 7l4 6l363 535h377zM612 285q86 0 140.5 54.5t54.5 137.5q0 84 -54 139.5t-141 55.5q-83 0 -138.5 -56t-55.5 -139
t54.5 -137.5t139.5 -54.5z" />
    <glyph glyph-name="seven" unicode="7" horiz-adv-x="1114" 
d="M82 1434h950v-301l-489 -1133h-353l476 1102h-584v332z" />
    <glyph glyph-name="eight" unicode="8" horiz-adv-x="1253" 
d="M973 770q209 -104 209 -328q0 -218 -149.5 -343.5t-405.5 -125.5q-257 0 -406 125.5t-149 343.5q0 224 209 328q-154 98 -154 295q0 178 131 285.5t369 107.5t368.5 -107.5t130.5 -285.5q0 -198 -153 -295zM627 1186q-75 0 -125.5 -46t-50.5 -122t50 -121t126 -45t126 45
t50 121t-50.5 122t-125.5 46zM627 285q86 0 140 48.5t54 125.5q0 81 -54 128.5t-140 47.5t-140.5 -47.5t-54.5 -128.5q0 -77 54 -125.5t141 -48.5z" />
    <glyph glyph-name="nine" unicode="9" horiz-adv-x="1224" 
d="M596 469q-237 5 -380.5 136t-143.5 349q0 221 148.5 362.5t391.5 141.5q241 0 391 -140t150 -364q0 -66 -14.5 -129t-42 -118.5t-46.5 -87.5t-48 -74q-6 -9 -9 -13l-362 -532h-377zM612 1149q-85 0 -139.5 -55.5t-54.5 -139.5t53.5 -139t140.5 -55q83 0 139 56t56 138
q0 84 -54.5 139.5t-140.5 55.5z" />
    <glyph glyph-name="colon" unicode=":" horiz-adv-x="573" 
d="M287 342q75 0 129.5 -54.5t54.5 -129.5q0 -76 -54.5 -130.5t-129.5 -54.5q-77 0 -131 54.5t-54 130.5q0 75 54.5 129.5t130.5 54.5zM287 696q-76 0 -130.5 54t-54.5 129q0 76 54 130t131 54q75 0 129.5 -54t54.5 -130q0 -75 -54.5 -129t-129.5 -54z" />
    <glyph glyph-name="semicolon" unicode=";" horiz-adv-x="622" 
d="M41 -125l199 418l243 -141l-252 -388zM336 696q-76 0 -130 54t-54 129q0 77 54 130.5t130 53.5q75 0 129.5 -54t54.5 -130q0 -75 -54.5 -129t-129.5 -54z" />
    <glyph glyph-name="less" unicode="&#x3c;" horiz-adv-x="1011" 
d="M889 1034v-272l-553 -199l553 -196v-275l-766 305v332z" />
    <glyph glyph-name="equal" unicode="=" horiz-adv-x="1013" 
d="M123 956h768v-256h-768v256zM123 264v254h768v-254h-768z" />
    <glyph glyph-name="greater" unicode="&#x3e;" horiz-adv-x="1013" 
d="M123 1034l768 -305v-332l-768 -305v275l553 196l-553 199v272z" />
    <glyph glyph-name="question" unicode="?" horiz-adv-x="1056" 
d="M541 1458q109 0 198 -33.5t143.5 -90t83.5 -125.5t29 -144q0 -60 -16 -111t-42 -87.5t-57.5 -69t-62.5 -62t-57 -60.5t-42 -71t-16 -86h-321q0 80 27 149.5t66 117t78 88t66 81.5t27 80q0 54 -33.5 86.5t-95.5 32.5t-97 -40.5t-42 -100.5l-316 78q35 185 164 276.5
t316 91.5zM541 342q76 0 130 -54.5t54 -129.5q0 -77 -54 -131t-130 -54q-75 0 -129 54.5t-54 130.5q0 75 54 129.5t129 54.5z" />
    <glyph glyph-name="at" unicode="@" horiz-adv-x="1875" 
d="M948 1493q194 0 353.5 -61.5t261 -164.5t156.5 -234t55 -275q0 -119 -32.5 -214.5t-85 -152t-114 -86t-125.5 -29.5q-175 0 -252 123q-94 -112 -256 -112q-92 0 -165.5 32t-120 87.5t-71 127.5t-24.5 154q0 76 24.5 147.5t68.5 128.5t112 91.5t148 34.5q144 0 235 -113
v92h207v-442q0 -73 22 -111.5t76 -38.5q69 0 110.5 79.5t41.5 201.5q0 117 -41.5 217.5t-119 175.5t-197 117.5t-267.5 42.5q-298 0 -471.5 -170.5t-173.5 -456.5q0 -144 51.5 -263.5t137.5 -196.5t193.5 -119t223.5 -42q132 0 225.5 38.5t145.5 84.5l123 -145
q-73 -66 -197.5 -113t-296.5 -47q-236 0 -420.5 103t-285.5 286t-101 414q0 236 104.5 419.5t297.5 286.5t444 103zM930 510q84 0 131 50.5t47 127.5q0 81 -50 129.5t-128 48.5q-81 0 -129.5 -50t-48.5 -128q0 -82 49.5 -130t128.5 -48z" />
    <glyph glyph-name="A" unicode="A" horiz-adv-x="1486" 
d="M1100 0l-84 266h-543l-84 -266h-369l517 1434h413l516 -1434h-366zM555 532h377l-189 596z" />
    <glyph glyph-name="B" unicode="B" horiz-adv-x="1288" 
d="M1014 752q213 -92 213 -316q0 -201 -130 -318.5t-399 -117.5h-575v1434h522q255 0 388.5 -105t133.5 -291q0 -191 -153 -280v-6zM627 1157h-152v-311h152q93 0 140.5 42t47.5 113q0 77 -48 116.5t-140 39.5zM680 276q94 0 142 48.5t48 126.5q0 74 -48.5 114.5
t-141.5 40.5h-205v-330h205z" />
    <glyph glyph-name="C" unicode="C" horiz-adv-x="1411" 
d="M801 311q185 0 286 133l293 -192q-99 -132 -248.5 -205.5t-330.5 -73.5q-156 0 -292 56.5t-232 155t-150.5 236.5t-54.5 296q0 210 93 379t260 265.5t376 96.5q181 0 330.5 -73t248.5 -203l-293 -193q-102 131 -286 131q-90 0 -163.5 -34t-119 -91.5t-70 -128.5
t-24.5 -149t24.5 -149.5t70 -129.5t119 -92.5t163.5 -34.5z" />
    <glyph glyph-name="D" unicode="D" horiz-adv-x="1458" 
d="M625 1434q356 0 558.5 -193.5t202.5 -523.5q0 -331 -202 -524t-559 -193h-502v1434h502zM625 330q183 0 297 101t114 286t-113.5 285t-297.5 100h-150v-772h150z" />
    <glyph glyph-name="E" unicode="E" horiz-adv-x="1105" 
d="M473 330h551v-330h-901v1434h883v-332h-533v-221h467v-314h-467v-237z" />
    <glyph glyph-name="F" unicode="F" horiz-adv-x="1097" 
d="M1016 1102h-543v-273h483v-329h-483v-500h-350v1434h893v-332z" />
    <glyph glyph-name="G" unicode="G" horiz-adv-x="1579" 
d="M801 829h676v-829h-168l-47 178q-162 -205 -461 -205q-157 0 -293 56.5t-231.5 155.5t-150 236.5t-54.5 295.5q0 210 92.5 379t259.5 265.5t377 96.5q181 0 330 -72.5t247 -203.5l-291 -193q-105 133 -286 133q-90 0 -164 -34.5t-120 -92t-70.5 -129t-24.5 -149.5
q0 -105 41.5 -195.5t129.5 -150.5t208 -60q139 0 226.5 65.5t123.5 174.5h-350v278z" />
    <glyph glyph-name="H" unicode="H" horiz-adv-x="1466" 
d="M993 1434h350v-1434h-350v557h-520v-557h-350v1434h350v-545h520v545z" />
    <glyph glyph-name="I" unicode="I" horiz-adv-x="595" 
d="M123 1434h350v-1434h-350v1434z" />
    <glyph glyph-name="J" unicode="J" horiz-adv-x="1216" 
d="M743 1434h351v-924q0 -259 -132.5 -398t-396.5 -139q-229 0 -376 124.5t-158 318.5l346 63q5 -69 51 -118.5t135 -49.5q52 0 89.5 18.5t56 50t26.5 63.5t8 67v924z" />
    <glyph glyph-name="K" unicode="K" horiz-adv-x="1357" 
d="M1337 0h-409l-455 655v-655h-350v1434h350v-637l438 637h392l-496 -695z" />
    <glyph glyph-name="L" unicode="L" horiz-adv-x="1071" 
d="M475 330h535v-330h-887v1434h352v-1104z" />
    <glyph glyph-name="M" unicode="M" horiz-adv-x="1824" 
d="M1331 1434h371v-1434h-352v852l-373 -616h-129l-375 616v-852h-350v1434h369l419 -695z" />
    <glyph glyph-name="N" unicode="N" horiz-adv-x="1464" 
d="M989 1434h352v-1434h-307l-559 836v-836h-352v1434h307l559 -836v836z" />
    <glyph glyph-name="O" unicode="O" horiz-adv-x="1601" 
d="M801 1458q209 0 376 -96.5t260 -265.5t93 -379q0 -158 -54.5 -296t-150.5 -236.5t-232 -155t-292 -56.5t-292 56.5t-232 155t-150.5 236.5t-54.5 296q0 210 93 379t260 265.5t376 96.5zM801 311q90 0 163.5 34.5t119 92.5t70 129.5t24.5 149.5t-24.5 149t-70 128.5
t-119 91.5t-163.5 34t-163.5 -34t-119 -91.5t-70 -128.5t-24.5 -149t24.5 -149.5t70 -129.5t119 -92.5t163.5 -34.5z" />
    <glyph glyph-name="P" unicode="P" horiz-adv-x="1288" 
d="M657 1434q265 0 417.5 -140t152.5 -374q0 -123 -45 -219.5t-124 -156t-180.5 -90t-220.5 -30.5h-184v-424h-350v1434h534zM657 737q99 0 156 46t57 137q0 84 -56.5 133t-156.5 49h-184v-365h184z" />
    <glyph glyph-name="Q" unicode="Q" horiz-adv-x="1601" 
d="M1530 717q0 -255 -137 -451l127 -127l-187 -184l-131 133q-176 -115 -401 -115q-156 0 -292 56.5t-232 155t-150.5 236.5t-54.5 296q0 210 93 379t260 265.5t376 96.5t376 -96.5t260 -265.5t93 -379zM801 311q79 0 151 29l-178 178l187 184l176 -178q41 90 41 193
q0 78 -24.5 149t-70 128.5t-119 91.5t-163.5 34t-163.5 -34t-119 -91.5t-70 -128.5t-24.5 -149t24.5 -149.5t70 -129.5t119 -92.5t163.5 -34.5z" />
    <glyph glyph-name="R" unicode="R" horiz-adv-x="1329" 
d="M1309 0h-373l-242 479h-20h-201v-479h-350v1434h551q266 0 408.5 -136.5t142.5 -359.5q0 -126 -58 -222.5t-163 -156.5zM473 1102v-328h201q86 0 141 39t55 125q0 78 -53 121t-143 43h-201z" />
    <glyph glyph-name="S" unicode="S" horiz-adv-x="1220" 
d="M727 852q259 -72 356 -167t97 -265q0 -88 -38 -168t-108 -142.5t-178 -99.5t-238 -37q-102 0 -193 21t-170 63.5t-135 115t-79 169.5l324 100q15 -70 78 -120t171 -50q94 0 152.5 37t58.5 105q0 19 -7 35.5t-17 29t-30 23.5t-36.5 18t-46.5 16t-50 14t-57 14t-59 14
q-216 53 -316 158t-100 284q0 134 69.5 234.5t188.5 152t269 51.5q189 0 329.5 -95.5t180.5 -262.5l-324 -80q-15 59 -65.5 99t-137.5 40q-76 0 -123 -37.5t-47 -99.5q0 -23 9 -43t28 -35t37.5 -26.5t50 -21.5t51.5 -16t55 -15t50 -13z" />
    <glyph glyph-name="T" unicode="T" horiz-adv-x="1144" 
d="M1083 1434v-332h-335v-1102h-351v1102h-336v332h1022z" />
    <glyph glyph-name="U" unicode="U" horiz-adv-x="1443" 
d="M971 1434h350v-877q0 -290 -156 -437t-442 -147q-287 0 -443.5 147t-156.5 437v877h352v-842q0 -140 64 -210.5t184 -70.5q119 0 183.5 70.5t64.5 210.5v842z" />
    <glyph glyph-name="V" unicode="V" horiz-adv-x="1484" 
d="M1098 1434h366l-514 -1434h-415l-515 1434h367l356 -1131z" />
    <glyph glyph-name="W" unicode="W" horiz-adv-x="2052" 
d="M1663 1434h369l-445 -1434h-319l-242 858l-242 -858h-321l-443 1434h367l248 -942l266 942h250l264 -942z" />
    <glyph glyph-name="X" unicode="X" horiz-adv-x="1386" 
d="M1366 0h-395l-279 449l-276 -449h-396l461 737l-426 697h396l241 -412l244 412h395l-426 -697z" />
    <glyph glyph-name="Y" unicode="Y" horiz-adv-x="1425" 
d="M1405 1434l-516 -895v-539h-352v539l-517 895h377l316 -611l315 611h377z" />
    <glyph glyph-name="Z" unicode="Z" horiz-adv-x="1208" 
d="M510 330h637v-330h-1086v293l601 809h-582v332h1030v-295z" />
    <glyph glyph-name="bracketleft" unicode="[" horiz-adv-x="763" 
d="M662 1346h-230v-1258h230v-287h-539v1829h539v-284z" />
    <glyph glyph-name="backslash" unicode="\" horiz-adv-x="1048" 
d="M375 1630l592 -1829h-293l-592 1829h293z" />
    <glyph glyph-name="bracketright" unicode="]" horiz-adv-x="763" 
d="M102 1630h539v-1829h-539v287h230v1258h-230v284z" />
    <glyph glyph-name="asciicircum" unicode="^" horiz-adv-x="1077" 
d="M995 821h-307l-149 330l-150 -330h-307l309 613h293z" />
    <glyph glyph-name="underscore" unicode="_" horiz-adv-x="831" 
d="M41 -145h750v-254h-750v254z" />
    <glyph glyph-name="grave" unicode="`" horiz-adv-x="708" 
d="M453 1468l133 -286h-264l-199 286h330z" />
    <glyph glyph-name="a" unicode="a" horiz-adv-x="1134" 
d="M573 1063q449 0 449 -418v-645h-332v96q-40 -58 -120 -90.5t-164 -32.5q-46 0 -90.5 7.5t-94 28t-86 53.5t-60.5 89t-24 128q0 70 26 127t63 92t93 60.5t101 37.5t101.5 18.5t80 7.5t51.5 1h123v4q0 78 -41.5 123t-128.5 45q-114 0 -196 -66l-218 148q177 186 467 186z
M690 291v166h-26q-134 0 -205.5 -30.5t-71.5 -104.5q0 -54 37 -79.5t96 -25.5q52 0 99.5 21.5t70.5 52.5z" />
    <glyph glyph-name="b" unicode="b" horiz-adv-x="1286" 
d="M737 1063q117 0 213.5 -46.5t157.5 -124t94 -174t33 -200.5t-33 -200.5t-94 -174t-157.5 -124t-213.5 -46.5q-188 0 -293 127v-100h-331v1434h331v-498q105 127 293 127zM678 297q101 0 161 62t60 159q0 98 -60 160.5t-161 62.5q-96 0 -158.5 -60.5t-62.5 -162.5
q0 -101 62.5 -161t158.5 -60z" />
    <glyph glyph-name="c" unicode="c" horiz-adv-x="1101" 
d="M608 297q121 0 187 96l286 -172q-72 -115 -196 -181.5t-277 -66.5q-241 0 -399 156.5t-158 388.5q0 153 71 277.5t199 196t287 71.5q153 0 277.5 -66t195.5 -182l-286 -172q-65 98 -187 98q-98 0 -159.5 -65t-61.5 -158t61.5 -157t159.5 -64z" />
    <glyph glyph-name="d" unicode="d" horiz-adv-x="1286" 
d="M842 1434h332v-1434h-332v100q-105 -127 -293 -127q-117 0 -213.5 46.5t-157.5 124t-94 174t-33 200.5t33 200.5t94 174t157.5 124t213.5 46.5q188 0 293 -127v498zM608 297q96 0 159.5 60.5t63.5 160.5q0 102 -63.5 162.5t-159.5 60.5q-101 0 -161 -62.5t-60 -160.5
q0 -97 60 -159t161 -62z" />
    <glyph glyph-name="e" unicode="e" horiz-adv-x="1181" 
d="M588 1063q118 0 219.5 -40.5t178.5 -117.5t115 -203t23 -284h-749q26 -88 94 -132t166 -44q72 0 127.5 27t85.5 63l233 -139q-65 -100 -181.5 -160t-264.5 -60q-262 0 -423 151t-161 394q0 151 72 276.5t195 197t270 71.5zM375 618h448q-18 88 -77 132.5t-148 44.5
q-80 0 -140 -46.5t-83 -130.5z" />
    <glyph glyph-name="f" unicode="f" horiz-adv-x="806" 
d="M684 1206q-79 0 -110 -41t-31 -127h202v-274h-202v-764h-334v764h-127v274h127q0 64 9 121t35.5 119t68.5 106t114 72.5t166 28.5q46 0 143 -15v-268q-28 4 -61 4z" />
    <glyph glyph-name="g" unicode="g" horiz-adv-x="1286" 
d="M842 1038h332v-948q0 -226 -155 -365t-427 -139q-168 0 -306 60t-198 157l248 148q27 -40 92.5 -68t149.5 -28q144 0 204 70.5t60 201.5v47q-98 -127 -291 -127q-116 0 -211.5 41t-158 111t-96.5 161.5t-34 194.5t34 194.5t96 161.5t158 111t212 41q193 0 291 -137v112z
M608 334q96 0 158.5 60t62.5 161t-62.5 161t-158.5 60q-101 0 -161 -62t-60 -159t60 -159t161 -62z" />
    <glyph glyph-name="h" unicode="h" 
d="M729 1063q94 0 168.5 -35t120 -94t69 -132t23.5 -153v-649h-334v559q0 86 -46.5 132t-119.5 46q-74 0 -120 -47t-46 -131v-559h-331v1434h331v-492q105 121 285 121z" />
    <glyph glyph-name="i" unicode="i" horiz-adv-x="557" 
d="M113 0v1038h331v-1038h-331zM279 1153q-72 0 -123.5 52t-51.5 124t51.5 123t123.5 51t123 -51t51 -123t-51 -124t-123 -52z" />
    <glyph glyph-name="j" unicode="j" horiz-adv-x="557" 
d="M111 72v966h333v-1001q0 -88 -21.5 -161.5t-65 -131.5t-118 -90.5t-173.5 -32.5q-53 0 -144 14v291q100 -9 144.5 22t44.5 124zM279 1153q-72 0 -123.5 52t-51.5 124t51.5 123t123.5 51t123 -51t51 -123t-51 -124t-123 -52z" />
    <glyph glyph-name="k" unicode="k" horiz-adv-x="1150" 
d="M1130 0h-389l-295 457v-457h-333v1434h333v-826l285 430h373l-346 -491z" />
    <glyph glyph-name="l" unicode="l" horiz-adv-x="559" 
d="M113 1434h333v-1434h-333v1434z" />
    <glyph glyph-name="m" unicode="m" horiz-adv-x="1777" 
d="M1294 1063q182 0 276.5 -105.5t94.5 -271.5v-686h-332v596q0 41 -14 71t-36.5 44t-44 20t-44.5 6t-44.5 -6.5t-43.5 -20.5t-35.5 -43.5t-13.5 -70.5v-596h-334v596q0 41 -13.5 71t-35.5 44t-43.5 20t-44.5 6t-45 -6.5t-44.5 -20.5t-36.5 -43.5t-14 -70.5v-596h-333v1038
h333v-80q94 105 256 105q202 0 293 -139q112 139 299 139z" />
    <glyph glyph-name="n" unicode="n" 
d="M729 1063q93 0 167.5 -35t120 -94t69.5 -132t24 -153v-649h-334v559q0 86 -46.5 132t-119.5 46q-74 0 -120 -47t-46 -131v-559h-331v1038h331v-96q105 121 285 121z" />
    <glyph glyph-name="o" unicode="o" horiz-adv-x="1216" 
d="M608 1063q160 0 288 -71.5t198.5 -196t70.5 -277.5q0 -232 -157.5 -388.5t-399.5 -156.5q-241 0 -399 156.5t-158 388.5q0 153 71 277.5t199 196t287 71.5zM608 297q99 0 161 64t62 157t-62 158t-161 65q-98 0 -159.5 -65t-61.5 -158t61.5 -157t159.5 -64z" />
    <glyph glyph-name="p" unicode="p" horiz-adv-x="1288" 
d="M739 1063q117 0 213 -46.5t157.5 -124t94.5 -174.5t33 -200t-33 -200t-94.5 -174.5t-157.5 -124t-213 -46.5q-192 0 -293 127v-495h-333v1433h333v-102q101 127 293 127zM678 297q102 0 162.5 62t60.5 159q0 99 -60.5 161t-162.5 62q-96 0 -158.5 -60.5t-62.5 -162.5
q0 -101 62.5 -161t158.5 -60z" />
    <glyph glyph-name="q" unicode="q" horiz-adv-x="1286" 
d="M842 1038h332v-1433h-332v495q-105 -127 -295 -127q-94 0 -175 30.5t-139 83t-99.5 122t-62 148.5t-20.5 161t20.5 161t62 148.5t99.5 122t139 83t175 30.5q190 0 295 -127v102zM608 297q96 0 158.5 60t62.5 161q0 102 -62.5 162.5t-158.5 60.5q-102 0 -162.5 -62
t-60.5 -161q0 -97 60.5 -159t162.5 -62z" />
    <glyph glyph-name="r" unicode="r" horiz-adv-x="823" 
d="M444 881q54 86 143.5 134t184.5 48v-356q-48 7 -89 7t-71.5 -6t-55.5 -19.5t-42.5 -29.5t-30 -39t-20 -45.5t-12 -51.5t-6 -55t-1.5 -58v-410h-331v1038h331v-157z" />
    <glyph glyph-name="s" unicode="s" horiz-adv-x="989" 
d="M582 643q201 -42 283.5 -111.5t82.5 -209.5q0 -166 -120 -257.5t-345 -91.5q-110 0 -201 23.5t-160.5 81.5t-90.5 145l301 94q10 -36 46 -60t101 -24q56 0 90.5 18t34.5 56q0 21 -11 34.5t-36 22t-48.5 13t-65.5 11.5t-70 13q-160 36 -233.5 105.5t-73.5 214.5
q0 160 123.5 251t322.5 91q142 0 254.5 -69t144.5 -195l-278 -68q-9 36 -41 56t-78 20q-55 0 -91 -18t-36 -58q0 -19 11 -33t35.5 -23t43 -13.5t55.5 -10t50 -8.5z" />
    <glyph glyph-name="t" unicode="t" horiz-adv-x="839" 
d="M737 764h-205v-328q0 -83 33.5 -123.5t108.5 -40.5q7 0 63 7v-279q-53 -18 -143 -18q-92 0 -163 24.5t-113.5 64t-69.5 96t-37 112.5t-10 122v363h-129v274h129v217h331v-217h205v-274z" />
    <glyph glyph-name="u" unicode="u" 
d="M776 1038h334v-1038h-334v94q-101 -121 -282 -121q-94 0 -168.5 35t-120 94t-69 132t-23.5 153v651h331v-561q0 -85 47.5 -131.5t118.5 -46.5q75 0 120.5 47t45.5 131v561z" />
    <glyph glyph-name="v" unicode="v" horiz-adv-x="1169" 
d="M797 1038h352l-404 -1038h-321l-404 1038h355l211 -663z" />
    <glyph glyph-name="w" unicode="w" horiz-adv-x="1652" 
d="M1280 1038h352l-348 -1038h-266l-191 559l-190 -559h-266l-351 1038h355l153 -581l195 581h209l194 -581z" />
    <glyph glyph-name="x" unicode="x" horiz-adv-x="1148" 
d="M1128 0h-372l-183 322l-178 -322h-375l330 520l-313 518h375l161 -323l164 323h375l-313 -518z" />
    <glyph glyph-name="y" unicode="y" horiz-adv-x="1169" 
d="M795 1038h354l-569 -1433h-338l190 456l-412 977h353l209 -592z" />
    <glyph glyph-name="z" unicode="z" horiz-adv-x="1024" 
d="M520 309h422v-309h-860v238l403 489h-385v311h824v-237z" />
    <glyph glyph-name="braceleft" unicode="{" horiz-adv-x="874" 
d="M573 938q0 -183 -151 -217v-8q151 -37 151 -219v-246q0 -80 30.5 -120t121.5 -40h47v-287h-123q-194 0 -290.5 83.5t-96.5 269.5v303q0 83 -33 112t-106 29v238q73 0 106 28.5t33 110.5v303q0 187 96 269.5t291 82.5h123v-284h-47q-91 0 -121.5 -40.5t-30.5 -119.5v-248z
" />
    <glyph glyph-name="bar" unicode="|" horiz-adv-x="536" 
d="M123 1550h291v-1855h-291v1855z" />
    <glyph glyph-name="braceright" unicode="}" horiz-adv-x="874" 
d="M610 975q0 -81 34.5 -110t107.5 -29v-238q-73 0 -107.5 -29t-34.5 -112v-303q0 -186 -95.5 -269.5t-289.5 -83.5h-123v287h45q91 0 122.5 40t31.5 120v246q0 182 152 219v8q-152 34 -152 217v248q0 79 -31.5 119.5t-122.5 40.5h-45v284h123q195 0 290 -82.5t95 -269.5
v-303z" />
    <glyph glyph-name="asciitilde" unicode="~" horiz-adv-x="1206" 
d="M860 766l244 -49q-22 -135 -85 -204t-175 -69q-72 0 -149.5 23t-146 46.5t-118.5 23.5q-69 0 -86 -84l-242 49q24 130 89 202t190 72q68 0 142 -22t139 -44t112 -22q73 0 86 78z" />
    <glyph glyph-name="exclamdown" unicode="&#xa1;" horiz-adv-x="612" 
d="M307 696q-76 0 -130 54t-54 129q0 77 53.5 130.5t130.5 53.5q75 0 128.5 -54t53.5 -130q0 -75 -53.5 -129t-128.5 -54zM170 520h274l45 -915h-366z" />
    <glyph glyph-name="cent" unicode="&#xa2;" horiz-adv-x="1196" 
d="M639 494q61 0 109 26t77 72l289 -172q-67 -104 -175 -169t-241 -77v-174h-163v180q-201 34 -327 183t-126 354q0 204 126 352t327 182v183h163v-177q133 -12 241 -76t175 -167l-289 -172q-29 44 -77 70t-109 26q-98 0 -159.5 -64t-61.5 -157t61.5 -158t159.5 -65z" />
    <glyph glyph-name="sterling" unicode="&#xa3;" horiz-adv-x="1261" 
d="M426 330h733v-330h-1077v330q86 64 120 135t34 160h-154v145h129q-3 10 -15 43.5t-16.5 50t-12 46.5t-10.5 59t-3 61q0 180 135 304t362 124q387 0 477 -348l-321 -80q-11 44 -43.5 76.5t-87.5 32.5q-65 0 -100 -41t-35 -105q0 -39 22 -116.5t27 -106.5h315v-145h-309
q-20 -174 -170 -287v-8z" />
    <glyph glyph-name="currency" unicode="&#xa4;" horiz-adv-x="1036" 
d="M954 395l-116 -114l-127 125q-88 -56 -193 -56q-106 0 -194 56l-127 -125l-115 114l125 127q-55 90 -55 195q0 104 55 194l-125 125l115 117l127 -127q90 57 194 57q103 0 193 -57l127 127l116 -117l-127 -125q56 -91 56 -194q0 -104 -56 -195zM518 569q60 0 104 43.5
t44 104.5q0 60 -44 103.5t-104 43.5q-61 0 -104 -43.5t-43 -103.5q0 -62 43 -105t104 -43z" />
    <glyph glyph-name="yen" unicode="&#xa5;" horiz-adv-x="1423" 
d="M1403 1434l-436 -758h192v-146h-272v-100h272v-145h-272v-285h-350v285h-273v145h273v100h-273v146h193l-437 758h377l316 -611l313 611h377z" />
    <glyph glyph-name="brokenbar" unicode="&#xa6;" horiz-adv-x="538" 
d="M123 -305v727h293v-727h-293zM123 1550h293v-727h-293v727z" />
    <glyph glyph-name="section" unicode="&#xa7;" horiz-adv-x="1187" 
d="M1085 602q0 -81 -44 -156t-111 -118q74 -81 74 -201q0 -165 -118.5 -266t-318.5 -101q-179 0 -289.5 72.5t-140.5 202.5l273 61q10 -43 49 -75.5t98 -32.5q63 0 97 32.5t34 81.5q0 41 -32.5 71.5t-84 51.5t-114 41.5t-125 48.5t-114 64t-84 97t-32.5 140q0 80 44.5 155
t111.5 120q-74 81 -74 201q0 165 118.5 265.5t318.5 100.5q180 0 290 -72.5t140 -201.5l-273 -62q-10 43 -49 76t-98 33q-63 0 -97 -33t-34 -82q0 -41 32.5 -71.5t84 -51.5t113.5 -41.5t124.5 -48.5t114 -64t84 -97t32.5 -140zM641 479q41 -11 86 -30q72 51 72 118
q0 15 -4 29t-14.5 26t-19.5 21.5t-28.5 20t-31 16.5t-37 15.5t-37 14t-41 14t-39.5 13.5q-38 13 -86 33q-72 -51 -72 -121q0 -15 4.5 -28.5t14 -25.5t20 -21.5t28 -19.5t31 -16.5t37 -15.5t37.5 -14.5t40.5 -14.5t39.5 -14z" />
    <glyph glyph-name="dieresis" unicode="&#xa8;" horiz-adv-x="1034" 
d="M283 1487q66 0 112.5 -47t46.5 -113t-46.5 -113t-112.5 -47t-113 47t-47 113t47 113t113 47zM750 1487q67 0 114 -47t47 -113t-47 -113t-114 -47q-66 0 -113 47t-47 113t47 113t113 47z" />
    <glyph glyph-name="copyright" unicode="&#xa9;" horiz-adv-x="1656" 
d="M829 1452q150 0 286 -58t234.5 -156.5t157 -234.5t58.5 -286t-58.5 -286t-157 -235t-234.5 -157.5t-286 -58.5q-201 0 -370.5 99t-268 268.5t-98.5 369.5t98.5 369t268 267.5t370.5 98.5zM829 109q165 0 305.5 81.5t222 221.5t81.5 305t-81.5 305t-222 221.5t-305.5 81.5
t-305.5 -81.5t-222.5 -221.5t-82 -305t82 -305t222.5 -221.5t305.5 -81.5zM846 926q-91 0 -143 -62.5t-52 -146.5t52 -146.5t143 -62.5q93 0 147 67l152 -98q-108 -143 -299 -143q-164 0 -273.5 109.5t-109.5 273.5t109.5 273.5t273.5 109.5q93 0 170 -38t129 -106
l-152 -100q-56 70 -147 70z" />
    <glyph glyph-name="guillemotleft" unicode="&#xab;" horiz-adv-x="1273" 
d="M655 877l-245 -363l245 -362h-327l-246 362l246 363h327zM1192 877l-246 -363l246 -362h-328l-246 362l246 363h328z" />
    <glyph glyph-name="registered" unicode="&#xae;" horiz-adv-x="1656" 
d="M1145 842q0 -70 -34 -122.5t-93 -82.5l160 -283h-203l-125 248h-115v-248h-182v744h305q137 0 212 -71t75 -185zM735 926v-170h123q103 0 103 86q0 39 -28.5 61.5t-74.5 22.5h-123zM827 1452q150 0 287 -58t235.5 -156.5t157 -234.5t58.5 -286t-58.5 -286t-157 -235
t-235.5 -157.5t-287 -58.5q-200 0 -369 99t-267.5 268.5t-98.5 369.5t98.5 369t267.5 267.5t369 98.5zM827 109q165 0 306 81.5t223 221.5t82 305t-82 305t-223 221.5t-306 81.5t-305 -81.5t-221.5 -221.5t-81.5 -305t81.5 -305t221.5 -221.5t305 -81.5z" />
    <glyph glyph-name="macron" unicode="&#xaf;" horiz-adv-x="860" 
d="M123 1425h614v-237h-614v237z" />
    <glyph glyph-name="degree" unicode="&#xb0;" horiz-adv-x="825" 
d="M414 1434q136 0 232.5 -97.5t96.5 -232.5q0 -137 -96.5 -234.5t-232.5 -97.5t-234 98t-98 234q0 135 98 232.5t234 97.5zM414 973q54 0 91.5 38.5t37.5 92.5q0 53 -37.5 91t-91.5 38t-92.5 -38t-38.5 -91q0 -54 38.5 -92.5t92.5 -38.5z" />
    <glyph glyph-name="plusminus" unicode="&#xb1;" horiz-adv-x="1048" 
d="M662 965h264v-273h-264v-248h-275v248h-264v273h264v247h275v-247zM123 0v254h803v-254h-803z" />
    <glyph glyph-name="acute" unicode="&#xb4;" horiz-adv-x="708" 
d="M256 1468h330l-199 -286h-264z" />
    <glyph glyph-name="paragraph" unicode="&#xb6;" horiz-adv-x="1361" 
d="M1260 1434v-304h-101v-1312h-256v1312h-186v-1312h-254v899q-177 10 -289.5 101t-112.5 257q0 117 60 199.5t157 121t220 38.5h762z" />
    <glyph glyph-name="cedilla" unicode="&#xb8;" horiz-adv-x="737" 
d="M379 -94q106 2 170.5 -49t64.5 -156q0 -102 -76.5 -159.5t-189.5 -57.5q-145 0 -225 53l82 150q48 -31 106 -31q47 0 72 21.5t25 54.5q0 36 -23.5 52.5t-54.5 16.5q-36 0 -64 -14l-53 70l72 143h141z" />
    <glyph glyph-name="guillemotright" unicode="&#xbb;" horiz-adv-x="1275" 
d="M946 877l248 -363l-248 -362h-328l248 362l-248 363h328zM410 877l247 -363l-247 -362h-328l248 362l-248 363h328z" />
    <glyph glyph-name="questiondown" unicode="&#xbf;" horiz-adv-x="1056" 
d="M680 27l315 -78q-24 -126 -94 -211t-166.5 -122.5t-216.5 -37.5q-110 0 -199.5 34t-144.5 90.5t-84 125.5t-29 143q0 60 16 111t42 87.5t57 69t62.5 62.5t57.5 60.5t42 71t16 87.5h322q0 -68 -19.5 -128.5t-49 -102.5t-63.5 -82.5t-63.5 -70.5t-49 -65t-19.5 -67
q0 -55 34 -87t97 -32q60 0 95 41t42 101zM516 696q-76 0 -130 54t-54 129q0 77 54 130.5t130 53.5q75 0 128.5 -54t53.5 -130q0 -75 -53.5 -129t-128.5 -54z" />
    <glyph glyph-name="Agrave" unicode="&#xc0;" horiz-adv-x="1486" 
d="M1100 0l-84 266h-543l-84 -266h-369l517 1434h413l516 -1434h-366zM555 532h377l-189 596zM739 1878l133 -287h-264l-198 287h329z" />
    <glyph glyph-name="Aacute" unicode="&#xc1;" horiz-adv-x="1486" 
d="M1100 0l-84 266h-543l-84 -266h-369l517 1434h413l516 -1434h-366zM555 532h377l-189 596zM748 1878h329l-198 -287h-265z" />
    <glyph glyph-name="Acircumflex" unicode="&#xc2;" horiz-adv-x="1486" 
d="M1100 0l-84 266h-543l-84 -266h-369l517 1434h413l516 -1434h-366zM555 532h377l-189 596zM1114 1591h-268l-101 140l-102 -140h-268l225 287h289z" />
    <glyph glyph-name="Atilde" unicode="&#xc3;" horiz-adv-x="1486" 
d="M1100 0l-84 266h-543l-84 -266h-369l517 1434h413l516 -1434h-366zM555 532h377l-189 596zM891 1829l188 -33q-12 -114 -59 -169.5t-133 -55.5q-55 0 -132 29.5t-104 29.5q-46 0 -55 -59l-188 33q32 225 210 225q47 0 114.5 -30t101.5 -30q52 0 57 60z" />
    <glyph glyph-name="Adieresis" unicode="&#xc4;" horiz-adv-x="1486" 
d="M1100 0l-84 266h-543l-84 -266h-369l517 1434h413l516 -1434h-366zM555 532h377l-189 596zM510 1896q66 0 113 -46.5t47 -112.5t-47 -113t-113 -47t-113 47t-47 113t47 112.5t113 46.5zM977 1896q67 0 114.5 -46.5t47.5 -112.5t-47.5 -113t-114.5 -47q-66 0 -113 47
t-47 113t47 112.5t113 46.5z" />
    <glyph glyph-name="Aring" unicode="&#xc5;" horiz-adv-x="1486" 
d="M1100 0l-84 266h-543l-84 -266h-369l517 1434h413l516 -1434h-366zM555 532h377l-189 596zM741 1993q100 0 170 -70t70 -168q0 -100 -70 -169.5t-170 -69.5q-98 0 -167.5 69.5t-69.5 169.5q0 98 69.5 168t167.5 70zM741 1661q38 0 66.5 28t28.5 66t-28 65t-67 27
q-37 0 -64.5 -27t-27.5 -65t27.5 -66t64.5 -28z" />
    <glyph glyph-name="AE" unicode="&#xc6;" horiz-adv-x="1966" 
d="M1333 330h551v-330h-901v266h-477l-119 -266h-367l699 1434h1145v-332h-531v-221h467v-314h-467v-237zM623 532h360v570h-109z" />
    <glyph glyph-name="Ccedilla" unicode="&#xc7;" horiz-adv-x="1411" 
d="M799 311q185 0 286 133l293 -192q-97 -128 -242 -201t-321 -76l-35 -71q106 2 171 -49t65 -156q0 -102 -76.5 -159.5t-189.5 -57.5q-146 0 -226 53l84 150q45 -31 107 -31q47 0 70.5 21.5t23.5 54.5q0 36 -23.5 52.5t-54.5 16.5q-35 0 -63 -14l-54 70l64 129
q-269 40 -437.5 243t-168.5 490q0 210 92.5 379t259 265.5t375.5 96.5q181 0 330.5 -73t248.5 -203l-293 -193q-102 131 -286 131q-90 0 -163.5 -34t-119 -91.5t-70 -128.5t-24.5 -149t24.5 -149.5t70 -129.5t119 -92.5t163.5 -34.5z" />
    <glyph glyph-name="Egrave" unicode="&#xc8;" horiz-adv-x="1105" 
d="M473 330h551v-330h-901v1434h883v-332h-533v-221h467v-314h-467v-237zM590 1878l133 -287h-264l-199 287h330z" />
    <glyph glyph-name="Eacute" unicode="&#xc9;" horiz-adv-x="1105" 
d="M473 330h551v-330h-901v1434h883v-332h-533v-221h467v-314h-467v-237zM557 1878h330l-199 -287h-264z" />
    <glyph glyph-name="Ecircumflex" unicode="&#xca;" horiz-adv-x="1105" 
d="M473 330h551v-330h-901v1434h883v-332h-533v-221h467v-314h-467v-237zM944 1591h-268l-101 140l-102 -140h-268l225 287h289z" />
    <glyph glyph-name="Edieresis" unicode="&#xcb;" horiz-adv-x="1105" 
d="M473 330h551v-330h-901v1434h883v-332h-533v-221h467v-314h-467v-237zM338 1896q66 0 113 -46.5t47 -112.5t-47 -113t-113 -47t-113 47t-47 113t47 112.5t113 46.5zM805 1896q67 0 114.5 -46.5t47.5 -112.5t-47.5 -113t-114.5 -47q-66 0 -113 47t-47 113t47 112.5
t113 46.5z" />
    <glyph glyph-name="Igrave" unicode="&#xcc;" horiz-adv-x="595" 
d="M123 1434h350v-1434h-350v1434zM295 1878l133 -287h-264l-199 287h330z" />
    <glyph glyph-name="Iacute" unicode="&#xcd;" horiz-adv-x="595" 
d="M123 1434h350v-1434h-350v1434zM283 1878h329l-198 -287h-264z" />
    <glyph glyph-name="Icircumflex" unicode="&#xce;" horiz-adv-x="595" 
d="M123 1434h350v-1434h-350v1434zM668 1591h-269l-100 140l-102 -140h-269l226 287h288z" />
    <glyph glyph-name="Idieresis" unicode="&#xcf;" horiz-adv-x="595" 
d="M123 1434h350v-1434h-350v1434zM63 1896q66 0 113 -46.5t47 -112.5t-47 -113t-113 -47t-112.5 47t-46.5 113t46.5 112.5t112.5 46.5zM530 1896q67 0 114.5 -46.5t47.5 -112.5t-47.5 -113t-114.5 -47q-66 0 -112.5 47t-46.5 113t46.5 112.5t112.5 46.5z" />
    <glyph glyph-name="Eth" unicode="&#xd0;" horiz-adv-x="1517" 
d="M684 1434q356 0 559 -193.5t203 -523.5q0 -331 -202.5 -524t-559.5 -193h-502v653h-162v127h162v654h502zM684 330q183 0 297.5 101t114.5 286t-114 285t-298 100h-149v-322h270v-127h-270v-323h149z" />
    <glyph glyph-name="Ntilde" unicode="&#xd1;" horiz-adv-x="1464" 
d="M989 1434h352v-1434h-307l-559 836v-836h-352v1434h307l559 -836v836zM879 1829l188 -33q-12 -114 -59.5 -169.5t-133.5 -55.5q-55 0 -131.5 29.5t-103.5 29.5q-46 0 -55 -59l-189 33q32 225 211 225q47 0 114 -30t101 -30q53 0 58 60z" />
    <glyph glyph-name="Ograve" unicode="&#xd2;" horiz-adv-x="1601" 
d="M801 1458q209 0 376 -96.5t260 -265.5t93 -379q0 -158 -54.5 -296t-150.5 -236.5t-232 -155t-292 -56.5t-292 56.5t-232 155t-150.5 236.5t-54.5 296q0 210 93 379t260 265.5t376 96.5zM801 311q90 0 163.5 34.5t119 92.5t70 129.5t24.5 149.5t-24.5 149t-70 128.5
t-119 91.5t-163.5 34t-163.5 -34t-119 -91.5t-70 -128.5t-24.5 -149t24.5 -149.5t70 -129.5t119 -92.5t163.5 -34.5zM817 1878l133 -287h-264l-199 287h330z" />
    <glyph glyph-name="Oacute" unicode="&#xd3;" horiz-adv-x="1601" 
d="M801 1458q209 0 376 -96.5t260 -265.5t93 -379q0 -158 -54.5 -296t-150.5 -236.5t-232 -155t-292 -56.5t-292 56.5t-232 155t-150.5 236.5t-54.5 296q0 210 93 379t260 265.5t376 96.5zM801 311q90 0 163.5 34.5t119 92.5t70 129.5t24.5 149.5t-24.5 149t-70 128.5
t-119 91.5t-163.5 34t-163.5 -34t-119 -91.5t-70 -128.5t-24.5 -149t24.5 -149.5t70 -129.5t119 -92.5t163.5 -34.5zM784 1878h330l-199 -287h-264z" />
    <glyph glyph-name="Ocircumflex" unicode="&#xd4;" horiz-adv-x="1601" 
d="M801 1458q209 0 376 -96.5t260 -265.5t93 -379q0 -158 -54.5 -296t-150.5 -236.5t-232 -155t-292 -56.5t-292 56.5t-232 155t-150.5 236.5t-54.5 296q0 210 93 379t260 265.5t376 96.5zM801 311q90 0 163.5 34.5t119 92.5t70 129.5t24.5 149.5t-24.5 149t-70 128.5
t-119 91.5t-163.5 34t-163.5 -34t-119 -91.5t-70 -128.5t-24.5 -149t24.5 -149.5t70 -129.5t119 -92.5t163.5 -34.5zM1169 1591h-268l-100 140l-103 -140h-268l225 287h289z" />
    <glyph glyph-name="Otilde" unicode="&#xd5;" horiz-adv-x="1601" 
d="M801 1458q209 0 376 -96.5t260 -265.5t93 -379q0 -158 -54.5 -296t-150.5 -236.5t-232 -155t-292 -56.5t-292 56.5t-232 155t-150.5 236.5t-54.5 296q0 210 93 379t260 265.5t376 96.5zM801 311q90 0 163.5 34.5t119 92.5t70 129.5t24.5 149.5t-24.5 149t-70 128.5
t-119 91.5t-163.5 34t-163.5 -34t-119 -91.5t-70 -128.5t-24.5 -149t24.5 -149.5t70 -129.5t119 -92.5t163.5 -34.5zM948 1829l189 -33q-12 -114 -59.5 -169.5t-133.5 -55.5q-55 0 -131.5 29.5t-103.5 29.5q-47 0 -56 -59l-188 33q32 225 211 225q47 0 114 -30t101 -30
q52 0 57 60z" />
    <glyph glyph-name="Odieresis" unicode="&#xd6;" horiz-adv-x="1601" 
d="M801 1458q209 0 376 -96.5t260 -265.5t93 -379q0 -158 -54.5 -296t-150.5 -236.5t-232 -155t-292 -56.5t-292 56.5t-232 155t-150.5 236.5t-54.5 296q0 210 93 379t260 265.5t376 96.5zM801 311q90 0 163.5 34.5t119 92.5t70 129.5t24.5 149.5t-24.5 149t-70 128.5
t-119 91.5t-163.5 34t-163.5 -34t-119 -91.5t-70 -128.5t-24.5 -149t24.5 -149.5t70 -129.5t119 -92.5t163.5 -34.5zM567 1896q66 0 113 -46.5t47 -112.5t-47 -113t-113 -47t-112.5 47t-46.5 113t46.5 112.5t112.5 46.5zM1034 1896q67 0 114.5 -46.5t47.5 -112.5t-47.5 -113
t-114.5 -47q-66 0 -113 47t-47 113t47 112.5t113 46.5z" />
    <glyph glyph-name="multiply" unicode="&#xd7;" horiz-adv-x="978" 
d="M877 791l-183 -181l183 -182l-207 -205l-181 180l-182 -180l-205 205l181 182l-181 181l205 206l182 -182l181 182z" />
    <glyph glyph-name="Oslash" unicode="&#xd8;" horiz-adv-x="1601" 
d="M1389 1169q141 -193 141 -452q0 -158 -54.5 -296t-150.5 -236.5t-232 -155t-292 -56.5q-151 0 -281 51.5t-227 145.5l-123 -111l-82 88l125 115q-141 196 -141 455q0 210 93 379t260 265.5t376 96.5q302 0 508 -196l123 112l81 -90zM424 717q0 -119 51 -215l578 526
q-98 92 -252 92q-90 0 -163.5 -34t-119 -91.5t-70 -128.5t-24.5 -149zM801 311q90 0 163.5 34.5t119 92.5t70 129.5t24.5 149.5q0 119 -52 213l-577 -524q102 -95 252 -95z" />
    <glyph glyph-name="Ugrave" unicode="&#xd9;" horiz-adv-x="1443" 
d="M971 1434h350v-877q0 -290 -156 -437t-442 -147q-287 0 -443.5 147t-156.5 437v877h352v-842q0 -140 64 -210.5t184 -70.5q119 0 183.5 70.5t64.5 210.5v842zM758 1878l133 -287h-264l-199 287h330z" />
    <glyph glyph-name="Uacute" unicode="&#xda;" horiz-adv-x="1443" 
d="M971 1434h350v-877q0 -290 -156 -437t-442 -147q-287 0 -443.5 147t-156.5 437v877h352v-842q0 -140 64 -210.5t184 -70.5q119 0 183.5 70.5t64.5 210.5v842zM725 1878h330l-199 -287h-264z" />
    <glyph glyph-name="Ucircumflex" unicode="&#xdb;" horiz-adv-x="1443" 
d="M971 1434h350v-877q0 -290 -156 -437t-442 -147q-287 0 -443.5 147t-156.5 437v877h352v-842q0 -140 64 -210.5t184 -70.5q119 0 183.5 70.5t64.5 210.5v842zM1092 1591h-269l-100 140l-102 -140h-269l226 287h288z" />
    <glyph glyph-name="Udieresis" unicode="&#xdc;" horiz-adv-x="1443" 
d="M971 1434h350v-877q0 -290 -156 -437t-442 -147q-287 0 -443.5 147t-156.5 437v877h352v-842q0 -140 64 -210.5t184 -70.5q119 0 183.5 70.5t64.5 210.5v842zM487 1896q66 0 113 -46.5t47 -112.5t-47 -113t-113 -47t-112.5 47t-46.5 113t46.5 112.5t112.5 46.5zM954 1896
q67 0 114.5 -46.5t47.5 -112.5t-47.5 -113t-114.5 -47q-66 0 -112.5 47t-46.5 113t46.5 112.5t112.5 46.5z" />
    <glyph glyph-name="Yacute" unicode="&#xdd;" horiz-adv-x="1425" 
d="M1405 1434l-516 -895v-539h-352v539l-517 895h377l316 -611l315 611h377zM696 1878h330l-199 -287h-264z" />
    <glyph glyph-name="Thorn" unicode="&#xde;" horiz-adv-x="1286" 
d="M655 1229q266 0 418 -139.5t152 -372.5q0 -234 -152 -374t-418 -140h-182v-203h-350v1434h350v-205h182zM655 535q100 0 156.5 49t56.5 133q0 83 -56.5 132.5t-156.5 49.5h-182v-364h182z" />
    <glyph glyph-name="germandbls" unicode="&#xdf;" horiz-adv-x="1232" 
d="M909 733q128 -42 200.5 -128t72.5 -218q0 -97 -35.5 -174.5t-96 -126.5t-138.5 -74.5t-167 -25.5q-58 0 -137 14v264q22 0 51.5 -3t63.5 6t62.5 24t47.5 50.5t19 86.5q0 87 -58 122.5t-173 35.5h-13v254h13q70 0 107.5 35t37.5 102q0 77 -45 118.5t-115 41.5
q-77 0 -119.5 -51.5t-42.5 -145.5v-940h-331v989q0 221 138 345t357 124q113 0 206 -35t152.5 -95t91.5 -137t32 -163q0 -204 -181 -295z" />
    <glyph glyph-name="agrave" unicode="&#xe0;" horiz-adv-x="1134" 
d="M573 1063q449 0 449 -418v-645h-332v96q-40 -58 -120 -90.5t-164 -32.5q-46 0 -90.5 7.5t-94 28t-86 53.5t-60.5 89t-24 128q0 70 26 127t63 92t93 60.5t101 37.5t101.5 18.5t80 7.5t51.5 1h123v4q0 78 -41.5 123t-128.5 45q-114 0 -196 -66l-218 148q177 186 467 186z
M690 291v166h-26q-134 0 -205.5 -30.5t-71.5 -104.5q0 -54 37 -79.5t96 -25.5q52 0 99.5 21.5t70.5 52.5zM594 1468l133 -286h-264l-199 286h330z" />
    <glyph glyph-name="aacute" unicode="&#xe1;" horiz-adv-x="1134" 
d="M573 1063q449 0 449 -418v-645h-332v96q-40 -58 -120 -90.5t-164 -32.5q-46 0 -90.5 7.5t-94 28t-86 53.5t-60.5 89t-24 128q0 70 26 127t63 92t93 60.5t101 37.5t101.5 18.5t80 7.5t51.5 1h123v4q0 78 -41.5 123t-128.5 45q-114 0 -196 -66l-218 148q177 186 467 186z
M690 291v166h-26q-134 0 -205.5 -30.5t-71.5 -104.5q0 -54 37 -79.5t96 -25.5q52 0 99.5 21.5t70.5 52.5zM541 1468h329l-198 -286h-264z" />
    <glyph glyph-name="acircumflex" unicode="&#xe2;" horiz-adv-x="1134" 
d="M573 1063q449 0 449 -418v-645h-332v96q-40 -58 -120 -90.5t-164 -32.5q-46 0 -90.5 7.5t-94 28t-86 53.5t-60.5 89t-24 128q0 70 26 127t63 92t93 60.5t101 37.5t101.5 18.5t80 7.5t51.5 1h123v4q0 78 -41.5 123t-128.5 45q-114 0 -196 -66l-218 148q177 186 467 186z
M690 291v166h-26q-134 0 -205.5 -30.5t-71.5 -104.5q0 -54 37 -79.5t96 -25.5q52 0 99.5 21.5t70.5 52.5zM946 1182h-268l-100 139l-103 -139h-268l225 286h289z" />
    <glyph glyph-name="atilde" unicode="&#xe3;" horiz-adv-x="1134" 
d="M573 1063q449 0 449 -418v-645h-332v96q-40 -58 -120 -90.5t-164 -32.5q-46 0 -90.5 7.5t-94 28t-86 53.5t-60.5 89t-24 128q0 70 26 127t63 92t93 60.5t101 37.5t101.5 18.5t80 7.5t51.5 1h123v4q0 78 -41.5 123t-128.5 45q-114 0 -196 -66l-218 148q177 186 467 186z
M690 291v166h-26q-134 0 -205.5 -30.5t-71.5 -104.5q0 -54 37 -79.5t96 -25.5q52 0 99.5 21.5t70.5 52.5zM725 1419l188 -33q-12 -114 -59 -169.5t-133 -55.5q-55 0 -132 30t-104 30q-46 0 -55 -60l-188 33q32 225 211 225q47 0 114 -29.5t101 -29.5q52 0 57 59z" />
    <glyph glyph-name="adieresis" unicode="&#xe4;" horiz-adv-x="1134" 
d="M573 1063q449 0 449 -418v-645h-332v96q-40 -58 -120 -90.5t-164 -32.5q-46 0 -90.5 7.5t-94 28t-86 53.5t-60.5 89t-24 128q0 70 26 127t63 92t93 60.5t101 37.5t101.5 18.5t80 7.5t51.5 1h123v4q0 78 -41.5 123t-128.5 45q-114 0 -196 -66l-218 148q177 186 467 186z
M690 291v166h-26q-134 0 -205.5 -30.5t-71.5 -104.5q0 -54 37 -79.5t96 -25.5q52 0 99.5 21.5t70.5 52.5zM342 1487q66 0 113 -47t47 -113t-47 -113t-113 -47t-113 47t-47 113t47 113t113 47zM809 1487q67 0 114.5 -47t47.5 -113t-47.5 -113t-114.5 -47q-66 0 -113 47
t-47 113t47 113t113 47z" />
    <glyph glyph-name="aring" unicode="&#xe5;" horiz-adv-x="1134" 
d="M573 1063q449 0 449 -418v-645h-332v96q-40 -58 -120 -90.5t-164 -32.5q-46 0 -90.5 7.5t-94 28t-86 53.5t-60.5 89t-24 128q0 70 26 127t63 92t93 60.5t101 37.5t101.5 18.5t80 7.5t51.5 1h123v4q0 78 -41.5 123t-128.5 45q-114 0 -196 -66l-218 148q177 186 467 186z
M690 291v166h-26q-134 0 -205.5 -30.5t-71.5 -104.5q0 -54 37 -79.5t96 -25.5q52 0 99.5 21.5t70.5 52.5zM575 1604q100 0 170 -70t70 -168q0 -100 -70 -170t-170 -70q-98 0 -167.5 70t-69.5 170q0 98 69.5 168t167.5 70zM575 1272q38 0 66.5 28t28.5 66t-28 65t-67 27
q-37 0 -64.5 -27t-27.5 -65t27.5 -66t64.5 -28z" />
    <glyph glyph-name="ae" unicode="&#xe6;" horiz-adv-x="1841" 
d="M1247 1063q93 0 177.5 -25t156 -77t121 -127t72 -182t10.5 -234h-750q26 -88 94 -132t166 -44q72 0 128.5 27.5t84.5 62.5l234 -139q-63 -100 -181 -160t-266 -60q-139 0 -250 46t-186 131q-44 -78 -155.5 -127.5t-256.5 -49.5q-46 0 -94 7t-103.5 28.5t-98 54t-71 88.5
t-28.5 128q0 55 16 102t40.5 80t61.5 60t72.5 43.5t81 28.5t78 17.5t72 8.5t56 3.5t36.5 0.5h123v4q0 78 -41.5 123t-128.5 45q-112 0 -194 -66l-218 148q173 186 467 186q235 0 349 -117q139 117 325 117zM688 291v166h-26q-133 0 -205 -30.5t-72 -104.5q0 -54 37 -79.5
t96 -25.5q56 0 102 22t68 52zM1034 618h451q-20 89 -78.5 133t-146.5 44q-81 0 -141.5 -46t-84.5 -131z" />
    <glyph glyph-name="ccedilla" unicode="&#xe7;" horiz-adv-x="1101" 
d="M608 297q121 0 187 96l286 -172q-72 -113 -193 -179t-270 -69l-34 -69q105 2 170 -49t65 -156q0 -102 -77 -159.5t-191 -57.5q-145 0 -225 53l84 150q45 -31 106 -31q47 0 71.5 21.5t24.5 54.5q0 36 -23.5 52.5t-56.5 16.5q-32 0 -63 -14l-51 70l65 131
q-194 40 -313 186.5t-119 345.5q0 153 71 277.5t199 196t287 71.5q153 0 277.5 -66t195.5 -182l-286 -172q-65 98 -187 98q-98 0 -159.5 -65t-61.5 -158t61.5 -157t159.5 -64z" />
    <glyph glyph-name="egrave" unicode="&#xe8;" horiz-adv-x="1181" 
d="M588 1063q118 0 219.5 -40.5t178.5 -117.5t115 -203t23 -284h-749q26 -88 94 -132t166 -44q72 0 127.5 27t85.5 63l233 -139q-65 -100 -181.5 -160t-264.5 -60q-262 0 -423 151t-161 394q0 151 72 276.5t195 197t270 71.5zM375 618h448q-18 88 -77 132.5t-148 44.5
q-80 0 -140 -46.5t-83 -130.5zM627 1468l133 -286h-264l-199 286h330z" />
    <glyph glyph-name="eacute" unicode="&#xe9;" horiz-adv-x="1181" 
d="M588 1063q118 0 219.5 -40.5t178.5 -117.5t115 -203t23 -284h-749q26 -88 94 -132t166 -44q72 0 127.5 27t85.5 63l233 -139q-65 -100 -181.5 -160t-264.5 -60q-262 0 -423 151t-161 394q0 151 72 276.5t195 197t270 71.5zM375 618h448q-18 88 -77 132.5t-148 44.5
q-80 0 -140 -46.5t-83 -130.5zM553 1468h330l-199 -286h-264z" />
    <glyph glyph-name="ecircumflex" unicode="&#xea;" horiz-adv-x="1181" 
d="M588 1063q118 0 219.5 -40.5t178.5 -117.5t115 -203t23 -284h-749q26 -88 94 -132t166 -44q72 0 127.5 27t85.5 63l233 -139q-65 -100 -181.5 -160t-264.5 -60q-262 0 -423 151t-161 394q0 151 72 276.5t195 197t270 71.5zM375 618h448q-18 88 -77 132.5t-148 44.5
q-80 0 -140 -46.5t-83 -130.5zM961 1182h-269l-100 139l-103 -139h-268l225 286h289z" />
    <glyph glyph-name="edieresis" unicode="&#xeb;" horiz-adv-x="1181" 
d="M588 1063q118 0 219.5 -40.5t178.5 -117.5t115 -203t23 -284h-749q26 -88 94 -132t166 -44q72 0 127.5 27t85.5 63l233 -139q-65 -100 -181.5 -160t-264.5 -60q-262 0 -423 151t-161 394q0 151 72 276.5t195 197t270 71.5zM375 618h448q-18 88 -77 132.5t-148 44.5
q-80 0 -140 -46.5t-83 -130.5zM356 1487q66 0 113 -47t47 -113t-47 -113t-113 -47t-112.5 47t-46.5 113t46.5 113t112.5 47zM823 1487q67 0 114.5 -47t47.5 -113t-47.5 -113t-114.5 -47q-66 0 -112.5 47t-46.5 113t46.5 113t112.5 47z" />
    <glyph glyph-name="igrave" unicode="&#xec;" horiz-adv-x="557" 
d="M113 0v1038h331v-1038h-331zM274 1468l134 -286h-265l-198 286h329z" />
    <glyph glyph-name="iacute" unicode="&#xed;" horiz-adv-x="557" 
d="M113 0v1038h331v-1038h-331zM283 1468h329l-198 -286h-264z" />
    <glyph glyph-name="icircumflex" unicode="&#xee;" horiz-adv-x="557" 
d="M113 0v1038h331v-1038h-331zM649 1182h-268l-100 139l-103 -139h-268l225 286h289z" />
    <glyph glyph-name="idieresis" unicode="&#xef;" horiz-adv-x="557" 
d="M113 0v1038h331v-1038h-331zM45 1487q66 0 113 -47t47 -113t-47 -113t-113 -47t-113 47t-47 113t47 113t113 47zM512 1487q67 0 114.5 -47t47.5 -113t-47.5 -113t-114.5 -47q-66 0 -113 47t-47 113t47 113t113 47z" />
    <glyph glyph-name="eth" unicode="&#xf0;" horiz-adv-x="1208" 
d="M811 1270q346 -331 346 -756q0 -251 -154 -396t-403 -145q-168 0 -294.5 71t-190.5 188.5t-64 263.5q0 212 138.5 340.5t355.5 128.5q120 0 198 -47l5 2q-46 103 -191 227l-250 -123l-47 98l201 99q-119 84 -236 135l240 164q143 -76 258 -172l238 116l47 -98zM600 285
q93 0 152 60.5t59 150.5q0 88 -61 150.5t-150 62.5t-151 -60.5t-62 -152.5t61 -151.5t152 -59.5z" />
    <glyph glyph-name="ntilde" unicode="&#xf1;" 
d="M729 1063q93 0 167.5 -35t120 -94t69.5 -132t24 -153v-649h-334v559q0 86 -46.5 132t-119.5 46q-74 0 -120 -47t-46 -131v-559h-331v1038h331v-96q105 121 285 121zM758 1419l188 -33q-12 -114 -59 -169.5t-133 -55.5q-55 0 -132 30t-104 30q-46 0 -55 -60l-189 33
q32 225 211 225q47 0 114 -29.5t101 -29.5q53 0 58 59z" />
    <glyph glyph-name="ograve" unicode="&#xf2;" horiz-adv-x="1216" 
d="M608 1063q160 0 288 -71.5t198.5 -196t70.5 -277.5q0 -232 -157.5 -388.5t-399.5 -156.5q-241 0 -399 156.5t-158 388.5q0 153 71 277.5t199 196t287 71.5zM608 297q99 0 161 64t62 157t-62 158t-161 65q-98 0 -159.5 -65t-61.5 -158t61.5 -157t159.5 -64zM625 1468
l133 -286h-264l-199 286h330z" />
    <glyph glyph-name="oacute" unicode="&#xf3;" horiz-adv-x="1216" 
d="M608 1063q160 0 288 -71.5t198.5 -196t70.5 -277.5q0 -232 -157.5 -388.5t-399.5 -156.5q-241 0 -399 156.5t-158 388.5q0 153 71 277.5t199 196t287 71.5zM608 297q99 0 161 64t62 157t-62 158t-161 65q-98 0 -159.5 -65t-61.5 -158t61.5 -157t159.5 -64zM592 1468h330
l-199 -286h-264z" />
    <glyph glyph-name="ocircumflex" unicode="&#xf4;" horiz-adv-x="1216" 
d="M608 1063q160 0 288 -71.5t198.5 -196t70.5 -277.5q0 -232 -157.5 -388.5t-399.5 -156.5q-241 0 -399 156.5t-158 388.5q0 153 71 277.5t199 196t287 71.5zM608 297q99 0 161 64t62 157t-62 158t-161 65q-98 0 -159.5 -65t-61.5 -158t61.5 -157t159.5 -64zM979 1182h-268
l-101 139l-102 -139h-268l225 286h289z" />
    <glyph glyph-name="otilde" unicode="&#xf5;" horiz-adv-x="1216" 
d="M608 1063q160 0 288 -71.5t198.5 -196t70.5 -277.5q0 -232 -157.5 -388.5t-399.5 -156.5q-241 0 -399 156.5t-158 388.5q0 153 71 277.5t199 196t287 71.5zM608 297q99 0 161 64t62 157t-62 158t-161 65q-98 0 -159.5 -65t-61.5 -158t61.5 -157t159.5 -64zM756 1419
l188 -33q-12 -114 -59 -169.5t-133 -55.5q-55 0 -132 30t-104 30q-46 0 -55 -60l-189 33q32 225 211 225q47 0 114 -29.5t101 -29.5q53 0 58 59z" />
    <glyph glyph-name="odieresis" unicode="&#xf6;" horiz-adv-x="1216" 
d="M608 1063q160 0 288 -71.5t198.5 -196t70.5 -277.5q0 -232 -157.5 -388.5t-399.5 -156.5q-241 0 -399 156.5t-158 388.5q0 153 71 277.5t199 196t287 71.5zM608 297q99 0 161 64t62 157t-62 158t-161 65q-98 0 -159.5 -65t-61.5 -158t61.5 -157t159.5 -64zM375 1487
q66 0 113 -47t47 -113t-47 -113t-113 -47t-113 47t-47 113t47 113t113 47zM842 1487q67 0 114.5 -47t47.5 -113t-47.5 -113t-114.5 -47q-66 0 -113 47t-47 113t47 113t113 47z" />
    <glyph glyph-name="divide" unicode="&#xf7;" horiz-adv-x="1048" 
d="M123 745h803v-272h-803v272zM524 344q64 0 110 -46.5t46 -111.5q0 -64 -45.5 -109.5t-110.5 -45.5q-64 0 -109.5 45.5t-45.5 109.5q0 65 45.5 111.5t109.5 46.5zM524 877q-64 0 -109.5 45.5t-45.5 109.5q0 65 45.5 110.5t109.5 45.5t110 -46t46 -110t-45.5 -109.5
t-110.5 -45.5z" />
    <glyph glyph-name="oslash" unicode="&#xf8;" horiz-adv-x="1216" 
d="M1055 852q110 -138 110 -334q0 -232 -158 -388.5t-399 -156.5q-219 0 -372 131l-99 -90l-74 82l97 88q-109 143 -109 334q0 153 71 277.5t199 196t287 71.5q220 0 373 -131l98 90l74 -80zM387 518q0 -54 25 -106l319 293q-52 36 -123 36q-98 0 -159.5 -65t-61.5 -158z
M608 297q98 0 159.5 64t61.5 157q0 58 -24 107l-322 -293q53 -35 125 -35z" />
    <glyph glyph-name="ugrave" unicode="&#xf9;" 
d="M776 1038h334v-1038h-334v94q-101 -121 -282 -121q-94 0 -168.5 35t-120 94t-69 132t-23.5 153v651h331v-561q0 -85 47.5 -131.5t118.5 -46.5q75 0 120.5 47t45.5 131v561zM647 1468l133 -286h-264l-199 286h330z" />
    <glyph glyph-name="uacute" unicode="&#xfa;" 
d="M776 1038h334v-1038h-334v94q-101 -121 -282 -121q-94 0 -168.5 35t-120 94t-69 132t-23.5 153v651h331v-561q0 -85 47.5 -131.5t118.5 -46.5q75 0 120.5 47t45.5 131v561zM594 1468h330l-199 -286h-264z" />
    <glyph glyph-name="ucircumflex" unicode="&#xfb;" 
d="M776 1038h334v-1038h-334v94q-101 -121 -282 -121q-94 0 -168.5 35t-120 94t-69 132t-23.5 153v651h331v-561q0 -85 47.5 -131.5t118.5 -46.5q75 0 120.5 47t45.5 131v561zM981 1182h-268l-101 139l-102 -139h-268l225 286h289z" />
    <glyph glyph-name="udieresis" unicode="&#xfc;" 
d="M776 1038h334v-1038h-334v94q-101 -121 -282 -121q-94 0 -168.5 35t-120 94t-69 132t-23.5 153v651h331v-561q0 -85 47.5 -131.5t118.5 -46.5q75 0 120.5 47t45.5 131v561zM377 1487q66 0 113 -47t47 -113t-47 -113t-113 -47t-113 47t-47 113t47 113t113 47zM844 1487
q67 0 114.5 -47t47.5 -113t-47.5 -113t-114.5 -47q-66 0 -113 47t-47 113t47 113t113 47z" />
    <glyph glyph-name="yacute" unicode="&#xfd;" horiz-adv-x="1169" 
d="M795 1038h354l-569 -1433h-338l190 456l-412 977h353l209 -592zM567 1468h330l-199 -286h-264z" />
    <glyph glyph-name="thorn" unicode="&#xfe;" horiz-adv-x="1286" 
d="M737 1063q117 0 213.5 -46.5t157.5 -124t94 -174t33 -200.5t-33 -200.5t-94 -174t-157.5 -124t-213.5 -46.5q-188 0 -293 127v-495h-331v1829h331v-498q105 127 293 127zM678 297q101 0 161 62t60 159q0 98 -60 160.5t-161 62.5q-96 0 -159.5 -60.5t-63.5 -162.5
q0 -100 63.5 -160.5t159.5 -60.5z" />
    <glyph glyph-name="ydieresis" unicode="&#xff;" horiz-adv-x="1169" 
d="M795 1038h354l-569 -1433h-338l190 456l-412 977h353l209 -592zM350 1487q66 0 113 -47t47 -113t-47 -113t-113 -47t-113 47t-47 113t47 113t113 47zM817 1487q67 0 114.5 -47t47.5 -113t-47.5 -113t-114.5 -47q-66 0 -113 47t-47 113t47 113t113 47z" />
    <glyph glyph-name="Amacron" unicode="&#x100;" horiz-adv-x="1486" 
d="M1100 0l-84 266h-543l-84 -266h-369l517 1434h413l516 -1434h-366zM555 532h377l-189 596zM436 1835h615v-238h-615v238z" />
    <glyph glyph-name="amacron" unicode="&#x101;" horiz-adv-x="1134" 
d="M573 1063q449 0 449 -418v-645h-332v96q-40 -58 -120 -90.5t-164 -32.5q-46 0 -90.5 7.5t-94 28t-86 53.5t-60.5 89t-24 128q0 70 26 127t63 92t93 60.5t101 37.5t101.5 18.5t80 7.5t51.5 1h123v4q0 78 -41.5 123t-128.5 45q-114 0 -196 -66l-218 148q177 186 467 186z
M690 291v166h-26q-134 0 -205.5 -30.5t-71.5 -104.5q0 -54 37 -79.5t96 -25.5q52 0 99.5 21.5t70.5 52.5zM270 1425h615v-237h-615v237z" />
    <glyph glyph-name="Abreve" unicode="&#x102;" horiz-adv-x="1486" 
d="M1100 0l-84 266h-543l-84 -266h-369l517 1434h413l516 -1434h-366zM555 532h377l-189 596zM868 1870h201q0 -141 -87 -224t-239 -83q-153 0 -239 83t-86 224h200q0 -54 31.5 -89.5t93.5 -35.5t93.5 35.5t31.5 89.5z" />
    <glyph glyph-name="abreve" unicode="&#x103;" horiz-adv-x="1134" 
d="M573 1063q449 0 449 -418v-645h-332v96q-40 -58 -120 -90.5t-164 -32.5q-46 0 -90.5 7.5t-94 28t-86 53.5t-60.5 89t-24 128q0 70 26 127t63 92t93 60.5t101 37.5t101.5 18.5t80 7.5t51.5 1h123v4q0 78 -41.5 123t-128.5 45q-114 0 -196 -66l-218 148q177 186 467 186z
M690 291v166h-26q-134 0 -205.5 -30.5t-71.5 -104.5q0 -54 37 -79.5t96 -25.5q52 0 99.5 21.5t70.5 52.5zM702 1460h201q0 -141 -86.5 -224t-238.5 -83q-154 0 -240 83t-86 224h201q0 -54 31.5 -89.5t93.5 -35.5t93 35.5t31 89.5z" />
    <glyph glyph-name="Aogonek" unicode="&#x104;" horiz-adv-x="1486" 
d="M1430 0q-65 -32 -116.5 -84.5t-51.5 -112.5q0 -94 108 -94q33 0 60 10v-182q-70 -29 -152 -29q-114 0 -179 52.5t-65 152.5q0 51 18.5 98t48.5 83t60.5 61.5t63.5 44.5h-127l-84 266h-543l-84 -266h-367l517 1434h413l516 -1434h-36zM555 532h377l-189 596z" />
    <glyph glyph-name="aogonek" unicode="&#x105;" horiz-adv-x="1134" 
d="M1022 0q-65 -31 -115.5 -84t-50.5 -113q0 -94 107 -94q32 0 59 10v-182q-70 -29 -152 -29q-112 0 -176.5 53t-64.5 152q0 96 57.5 170t130.5 117h-127v96q-40 -58 -120 -90.5t-164 -32.5q-46 0 -90.5 7.5t-94 28t-86 53.5t-60.5 89t-24 128q0 70 26 127t63 92t93 60.5
t101 37.5t101.5 18.5t80 7.5t51.5 1h123v4q0 78 -41.5 123t-128.5 45q-110 0 -196 -66l-218 148q177 186 469 186q447 0 447 -418v-645zM690 291v166h-26q-134 0 -205.5 -30.5t-71.5 -104.5q0 -54 37 -79.5t96 -25.5q52 0 99.5 21.5t70.5 52.5z" />
    <glyph glyph-name="Cacute" unicode="&#x106;" horiz-adv-x="1411" 
d="M801 311q185 0 286 133l293 -192q-99 -132 -248.5 -205.5t-330.5 -73.5q-156 0 -292 56.5t-232 155t-150.5 236.5t-54.5 296q0 210 93 379t260 265.5t376 96.5q181 0 330.5 -73t248.5 -203l-293 -193q-102 131 -286 131q-90 0 -163.5 -34t-119 -91.5t-70 -128.5
t-24.5 -149t24.5 -149.5t70 -129.5t119 -92.5t163.5 -34.5zM750 1878h329l-198 -287h-265z" />
    <glyph glyph-name="cacute" unicode="&#x107;" horiz-adv-x="1101" 
d="M608 297q121 0 187 96l286 -172q-72 -115 -196 -181.5t-277 -66.5q-241 0 -399 156.5t-158 388.5q0 153 71 277.5t199 196t287 71.5q153 0 277.5 -66t195.5 -182l-286 -172q-65 98 -187 98q-98 0 -159.5 -65t-61.5 -158t61.5 -157t159.5 -64zM549 1468h330l-199 -286
h-264z" />
    <glyph glyph-name="Ccircumflex" unicode="&#x108;" horiz-adv-x="1411" 
d="M801 311q185 0 286 133l293 -192q-99 -132 -248.5 -205.5t-330.5 -73.5q-156 0 -292 56.5t-232 155t-150.5 236.5t-54.5 296q0 210 93 379t260 265.5t376 96.5q181 0 330.5 -73t248.5 -203l-293 -193q-102 131 -286 131q-90 0 -163.5 -34t-119 -91.5t-70 -128.5
t-24.5 -149t24.5 -149.5t70 -129.5t119 -92.5t163.5 -34.5zM1116 1591h-268l-100 140l-103 -140h-268l225 287h289z" />
    <glyph glyph-name="ccircumflex" unicode="&#x109;" horiz-adv-x="1101" 
d="M608 297q121 0 187 96l286 -172q-72 -115 -196 -181.5t-277 -66.5q-241 0 -399 156.5t-158 388.5q0 153 71 277.5t199 196t287 71.5q153 0 277.5 -66t195.5 -182l-286 -172q-65 98 -187 98q-98 0 -159.5 -65t-61.5 -158t61.5 -157t159.5 -64zM936 1182h-268l-101 139
l-102 -139h-268l225 286h289z" />
    <glyph glyph-name="Cdotaccent" unicode="&#x10a;" horiz-adv-x="1411" 
d="M801 311q185 0 286 133l293 -192q-99 -132 -248.5 -205.5t-330.5 -73.5q-156 0 -292 56.5t-232 155t-150.5 236.5t-54.5 296q0 210 93 379t260 265.5t376 96.5q181 0 330.5 -73t248.5 -203l-293 -193q-102 131 -286 131q-90 0 -163.5 -34t-119 -91.5t-70 -128.5
t-24.5 -149t24.5 -149.5t70 -129.5t119 -92.5t163.5 -34.5zM745 1896q66 0 113 -46.5t47 -112.5t-47 -113t-113 -47t-112.5 47t-46.5 113t46.5 112.5t112.5 46.5z" />
    <glyph glyph-name="cdotaccent" unicode="&#x10b;" horiz-adv-x="1101" 
d="M608 297q121 0 187 96l286 -172q-72 -115 -196 -181.5t-277 -66.5q-241 0 -399 156.5t-158 388.5q0 153 71 277.5t199 196t287 71.5q153 0 277.5 -66t195.5 -182l-286 -172q-65 98 -187 98q-98 0 -159.5 -65t-61.5 -158t61.5 -157t159.5 -64zM565 1487q66 0 113 -47
t47 -113t-47 -113t-113 -47t-112.5 47t-46.5 113t46.5 113t112.5 47z" />
    <glyph glyph-name="Ccaron" unicode="&#x10c;" horiz-adv-x="1411" 
d="M801 311q185 0 286 133l293 -192q-99 -132 -248.5 -205.5t-330.5 -73.5q-156 0 -292 56.5t-232 155t-150.5 236.5t-54.5 296q0 210 93 379t260 265.5t376 96.5q181 0 330.5 -73t248.5 -203l-293 -193q-102 131 -286 131q-90 0 -163.5 -34t-119 -91.5t-70 -128.5
t-24.5 -149t24.5 -149.5t70 -129.5t119 -92.5t163.5 -34.5zM850 1878h266l-225 -287h-287l-227 287h268l103 -141z" />
    <glyph glyph-name="ccaron" unicode="&#x10d;" horiz-adv-x="1101" 
d="M608 297q121 0 187 96l286 -172q-72 -115 -196 -181.5t-277 -66.5q-241 0 -399 156.5t-158 388.5q0 153 71 277.5t199 196t287 71.5q153 0 277.5 -66t195.5 -182l-286 -172q-65 98 -187 98q-98 0 -159.5 -65t-61.5 -158t61.5 -157t159.5 -64zM670 1468h266l-225 -286
h-287l-227 286h268l102 -141z" />
    <glyph glyph-name="Dcaron" unicode="&#x10e;" horiz-adv-x="1458" 
d="M625 1434q356 0 558.5 -193.5t202.5 -523.5q0 -331 -202 -524t-559 -193h-502v1434h502zM625 330q183 0 297 101t114 286t-113.5 285t-297.5 100h-150v-772h150zM776 1878h266l-225 -287h-287l-227 287h268l103 -141z" />
    <glyph glyph-name="dcaron" unicode="&#x10f;" horiz-adv-x="1449" 
d="M842 1434h332v-1434h-332v100q-105 -127 -293 -127q-117 0 -213.5 46.5t-157.5 124t-94 174t-33 200.5t33 200.5t94 174t157.5 124t213.5 46.5q188 0 293 -127v498zM608 297q96 0 159.5 60.5t63.5 160.5q0 102 -63.5 162.5t-159.5 60.5q-101 0 -161 -62.5t-60 -160.5
q0 -97 60 -159t161 -62zM1372 1434h293l-166 -306h-239z" />
    <glyph glyph-name="Dcroat" unicode="&#x110;" horiz-adv-x="1517" 
d="M684 1434q356 0 559 -193.5t203 -523.5q0 -331 -202.5 -524t-559.5 -193h-502v653h-162v127h162v654h502zM684 330q183 0 297.5 101t114.5 286t-114 285t-298 100h-149v-322h270v-127h-270v-323h149z" />
    <glyph glyph-name="dcroat" unicode="&#x111;" horiz-adv-x="1286" 
d="M1300 1239v-111h-126v-1128h-332v88q-103 -115 -291 -115q-118 0 -214 41t-158 111t-95 161.5t-33 194.5t33.5 200t94.5 174.5t158 124t214 46.5q188 0 291 -125v227h-250v111h250v195h332v-195h126zM608 260q96 0 159.5 60.5t63.5 160.5q0 102 -63.5 163t-159.5 61
q-101 0 -161 -62.5t-60 -161.5q0 -97 60 -159t161 -62z" />
    <glyph glyph-name="Emacron" unicode="&#x112;" horiz-adv-x="1105" 
d="M473 330h551v-330h-901v1434h883v-332h-533v-221h467v-314h-467v-237zM266 1835h615v-238h-615v238z" />
    <glyph glyph-name="emacron" unicode="&#x113;" horiz-adv-x="1181" 
d="M588 1063q118 0 219.5 -40.5t178.5 -117.5t115 -203t23 -284h-749q26 -88 94 -132t166 -44q72 0 127.5 27t85.5 63l233 -139q-65 -100 -181.5 -160t-264.5 -60q-262 0 -423 151t-161 394q0 151 72 276.5t195 197t270 71.5zM375 618h448q-18 88 -77 132.5t-148 44.5
q-80 0 -140 -46.5t-83 -130.5zM283 1425h614v-237h-614v237z" />
    <glyph glyph-name="Ebreve" unicode="&#x114;" horiz-adv-x="1105" 
d="M473 330h551v-330h-901v1434h883v-332h-533v-221h467v-314h-467v-237zM698 1870h201q0 -141 -87 -224t-239 -83q-153 0 -239 83t-86 224h201q0 -54 31 -89.5t93 -35.5t93.5 35.5t31.5 89.5z" />
    <glyph glyph-name="ebreve" unicode="&#x115;" horiz-adv-x="1181" 
d="M588 1063q118 0 219.5 -40.5t178.5 -117.5t115 -203t23 -284h-749q26 -88 94 -132t166 -44q72 0 127.5 27t85.5 63l233 -139q-65 -100 -181.5 -160t-264.5 -60q-262 0 -423 151t-161 394q0 151 72 276.5t195 197t270 71.5zM375 618h448q-18 88 -77 132.5t-148 44.5
q-80 0 -140 -46.5t-83 -130.5zM715 1460h200q0 -141 -86.5 -224t-238.5 -83q-154 0 -240 83t-86 224h201q0 -54 31.5 -89.5t93.5 -35.5t93.5 35.5t31.5 89.5z" />
    <glyph glyph-name="Edotaccent" unicode="&#x116;" horiz-adv-x="1105" 
d="M473 330h551v-330h-901v1434h883v-332h-533v-221h467v-314h-467v-237zM573 1896q66 0 113 -46.5t47 -112.5t-47 -113t-113 -47t-112.5 47t-46.5 113t46.5 112.5t112.5 46.5z" />
    <glyph glyph-name="edotaccent" unicode="&#x117;" horiz-adv-x="1181" 
d="M588 1063q118 0 219.5 -40.5t178.5 -117.5t115 -203t23 -284h-749q26 -88 94 -132t166 -44q72 0 127.5 27t85.5 63l233 -139q-65 -100 -181.5 -160t-264.5 -60q-262 0 -423 151t-161 394q0 151 72 276.5t195 197t270 71.5zM375 618h448q-18 88 -77 132.5t-148 44.5
q-80 0 -140 -46.5t-83 -130.5zM590 1487q66 0 113 -47t47 -113t-47 -113t-113 -47t-113 47t-47 113t47 113t113 47z" />
    <glyph glyph-name="Eogonek" unicode="&#x118;" horiz-adv-x="1105" 
d="M1024 0q-65 -32 -116.5 -84.5t-51.5 -112.5q0 -94 109 -94q32 0 59 10v-182q-70 -29 -154 -29q-112 0 -176.5 53t-64.5 152q0 96 57.5 170t130.5 117h-694v1434h881v-332h-531v-221h467v-314h-467v-237h551v-330z" />
    <glyph glyph-name="eogonek" unicode="&#x119;" horiz-adv-x="1181" 
d="M588 1063q117 0 218.5 -40.5t178.5 -117.5t115 -203t22 -284h-747q24 -88 92.5 -132t167.5 -44q72 0 127.5 27.5t83.5 62.5l235 -139q-45 -70 -118 -121.5t-166 -77.5q-65 -32 -114.5 -82t-49.5 -109q0 -94 106 -94q32 0 62 10v-182q-70 -29 -154 -29q-112 0 -176.5 53
t-64.5 152q0 84 45 151t110 113q-232 22 -371 169.5t-139 371.5q0 151 72 276.5t195 197t270 71.5zM375 618h448q-18 88 -77 132.5t-148 44.5q-81 0 -140.5 -46t-82.5 -131z" />
    <glyph glyph-name="Ecaron" unicode="&#x11a;" horiz-adv-x="1105" 
d="M473 330h551v-330h-901v1434h883v-332h-533v-221h467v-314h-467v-237zM678 1878h266l-225 -287h-287l-227 287h268l102 -141z" />
    <glyph glyph-name="ecaron" unicode="&#x11b;" horiz-adv-x="1181" 
d="M588 1063q118 0 219.5 -40.5t178.5 -117.5t115 -203t23 -284h-749q26 -88 94 -132t166 -44q72 0 127.5 27t85.5 63l233 -139q-65 -100 -181.5 -160t-264.5 -60q-262 0 -423 151t-161 394q0 151 72 276.5t195 197t270 71.5zM375 618h448q-18 88 -77 132.5t-148 44.5
q-80 0 -140 -46.5t-83 -130.5zM694 1468h267l-226 -286h-286l-228 286h268l103 -141z" />
    <glyph glyph-name="Gcircumflex" unicode="&#x11c;" horiz-adv-x="1579" 
d="M801 829h676v-829h-168l-47 178q-162 -205 -461 -205q-157 0 -293 56.5t-231.5 155.5t-150 236.5t-54.5 295.5q0 210 92.5 379t259.5 265.5t377 96.5q181 0 330 -72.5t247 -203.5l-291 -193q-105 133 -286 133q-90 0 -164 -34.5t-120 -92t-70.5 -129t-24.5 -149.5
q0 -105 41.5 -195.5t129.5 -150.5t208 -60q139 0 226.5 65.5t123.5 174.5h-350v278zM1151 1591h-268l-101 140l-102 -140h-268l225 287h289z" />
    <glyph glyph-name="gcircumflex" unicode="&#x11d;" horiz-adv-x="1286" 
d="M842 1038h332v-948q0 -226 -155 -365t-427 -139q-168 0 -306 60t-198 157l248 148q27 -40 92.5 -68t149.5 -28q144 0 204 70.5t60 201.5v47q-98 -127 -291 -127q-116 0 -211.5 41t-158 111t-96.5 161.5t-34 194.5t34 194.5t96 161.5t158 111t212 41q193 0 291 -137v112z
M608 334q96 0 158.5 60t62.5 161t-62.5 161t-158.5 60q-101 0 -161 -62t-60 -159t60 -159t161 -62zM1001 1182h-268l-100 139l-103 -139h-268l225 286h289z" />
    <glyph glyph-name="Gbreve" unicode="&#x11e;" horiz-adv-x="1579" 
d="M801 829h676v-829h-168l-47 178q-162 -205 -461 -205q-157 0 -293 56.5t-231.5 155.5t-150 236.5t-54.5 295.5q0 210 92.5 379t259.5 265.5t377 96.5q181 0 330 -72.5t247 -203.5l-291 -193q-105 133 -286 133q-90 0 -164 -34.5t-120 -92t-70.5 -129t-24.5 -149.5
q0 -105 41.5 -195.5t129.5 -150.5t208 -60q139 0 226.5 65.5t123.5 174.5h-350v278zM905 1870h201q0 -141 -87 -224t-239 -83q-153 0 -239 83t-86 224h200q0 -54 31.5 -89.5t93.5 -35.5t93.5 35.5t31.5 89.5z" />
    <glyph glyph-name="gbreve" unicode="&#x11f;" horiz-adv-x="1286" 
d="M842 1038h332v-948q0 -226 -155 -365t-427 -139q-168 0 -306 60t-198 157l248 148q27 -40 92.5 -68t149.5 -28q144 0 204 70.5t60 201.5v47q-98 -127 -291 -127q-116 0 -211.5 41t-158 111t-96.5 161.5t-34 194.5t34 194.5t96 161.5t158 111t212 41q193 0 291 -137v112z
M608 334q96 0 158.5 60t62.5 161t-62.5 161t-158.5 60q-101 0 -161 -62t-60 -159t60 -159t161 -62zM758 1460h200q0 -141 -86.5 -224t-238.5 -83q-154 0 -240 83t-86 224h201q0 -54 31.5 -89.5t93.5 -35.5t93.5 35.5t31.5 89.5z" />
    <glyph glyph-name="Gdotaccent" unicode="&#x120;" horiz-adv-x="1579" 
d="M801 829h676v-829h-168l-47 178q-162 -205 -461 -205q-157 0 -293 56.5t-231.5 155.5t-150 236.5t-54.5 295.5q0 210 92.5 379t259.5 265.5t377 96.5q181 0 330 -72.5t247 -203.5l-291 -193q-105 133 -286 133q-90 0 -164 -34.5t-120 -92t-70.5 -129t-24.5 -149.5
q0 -105 41.5 -195.5t129.5 -150.5t208 -60q139 0 226.5 65.5t123.5 174.5h-350v278zM780 1896q66 0 113 -46.5t47 -112.5t-47 -113t-113 -47t-112.5 47t-46.5 113t46.5 112.5t112.5 46.5z" />
    <glyph glyph-name="gdotaccent" unicode="&#x121;" horiz-adv-x="1286" 
d="M842 1038h332v-948q0 -226 -155 -365t-427 -139q-168 0 -306 60t-198 157l248 148q27 -40 92.5 -68t149.5 -28q144 0 204 70.5t60 201.5v47q-98 -127 -291 -127q-116 0 -211.5 41t-158 111t-96.5 161.5t-34 194.5t34 194.5t96 161.5t158 111t212 41q193 0 291 -137v112z
M608 334q96 0 158.5 60t62.5 161t-62.5 161t-158.5 60q-101 0 -161 -62t-60 -159t60 -159t161 -62zM633 1487q66 0 113 -47t47 -113t-47 -113t-113 -47t-113 47t-47 113t47 113t113 47z" />
    <glyph glyph-name="Gcommaaccent" unicode="&#x122;" horiz-adv-x="1579" 
d="M801 829h676v-829h-168l-47 178q-162 -205 -461 -205q-157 0 -293 56.5t-231.5 155.5t-150 236.5t-54.5 295.5q0 210 92.5 379t259.5 265.5t377 96.5q181 0 330 -72.5t247 -203.5l-291 -193q-105 133 -286 133q-90 0 -164 -34.5t-120 -92t-70.5 -129t-24.5 -149.5
q0 -105 41.5 -195.5t129.5 -150.5t208 -60q139 0 226.5 65.5t123.5 174.5h-350v278zM649 -147h293l-166 -306h-239z" />
    <glyph glyph-name="gcommaaccent" unicode="&#x123;" horiz-adv-x="1286" 
d="M842 1038h332v-948q0 -226 -155 -365t-427 -139q-168 0 -306 60t-198 157l248 148q27 -40 92.5 -68t149.5 -28q144 0 204 70.5t60 201.5v47q-98 -127 -291 -127q-116 0 -211.5 41t-158 111t-96.5 161.5t-34 194.5t34 194.5t96 161.5t158 111t212 41q193 0 291 -137v112z
M608 334q96 0 158.5 60t62.5 161t-62.5 161t-158.5 60q-101 0 -161 -62t-60 -159t60 -159t161 -62zM768 1182h-293l166 305h240z" />
    <glyph glyph-name="Hcircumflex" unicode="&#x124;" horiz-adv-x="1466" 
d="M993 1434h350v-1434h-350v557h-520v-557h-350v1434h350v-545h520v545zM1102 1591h-268l-101 140l-102 -140h-269l226 287h289z" />
    <glyph glyph-name="hcircumflex" unicode="&#x125;" 
d="M729 1063q94 0 168.5 -35t120 -94t69 -132t23.5 -153v-649h-334v559q0 86 -46.5 132t-119.5 46q-74 0 -120 -47t-46 -131v-559h-331v1434h331v-492q105 121 285 121zM924 1591h-269l-100 140l-102 -140h-269l226 287h288z" />
    <glyph glyph-name="Hbar" unicode="&#x126;" horiz-adv-x="1568" 
d="M1559 1221v-129h-164v-1092h-351v557h-520v-557h-352v1092h-162v129h162v213h352v-213h520v213h351v-213h164zM1044 889v203h-520v-203h520z" />
    <glyph glyph-name="hbar" unicode="&#x127;" 
d="M729 1026q93 0 167.5 -35t120 -94t69.5 -132t24 -153v-612h-334v522q0 87 -46.5 132.5t-119.5 45.5q-75 0 -120.5 -47t-45.5 -131v-522h-331v1128h-127v111h127v195h331v-195h250v-111h-250v-223q102 121 285 121z" />
    <glyph glyph-name="Itilde" unicode="&#x128;" horiz-adv-x="595" 
d="M123 1434h350v-1434h-350v1434zM444 1829l189 -33q-12 -114 -59.5 -169.5t-133.5 -55.5q-55 0 -131.5 29.5t-103.5 29.5q-46 0 -55 -59l-189 33q32 225 211 225q47 0 114 -30t101 -30q52 0 57 60z" />
    <glyph glyph-name="itilde" unicode="&#x129;" horiz-adv-x="557" 
d="M113 0v1038h331v-1038h-331zM426 1419l188 -33q-12 -114 -59 -169.5t-133 -55.5q-55 0 -132 30t-104 30q-46 0 -55 -60l-188 33q32 225 211 225q47 0 114 -29.5t101 -29.5q52 0 57 59z" />
    <glyph glyph-name="Imacron" unicode="&#x12a;" horiz-adv-x="595" 
d="M123 1434h350v-1434h-350v1434zM-8 1835h614v-238h-614v238z" />
    <glyph glyph-name="imacron" unicode="&#x12b;" horiz-adv-x="557" 
d="M113 0v1038h331v-1038h-331zM-29 1425h615v-237h-615v237z" />
    <glyph glyph-name="Ibreve" unicode="&#x12c;" horiz-adv-x="595" 
d="M123 1434h350v-1434h-350v1434zM424 1870h201q0 -141 -87 -224t-239 -83q-154 0 -240 83t-86 224h201q0 -54 31.5 -89.5t93.5 -35.5t93.5 35.5t31.5 89.5z" />
    <glyph glyph-name="ibreve" unicode="&#x12d;" horiz-adv-x="557" 
d="M113 0v1038h331v-1038h-331zM403 1460h201q0 -141 -86.5 -224t-238.5 -83q-154 0 -240 83t-86 224h201q0 -54 31.5 -89.5t93.5 -35.5t93 35.5t31 89.5z" />
    <glyph glyph-name="Iogonek" unicode="&#x12e;" horiz-adv-x="595" 
d="M473 0q-65 -31 -115.5 -84t-50.5 -113q0 -94 107 -94q32 0 59 10v-182q-70 -29 -151 -29q-113 0 -177.5 53t-64.5 152q0 96 57.5 170t130.5 117h-145v1434h350v-1434z" />
    <glyph glyph-name="iogonek" unicode="&#x12f;" horiz-adv-x="557" 
d="M111 0v1038h333v-1038q-66 -31 -117 -84t-51 -113q0 -94 109 -94q29 0 59 10v-182q-70 -29 -153 -29q-113 0 -177.5 53t-64.5 152q0 51 18 98t48.5 83t60.5 61.5t62 44.5h-127zM276 1153q-72 0 -123 52t-51 124t51 123t123 51q73 0 125 -51t52 -123t-52 -124t-125 -52z
" />
    <glyph glyph-name="Idotaccent" unicode="&#x130;" horiz-adv-x="595" 
d="M123 1434h350v-1434h-350v1434zM297 1896q66 0 113 -46.5t47 -112.5t-47 -113t-113 -47t-113 47t-47 113t47 112.5t113 46.5z" />
    <glyph glyph-name="dotlessi" unicode="&#x131;" horiz-adv-x="557" 
d="M113 0v1038h331v-1038h-331z" />
    <glyph glyph-name="IJ" unicode="&#x132;" horiz-adv-x="1761" 
d="M123 1434h350v-1434h-350v1434zM1288 1434h350v-924q0 -260 -132 -398.5t-396 -138.5q-229 0 -376.5 124.5t-158.5 318.5l347 63q5 -69 51 -118.5t135 -49.5q52 0 89.5 18.5t56 50t26.5 63.5t8 67v924z" />
    <glyph glyph-name="ij" unicode="&#x133;" horiz-adv-x="1140" 
d="M113 0v1038h331v-1038h-331zM279 1153q-72 0 -123.5 52t-51.5 124t51.5 123t123.5 51t123 -51t51 -123t-51 -124t-123 -52zM694 72v966h334v-1001q0 -88 -21.5 -161.5t-65.5 -131.5t-118.5 -90.5t-173.5 -32.5q-52 0 -143 14v291q100 -9 144 22t44 124zM862 1153
q-72 0 -123 52t-51 124t51 123t123 51t123 -51t51 -123t-51 -124t-123 -52z" />
    <glyph glyph-name="Jcircumflex" unicode="&#x134;" horiz-adv-x="1216" 
d="M743 1434h351v-924q0 -259 -132.5 -398t-396.5 -139q-229 0 -376 124.5t-158 318.5l346 63q5 -69 51 -118.5t135 -49.5q52 0 89.5 18.5t56 50t26.5 63.5t8 67v924zM1280 1591h-268l-101 140l-102 -140h-268l225 287h289z" />
    <glyph glyph-name="jcircumflex" unicode="&#x135;" horiz-adv-x="557" 
d="M111 72v966h333v-1001q0 -88 -21.5 -161.5t-65 -131.5t-118 -90.5t-173.5 -32.5q-53 0 -144 14v291q100 -9 144.5 22t44.5 124zM635 1182h-268l-101 139l-102 -139h-268l225 286h289z" />
    <glyph glyph-name="Kcommaaccent" unicode="&#x136;" horiz-adv-x="1357" 
d="M1337 0h-409l-455 655v-655h-350v1434h350v-637l438 637h392l-496 -695zM537 -147h292l-165 -306h-240z" />
    <glyph glyph-name="kcommaaccent" unicode="&#x137;" horiz-adv-x="1150" 
d="M1130 0h-389l-295 457v-457h-333v1434h333v-826l285 430h373l-346 -491zM449 -147h292l-166 -306h-239z" />
    <glyph glyph-name="kgreenlandic" unicode="&#x138;" horiz-adv-x="1150" 
d="M1130 0h-389l-295 457v-457h-333v1038h333v-430l285 430h373l-346 -491z" />
    <glyph glyph-name="Lacute" unicode="&#x139;" horiz-adv-x="1071" 
d="M475 330h535v-330h-887v1434h352v-1104zM324 1878h329l-198 -287h-265z" />
    <glyph glyph-name="lacute" unicode="&#x13a;" horiz-adv-x="559" 
d="M113 1434h333v-1434h-333v1434zM272 1878h330l-199 -287h-264z" />
    <glyph glyph-name="Lcommaaccent" unicode="&#x13b;" horiz-adv-x="1071" 
d="M475 330h535v-330h-887v1434h352v-1104zM455 -147h293l-166 -306h-240z" />
    <glyph glyph-name="lcommaaccent" unicode="&#x13c;" horiz-adv-x="559" 
d="M113 1434h333v-1434h-333v1434zM129 -147h293l-166 -306h-240z" />
    <glyph glyph-name="Lcaron" unicode="&#x13d;" horiz-adv-x="1071" 
d="M475 330h535v-330h-887v1434h352v-1104zM676 1434h293l-166 -306h-240z" />
    <glyph glyph-name="lcaron" unicode="&#x13e;" horiz-adv-x="722" 
d="M113 1434h333v-1434h-333v1434zM645 1434h293l-166 -306h-240z" />
    <glyph glyph-name="Ldot" unicode="&#x13f;" horiz-adv-x="1071" 
d="M801 582q-69 0 -118.5 49.5t-49.5 118.5q0 70 49.5 119t118.5 49q71 0 119.5 -49t48.5 -119q0 -69 -49 -118.5t-119 -49.5zM475 330h535v-330h-887v1434h352v-1104z" />
    <glyph glyph-name="ldot" unicode="&#x140;" horiz-adv-x="935" 
d="M748 864q70 0 118.5 -49.5t48.5 -120.5q0 -69 -48.5 -118.5t-118.5 -49.5q-69 0 -118.5 49.5t-49.5 118.5q0 70 49.5 120t118.5 50zM113 1434h333v-1434h-333v1434z" />
    <glyph glyph-name="Lslash" unicode="&#x141;" horiz-adv-x="1148" 
d="M553 330h534v-330h-884v518l-142 -80l-61 109l203 115v772h350v-574l207 115l61 -109l-268 -151v-385z" />
    <glyph glyph-name="lslash" unicode="&#x142;" horiz-adv-x="702" 
d="M692 860l-174 -106v-754h-334v553l-116 -72l-58 92l174 107v754h334v-551l119 71z" />
    <glyph glyph-name="Nacute" unicode="&#x143;" horiz-adv-x="1464" 
d="M989 1434h352v-1434h-307l-559 836v-836h-352v1434h307l559 -836v836zM715 1878h329l-198 -287h-264z" />
    <glyph glyph-name="nacute" unicode="&#x144;" 
d="M729 1063q93 0 167.5 -35t120 -94t69.5 -132t24 -153v-649h-334v559q0 86 -46.5 132t-119.5 46q-74 0 -120 -47t-46 -131v-559h-331v1038h331v-96q105 121 285 121zM573 1468h330l-198 -286h-265z" />
    <glyph glyph-name="Ncommaaccent" unicode="&#x145;" horiz-adv-x="1464" 
d="M989 1434h352v-1434h-307l-559 836v-836h-352v1434h307l559 -836v836zM621 -147h292l-165 -306h-240z" />
    <glyph glyph-name="ncommaaccent" unicode="&#x146;" 
d="M729 1063q93 0 167.5 -35t120 -94t69.5 -132t24 -153v-649h-334v559q0 86 -46.5 132t-119.5 46q-74 0 -120 -47t-46 -131v-559h-331v1038h331v-96q105 121 285 121zM479 -147h293l-166 -306h-239z" />
    <glyph glyph-name="Ncaron" unicode="&#x147;" horiz-adv-x="1464" 
d="M989 1434h352v-1434h-307l-559 836v-836h-352v1434h307l559 -836v836zM836 1878h266l-225 -287h-287l-228 287h269l102 -141z" />
    <glyph glyph-name="ncaron" unicode="&#x148;" 
d="M729 1063q93 0 167.5 -35t120 -94t69.5 -132t24 -153v-649h-334v559q0 86 -46.5 132t-119.5 46q-74 0 -120 -47t-46 -131v-559h-331v1038h331v-96q105 121 285 121zM715 1468h266l-225 -286h-287l-227 286h268l102 -141z" />
    <glyph glyph-name="napostrophe" unicode="&#x149;" horiz-adv-x="1277" 
d="M784 1063q93 0 167.5 -35t120 -94t69.5 -132t24 -153v-649h-334v559q0 86 -46.5 132t-118.5 46q-74 0 -120 -47t-46 -131v-559h-332v1038h332v-96q105 121 284 121zM373 1434l-166 -306h-238l113 306h291z" />
    <glyph glyph-name="Eng" unicode="&#x14a;" horiz-adv-x="1462" 
d="M989 1434h350v-1434q-1 -70 -15 -131.5t-44.5 -117.5t-77 -96t-117 -63.5t-159.5 -23.5q-76 0 -146 12v289q6 0 17.5 -1t17.5 -1q92 0 133 36t41 134v24l-516 775v-836h-350v1434h305l561 -836v836z" />
    <glyph glyph-name="eng" unicode="&#x14b;" 
d="M729 1063q93 0 167.5 -35t120 -94t69.5 -132t24 -153v-649q-2 -86 -23.5 -155t-65 -124t-117 -85.5t-173.5 -30.5q-69 0 -125 12v295q5 0 17 -1t18 -1q71 0 103 29.5t32 113.5v506q0 86 -46.5 132t-119.5 46q-74 0 -120 -47t-46 -131v-559h-331v1038h331v-96
q105 121 285 121z" />
    <glyph glyph-name="Omacron" unicode="&#x14c;" horiz-adv-x="1601" 
d="M801 1458q209 0 376 -96.5t260 -265.5t93 -379q0 -158 -54.5 -296t-150.5 -236.5t-232 -155t-292 -56.5t-292 56.5t-232 155t-150.5 236.5t-54.5 296q0 210 93 379t260 265.5t376 96.5zM801 311q90 0 163.5 34.5t119 92.5t70 129.5t24.5 149.5t-24.5 149t-70 128.5
t-119 91.5t-163.5 34t-163.5 -34t-119 -91.5t-70 -128.5t-24.5 -149t24.5 -149.5t70 -129.5t119 -92.5t163.5 -34.5zM494 1835h614v-238h-614v238z" />
    <glyph glyph-name="omacron" unicode="&#x14d;" horiz-adv-x="1216" 
d="M608 1063q160 0 288 -71.5t198.5 -196t70.5 -277.5q0 -232 -157.5 -388.5t-399.5 -156.5q-241 0 -399 156.5t-158 388.5q0 153 71 277.5t199 196t287 71.5zM608 297q99 0 161 64t62 157t-62 158t-161 65q-98 0 -159.5 -65t-61.5 -158t61.5 -157t159.5 -64zM301 1425h614
v-237h-614v237z" />
    <glyph glyph-name="Obreve" unicode="&#x14e;" horiz-adv-x="1601" 
d="M801 1458q209 0 376 -96.5t260 -265.5t93 -379q0 -158 -54.5 -296t-150.5 -236.5t-232 -155t-292 -56.5t-292 56.5t-232 155t-150.5 236.5t-54.5 296q0 210 93 379t260 265.5t376 96.5zM801 311q90 0 163.5 34.5t119 92.5t70 129.5t24.5 149.5t-24.5 149t-70 128.5
t-119 91.5t-163.5 34t-163.5 -34t-119 -91.5t-70 -128.5t-24.5 -149t24.5 -149.5t70 -129.5t119 -92.5t163.5 -34.5zM926 1870h200q0 -141 -86.5 -224t-238.5 -83q-154 0 -240 83t-86 224h201q0 -54 31.5 -89.5t93.5 -35.5t93.5 35.5t31.5 89.5z" />
    <glyph glyph-name="obreve" unicode="&#x14f;" horiz-adv-x="1216" 
d="M608 1063q160 0 288 -71.5t198.5 -196t70.5 -277.5q0 -232 -157.5 -388.5t-399.5 -156.5q-241 0 -399 156.5t-158 388.5q0 153 71 277.5t199 196t287 71.5zM608 297q99 0 161 64t62 157t-62 158t-161 65q-98 0 -159.5 -65t-61.5 -158t61.5 -157t159.5 -64zM733 1460h201
q0 -141 -87 -224t-239 -83q-153 0 -239 83t-86 224h200q0 -54 31.5 -89.5t93.5 -35.5t93.5 35.5t31.5 89.5z" />
    <glyph glyph-name="Ohungarumlaut" unicode="&#x150;" horiz-adv-x="1601" 
d="M801 1458q209 0 376 -96.5t260 -265.5t93 -379q0 -158 -54.5 -296t-150.5 -236.5t-232 -155t-292 -56.5t-292 56.5t-232 155t-150.5 236.5t-54.5 296q0 210 93 379t260 265.5t376 96.5zM801 311q90 0 163.5 34.5t119 92.5t70 129.5t24.5 149.5t-24.5 149t-70 128.5
t-119 91.5t-163.5 34t-163.5 -34t-119 -91.5t-70 -128.5t-24.5 -149t24.5 -149.5t70 -129.5t119 -92.5t163.5 -34.5zM565 1878h330l-199 -287h-264zM1001 1878h330l-198 -287h-265z" />
    <glyph glyph-name="ohungarumlaut" unicode="&#x151;" horiz-adv-x="1216" 
d="M608 1063q160 0 288 -71.5t198.5 -196t70.5 -277.5q0 -232 -157.5 -388.5t-399.5 -156.5q-241 0 -399 156.5t-158 388.5q0 153 71 277.5t199 196t287 71.5zM608 297q99 0 161 64t62 157t-62 158t-161 65q-98 0 -159.5 -65t-61.5 -158t61.5 -157t159.5 -64zM393 1468h330
l-199 -286h-264zM829 1468h330l-198 -286h-265z" />
    <glyph glyph-name="OE" unicode="&#x152;" horiz-adv-x="1949" 
d="M1317 330h551v-330h-1034q-356 0 -559 193.5t-203 523.5q0 329 203.5 523t558.5 194h1013v-332h-530v-221h467v-314h-467v-237zM834 330h133v772h-133q-182 0 -296 -100.5t-114 -284.5q0 -185 114.5 -286t295.5 -101z" />
    <glyph glyph-name="oe" unicode="&#x153;" horiz-adv-x="1984" 
d="M1391 1063q118 0 219.5 -40.5t178.5 -117.5t115 -203t23 -284h-749q26 -88 94 -132t166 -44q72 0 128.5 27.5t84.5 62.5l233 -139q-65 -100 -181.5 -160t-264.5 -60q-272 0 -428 166q-72 -78 -175.5 -122t-226.5 -44q-241 0 -399 156.5t-158 388.5q0 153 71 277.5
t199 196t287 71.5q125 0 228.5 -44t175.5 -124q70 80 168 124t211 44zM608 297q98 0 159.5 64t61.5 157t-61.5 158t-159.5 65q-99 0 -161 -65t-62 -158t62 -157t161 -64zM1178 618h448q-37 177 -225 177q-79 0 -139 -46t-84 -131z" />
    <glyph glyph-name="Racute" unicode="&#x154;" horiz-adv-x="1329" 
d="M1309 0h-373l-242 479h-20h-201v-479h-350v1434h551q266 0 408.5 -136.5t142.5 -359.5q0 -126 -58 -222.5t-163 -156.5zM473 1102v-328h201q86 0 141 39t55 125q0 78 -53 121t-143 43h-201zM616 1878h330l-198 -287h-265z" />
    <glyph glyph-name="racute" unicode="&#x155;" horiz-adv-x="823" 
d="M444 881q54 86 143.5 134t184.5 48v-356q-48 7 -89 7t-71.5 -6t-55.5 -19.5t-42.5 -29.5t-30 -39t-20 -45.5t-12 -51.5t-6 -55t-1.5 -58v-410h-331v1038h331v-157zM385 1468h330l-199 -286h-264z" />
    <glyph glyph-name="Rcommaaccent" unicode="&#x156;" horiz-adv-x="1329" 
d="M1309 0h-373l-242 479h-20h-201v-479h-350v1434h551q266 0 408.5 -136.5t142.5 -359.5q0 -126 -58 -222.5t-163 -156.5zM473 1102v-328h201q86 0 141 39t55 125q0 78 -53 121t-143 43h-201zM563 -147h293l-166 -306h-239z" />
    <glyph glyph-name="rcommaaccent" unicode="&#x157;" horiz-adv-x="823" 
d="M444 881q54 86 143.5 134t184.5 48v-356q-48 7 -89 7t-71.5 -6t-55.5 -19.5t-42.5 -29.5t-30 -39t-20 -45.5t-12 -51.5t-6 -55t-1.5 -58v-410h-331v1038h331v-157zM127 -147h293l-166 -306h-240z" />
    <glyph glyph-name="Rcaron" unicode="&#x158;" horiz-adv-x="1329" 
d="M1309 0h-373l-242 479h-20h-201v-479h-350v1434h551q266 0 408.5 -136.5t142.5 -359.5q0 -126 -58 -222.5t-163 -156.5zM473 1102v-328h201q86 0 141 39t55 125q0 78 -53 121t-143 43h-201zM758 1878h266l-225 -287h-287l-227 287h268l102 -141z" />
    <glyph glyph-name="rcaron" unicode="&#x159;" horiz-adv-x="823" 
d="M444 881q54 86 143.5 134t184.5 48v-356q-48 7 -89 7t-71.5 -6t-55.5 -19.5t-42.5 -29.5t-30 -39t-20 -45.5t-12 -51.5t-6 -55t-1.5 -58v-410h-331v1038h331v-157zM516 1468h266l-225 -286h-287l-227 286h268l103 -141z" />
    <glyph glyph-name="Sacute" unicode="&#x15a;" horiz-adv-x="1220" 
d="M727 852q259 -72 356 -167t97 -265q0 -88 -38 -168t-108 -142.5t-178 -99.5t-238 -37q-102 0 -193 21t-170 63.5t-135 115t-79 169.5l324 100q15 -70 78 -120t171 -50q94 0 152.5 37t58.5 105q0 19 -7 35.5t-17 29t-30 23.5t-36.5 18t-46.5 16t-50 14t-57 14t-59 14
q-216 53 -316 158t-100 284q0 134 69.5 234.5t188.5 152t269 51.5q189 0 329.5 -95.5t180.5 -262.5l-324 -80q-15 59 -65.5 99t-137.5 40q-76 0 -123 -37.5t-47 -99.5q0 -23 9 -43t28 -35t37.5 -26.5t50 -21.5t51.5 -16t55 -15t50 -13zM614 1878h330l-199 -287h-264z" />
    <glyph glyph-name="sacute" unicode="&#x15b;" horiz-adv-x="989" 
d="M582 643q201 -42 283.5 -111.5t82.5 -209.5q0 -166 -120 -257.5t-345 -91.5q-110 0 -201 23.5t-160.5 81.5t-90.5 145l301 94q10 -36 46 -60t101 -24q56 0 90.5 18t34.5 56q0 21 -11 34.5t-36 22t-48.5 13t-65.5 11.5t-70 13q-160 36 -233.5 105.5t-73.5 214.5
q0 160 123.5 251t322.5 91q142 0 254.5 -69t144.5 -195l-278 -68q-9 36 -41 56t-78 20q-55 0 -91 -18t-36 -58q0 -19 11 -33t35.5 -23t43 -13.5t55.5 -10t50 -8.5zM473 1468h330l-199 -286h-264z" />
    <glyph glyph-name="Scircumflex" unicode="&#x15c;" horiz-adv-x="1220" 
d="M727 852q259 -72 356 -167t97 -265q0 -88 -38 -168t-108 -142.5t-178 -99.5t-238 -37q-102 0 -193 21t-170 63.5t-135 115t-79 169.5l324 100q15 -70 78 -120t171 -50q94 0 152.5 37t58.5 105q0 19 -7 35.5t-17 29t-30 23.5t-36.5 18t-46.5 16t-50 14t-57 14t-59 14
q-216 53 -316 158t-100 284q0 134 69.5 234.5t188.5 152t269 51.5q189 0 329.5 -95.5t180.5 -262.5l-324 -80q-15 59 -65.5 99t-137.5 40q-76 0 -123 -37.5t-47 -99.5q0 -23 9 -43t28 -35t37.5 -26.5t50 -21.5t51.5 -16t55 -15t50 -13zM981 1591h-268l-101 140l-102 -140
h-268l225 287h289z" />
    <glyph glyph-name="scircumflex" unicode="&#x15d;" horiz-adv-x="989" 
d="M582 643q201 -42 283.5 -111.5t82.5 -209.5q0 -166 -120 -257.5t-345 -91.5q-110 0 -201 23.5t-160.5 81.5t-90.5 145l301 94q10 -36 46 -60t101 -24q56 0 90.5 18t34.5 56q0 21 -11 34.5t-36 22t-48.5 13t-65.5 11.5t-70 13q-160 36 -233.5 105.5t-73.5 214.5
q0 160 123.5 251t322.5 91q142 0 254.5 -69t144.5 -195l-278 -68q-9 36 -41 56t-78 20q-55 0 -91 -18t-36 -58q0 -19 11 -33t35.5 -23t43 -13.5t55.5 -10t50 -8.5zM858 1182h-268l-101 139l-102 -139h-268l225 286h289z" />
    <glyph glyph-name="Scedilla" unicode="&#x15e;" horiz-adv-x="1220" 
d="M1178 420q0 -176 -138 -304.5t-376 -140.5l-35 -71q105 2 170 -49t65 -156q0 -102 -76.5 -159.5t-189.5 -57.5q-147 0 -227 53l84 150q45 -31 106 -31q47 0 71.5 21.5t24.5 54.5q0 36 -23 52.5t-56 16.5q-32 0 -64 -14l-51 70l61 125q-88 8 -164 33t-141.5 68
t-111.5 109.5t-66 151.5l321 100q17 -70 80.5 -120t171.5 -50q94 0 151.5 37t57.5 105q0 22 -7 40t-25.5 32t-34 23.5t-49.5 20t-53.5 16t-65 16.5t-66.5 16q-217 53 -317.5 158t-100.5 284q0 134 69.5 234.5t188.5 152t269 51.5q190 0 330.5 -95.5t179.5 -262.5l-324 -80
q-15 59 -65 99t-136 40q-78 0 -125 -37.5t-47 -99.5q0 -23 9 -43t28.5 -35t38.5 -26.5t50 -21.5t51.5 -16t55.5 -15t50 -13q176 -49 273.5 -107.5t137.5 -134t40 -190.5z" />
    <glyph glyph-name="scedilla" unicode="&#x15f;" horiz-adv-x="989" 
d="M948 322q0 -152 -102.5 -242t-296.5 -103l-37 -73q106 2 171 -49t65 -156q0 -102 -77 -159.5t-190 -57.5q-145 0 -225 53l84 150q45 -31 106 -31q47 0 71 21.5t24 54.5q0 36 -23.5 52.5t-54.5 16.5q-33 0 -64 -14l-53 70l62 122q-146 11 -248.5 72t-128.5 174l301 94
q9 -35 44 -59.5t99 -24.5q125 0 125 74q0 21 -11 34.5t-35.5 22t-47.5 13t-64 11.5t-69 13q-161 36 -234 105.5t-73 214.5q0 160 123 251t321 91q143 0 255 -69t144 -195l-276 -68q-9 36 -41.5 56t-77.5 20q-55 0 -91 -18t-36 -58q0 -19 10.5 -33t35.5 -23t42.5 -13.5
t55.5 -10.5t51 -8q201 -42 283.5 -111.5t82.5 -209.5z" />
    <glyph glyph-name="Scaron" unicode="&#x160;" horiz-adv-x="1220" 
d="M727 852q259 -72 356 -167t97 -265q0 -88 -38 -168t-108 -142.5t-178 -99.5t-238 -37q-102 0 -193 21t-170 63.5t-135 115t-79 169.5l324 100q15 -70 78 -120t171 -50q94 0 152.5 37t58.5 105q0 19 -7 35.5t-17 29t-30 23.5t-36.5 18t-46.5 16t-50 14t-57 14t-59 14
q-216 53 -316 158t-100 284q0 134 69.5 234.5t188.5 152t269 51.5q189 0 329.5 -95.5t180.5 -262.5l-324 -80q-15 59 -65.5 99t-137.5 40q-76 0 -123 -37.5t-47 -99.5q0 -23 9 -43t28 -35t37.5 -26.5t50 -21.5t51.5 -16t55 -15t50 -13zM715 1878h266l-225 -287h-287
l-227 287h268l102 -141z" />
    <glyph glyph-name="scaron" unicode="&#x161;" horiz-adv-x="989" 
d="M582 643q201 -42 283.5 -111.5t82.5 -209.5q0 -166 -120 -257.5t-345 -91.5q-110 0 -201 23.5t-160.5 81.5t-90.5 145l301 94q10 -36 46 -60t101 -24q56 0 90.5 18t34.5 56q0 21 -11 34.5t-36 22t-48.5 13t-65.5 11.5t-70 13q-160 36 -233.5 105.5t-73.5 214.5
q0 160 123.5 251t322.5 91q142 0 254.5 -69t144.5 -195l-278 -68q-9 36 -41 56t-78 20q-55 0 -91 -18t-36 -58q0 -19 11 -33t35.5 -23t43 -13.5t55.5 -10t50 -8.5zM594 1468h266l-225 -286h-287l-227 286h268l103 -141z" />
    <glyph glyph-name="Tcommaaccent" unicode="&#x162;" horiz-adv-x="1144" 
d="M1083 1434v-332h-335v-1102h-351v1102h-336v332h1022zM430 -147h293l-166 -306h-240z" />
    <glyph glyph-name="tcommaaccent" unicode="&#x163;" horiz-adv-x="839" 
d="M737 764h-205v-328q0 -83 33.5 -123.5t108.5 -40.5q7 0 63 7v-279q-53 -18 -143 -18q-92 0 -163 24.5t-113.5 64t-69.5 96t-37 112.5t-10 122v363h-129v274h129v217h331v-217h205v-274zM313 -147h293l-166 -306h-239z" />
    <glyph glyph-name="Tcaron" unicode="&#x164;" horiz-adv-x="1144" 
d="M1083 1434v-332h-335v-1102h-351v1102h-336v332h1022zM676 1878h266l-225 -287h-287l-227 287h268l102 -141z" />
    <glyph glyph-name="tcaron" unicode="&#x165;" horiz-adv-x="839" 
d="M737 764h-205v-328q0 -83 33.5 -123.5t108.5 -40.5q7 0 63 7v-279q-53 -18 -143 -18q-92 0 -163 24.5t-113.5 64t-69.5 96t-37 112.5t-10 122v363h-129v274h129v217h331v-217h205v-274zM762 1458h293l-166 -305h-240z" />
    <glyph glyph-name="Tbar" unicode="&#x166;" horiz-adv-x="1144" 
d="M1083 1102h-335v-314h227v-126h-227v-662h-351v662h-227v126h227v314h-336v332h1022v-332z" />
    <glyph glyph-name="tbar" unicode="&#x167;" horiz-adv-x="839" 
d="M737 508h-205v-72q0 -83 33.5 -123.5t108.5 -40.5q7 0 63 7v-279q-53 -18 -143 -18q-92 0 -163 24.5t-114 64t-70.5 95.5t-37.5 113t-10 122v107h-127v110h127v146h-127v274h127v217h333v-217h205v-274h-205v-146h205v-110z" />
    <glyph glyph-name="Utilde" unicode="&#x168;" horiz-adv-x="1443" 
d="M971 1434h350v-877q0 -290 -156 -437t-442 -147q-287 0 -443.5 147t-156.5 437v877h352v-842q0 -140 64 -210.5t184 -70.5q119 0 183.5 70.5t64.5 210.5v842zM868 1829l189 -33q-12 -114 -59.5 -169.5t-133.5 -55.5q-55 0 -131.5 29.5t-103.5 29.5q-47 0 -56 -59l-188 33
q32 225 211 225q47 0 114 -30t101 -30q52 0 57 60z" />
    <glyph glyph-name="utilde" unicode="&#x169;" 
d="M776 1038h334v-1038h-334v94q-101 -121 -282 -121q-94 0 -168.5 35t-120 94t-69 132t-23.5 153v651h331v-561q0 -85 47.5 -131.5t118.5 -46.5q75 0 120.5 47t45.5 131v561zM758 1419l188 -33q-12 -114 -59 -169.5t-133 -55.5q-55 0 -132 30t-104 30q-46 0 -55 -60
l-189 33q32 225 211 225q47 0 114 -29.5t101 -29.5q53 0 58 59z" />
    <glyph glyph-name="Umacron" unicode="&#x16a;" horiz-adv-x="1443" 
d="M971 1434h350v-877q0 -290 -156 -437t-442 -147q-287 0 -443.5 147t-156.5 437v877h352v-842q0 -140 64 -210.5t184 -70.5q119 0 183.5 70.5t64.5 210.5v842zM414 1835h614v-238h-614v238z" />
    <glyph glyph-name="umacron" unicode="&#x16b;" 
d="M776 1038h334v-1038h-334v94q-101 -121 -282 -121q-94 0 -168.5 35t-120 94t-69 132t-23.5 153v651h331v-561q0 -85 47.5 -131.5t118.5 -46.5q75 0 120.5 47t45.5 131v561zM303 1425h615v-237h-615v237z" />
    <glyph glyph-name="Ubreve" unicode="&#x16c;" horiz-adv-x="1443" 
d="M971 1434h350v-877q0 -290 -156 -437t-442 -147q-287 0 -443.5 147t-156.5 437v877h352v-842q0 -140 64 -210.5t184 -70.5q119 0 183.5 70.5t64.5 210.5v842zM846 1870h201q0 -141 -87 -224t-239 -83q-154 0 -240 83t-86 224h201q0 -54 31.5 -89.5t93.5 -35.5t93.5 35.5
t31.5 89.5z" />
    <glyph glyph-name="ubreve" unicode="&#x16d;" 
d="M776 1038h334v-1038h-334v94q-101 -121 -282 -121q-94 0 -168.5 35t-120 94t-69 132t-23.5 153v651h331v-561q0 -85 47.5 -131.5t118.5 -46.5q75 0 120.5 47t45.5 131v561zM735 1460h201q0 -141 -87 -224t-239 -83q-153 0 -239 83t-86 224h200q0 -54 31.5 -89.5
t93.5 -35.5t93.5 35.5t31.5 89.5z" />
    <glyph glyph-name="Uring" unicode="&#x16e;" horiz-adv-x="1443" 
d="M971 1434h350v-877q0 -290 -156 -437t-442 -147q-287 0 -443.5 147t-156.5 437v877h352v-842q0 -140 64 -210.5t184 -70.5q119 0 183.5 70.5t64.5 210.5v842zM721 1993q100 0 170 -70t70 -168q0 -100 -70 -169.5t-170 -69.5q-99 0 -168.5 70t-69.5 169q0 98 70 168
t168 70zM721 1661q38 0 66 28t28 66t-28 65t-66 27q-37 0 -64.5 -27t-27.5 -65t27.5 -66t64.5 -28z" />
    <glyph glyph-name="uring" unicode="&#x16f;" 
d="M776 1038h334v-1038h-334v94q-101 -121 -282 -121q-94 0 -168.5 35t-120 94t-69 132t-23.5 153v651h331v-561q0 -85 47.5 -131.5t118.5 -46.5q75 0 120.5 47t45.5 131v561zM610 1604q100 0 170 -70t70 -168q0 -100 -70 -170t-170 -70q-98 0 -167.5 70t-69.5 170
q0 98 69.5 168t167.5 70zM610 1272q38 0 66.5 28t28.5 66t-28 65t-67 27q-37 0 -64.5 -27t-27.5 -65t27.5 -66t64.5 -28z" />
    <glyph glyph-name="Uhungarumlaut" unicode="&#x170;" horiz-adv-x="1443" 
d="M971 1434h350v-877q0 -290 -156 -437t-442 -147q-287 0 -443.5 147t-156.5 437v877h352v-842q0 -140 64 -210.5t184 -70.5q119 0 183.5 70.5t64.5 210.5v842zM487 1878h330l-199 -287h-264zM924 1878h329l-198 -287h-264z" />
    <glyph glyph-name="uhungarumlaut" unicode="&#x171;" 
d="M776 1038h334v-1038h-334v94q-101 -121 -282 -121q-94 0 -168.5 35t-120 94t-69 132t-23.5 153v651h331v-561q0 -85 47.5 -131.5t118.5 -46.5q75 0 120.5 47t45.5 131v561zM377 1468h330l-199 -286h-264zM813 1468h330l-199 -286h-264z" />
    <glyph glyph-name="Uogonek" unicode="&#x172;" horiz-adv-x="1443" 
d="M969 1434h352v-877q0 -424 -334 -543q-61 -29 -112.5 -90t-51.5 -121q0 -94 109 -94q32 0 59 10v-182q-70 -29 -153 -29q-113 0 -177.5 53t-64.5 152q0 150 152 262q-8 -2 -27 -2q-286 0 -442 147t-156 437v877h350v-842q0 -140 64.5 -210.5t183.5 -70.5q120 0 184 70.5
t64 210.5v842z" />
    <glyph glyph-name="uogonek" unicode="&#x173;" 
d="M1110 0q-65 -31 -115.5 -84t-50.5 -113q0 -94 107 -94q32 0 59 10v-182q-70 -29 -152 -29q-112 0 -176.5 53t-64.5 152q0 96 57.5 170t130.5 117h-127v94q-105 -121 -284 -121q-93 0 -167.5 35t-120 94t-69.5 132t-24 153v651h333v-561q0 -86 46.5 -132t119.5 -46
q74 0 120 47t46 131v561h332v-1038z" />
    <glyph glyph-name="Wcircumflex" unicode="&#x174;" horiz-adv-x="2052" 
d="M1663 1434h369l-445 -1434h-319l-242 858l-242 -858h-321l-443 1434h367l248 -942l266 942h250l264 -942zM1397 1591h-269l-100 140l-102 -140h-269l226 287h288z" />
    <glyph glyph-name="wcircumflex" unicode="&#x175;" horiz-adv-x="1652" 
d="M1280 1038h352l-348 -1038h-266l-191 559l-190 -559h-266l-351 1038h355l153 -581l195 581h209l194 -581zM1196 1182h-268l-101 139l-102 -139h-268l225 286h289z" />
    <glyph glyph-name="Ycircumflex" unicode="&#x176;" horiz-adv-x="1425" 
d="M1405 1434l-516 -895v-539h-352v539l-517 895h377l316 -611l315 611h377zM1081 1591h-268l-100 140l-103 -140h-268l225 287h289z" />
    <glyph glyph-name="ycircumflex" unicode="&#x177;" horiz-adv-x="1169" 
d="M795 1038h354l-569 -1433h-338l190 456l-412 977h353l209 -592zM954 1182h-268l-100 139l-103 -139h-268l225 286h289z" />
    <glyph glyph-name="Ydieresis" unicode="&#x178;" horiz-adv-x="1425" 
d="M1405 1434l-516 -895v-539h-352v539l-517 895h377l316 -611l315 611h377zM479 1896q66 0 113 -46.5t47 -112.5t-47 -113t-113 -47t-113 47t-47 113t47 112.5t113 46.5zM946 1896q67 0 114.5 -46.5t47.5 -112.5t-47.5 -113t-114.5 -47q-66 0 -113 47t-47 113t47 112.5
t113 46.5z" />
    <glyph glyph-name="Zacute" unicode="&#x179;" horiz-adv-x="1208" 
d="M510 330h637v-330h-1086v293l601 809h-582v332h1030v-295zM588 1878h330l-199 -287h-264z" />
    <glyph glyph-name="zacute" unicode="&#x17a;" horiz-adv-x="1024" 
d="M520 309h422v-309h-860v238l403 489h-385v311h824v-237zM496 1468h329l-198 -286h-265z" />
    <glyph glyph-name="Zdotaccent" unicode="&#x17b;" horiz-adv-x="1208" 
d="M510 330h637v-330h-1086v293l601 809h-582v332h1030v-295zM604 1896q66 0 113 -46.5t47 -112.5t-47 -113t-113 -47t-113 47t-47 113t47 112.5t113 46.5z" />
    <glyph glyph-name="zdotaccent" unicode="&#x17c;" horiz-adv-x="1024" 
d="M520 309h422v-309h-860v238l403 489h-385v311h824v-237zM512 1487q66 0 113 -47t47 -113t-47 -113t-113 -47t-113 47t-47 113t47 113t113 47z" />
    <glyph glyph-name="Zcaron" unicode="&#x17d;" horiz-adv-x="1208" 
d="M510 330h637v-330h-1086v293l601 809h-582v332h1030v-295zM709 1878h266l-225 -287h-287l-227 287h268l102 -141z" />
    <glyph glyph-name="zcaron" unicode="&#x17e;" horiz-adv-x="1024" 
d="M520 309h422v-309h-860v238l403 489h-385v311h824v-237zM614 1468h267l-226 -286h-286l-228 286h269l102 -141z" />
    <glyph glyph-name="longs" unicode="&#x17f;" horiz-adv-x="806" 
d="M684 1206q-79 0 -110 -41t-31 -127v-1038h-334v764h-127v274h127q0 64 9 121t35.5 119t68.5 106t114 72.5t166 28.5q46 0 143 -15v-268q-28 4 -61 4z" />
    <glyph glyph-name="AEacute" unicode="&#x1fc;" horiz-adv-x="1966" 
d="M1333 330h551v-330h-901v266h-477l-119 -266h-367l699 1434h1145v-332h-531v-221h467v-314h-467v-237zM623 532h360v570h-109zM1202 1878h330l-199 -287h-264z" />
    <glyph glyph-name="aeacute" unicode="&#x1fd;" horiz-adv-x="1841" 
d="M1247 1063q93 0 177.5 -25t156 -77t121 -127t72 -182t10.5 -234h-750q26 -88 94 -132t166 -44q72 0 128.5 27.5t84.5 62.5l234 -139q-63 -100 -181 -160t-266 -60q-139 0 -250 46t-186 131q-44 -78 -155.5 -127.5t-256.5 -49.5q-46 0 -94 7t-103.5 28.5t-98 54t-71 88.5
t-28.5 128q0 55 16 102t40.5 80t61.5 60t72.5 43.5t81 28.5t78 17.5t72 8.5t56 3.5t36.5 0.5h123v4q0 78 -41.5 123t-128.5 45q-112 0 -194 -66l-218 148q173 186 467 186q235 0 349 -117q139 117 325 117zM688 291v166h-26q-133 0 -205 -30.5t-72 -104.5q0 -54 37 -79.5
t96 -25.5q56 0 102 22t68 52zM1034 618h451q-20 89 -78.5 133t-146.5 44q-81 0 -141.5 -46t-84.5 -131zM903 1468h330l-199 -286h-264z" />
    <glyph glyph-name="Oslashacute" unicode="&#x1fe;" horiz-adv-x="1601" 
d="M1389 1169q141 -193 141 -452q0 -158 -54.5 -296t-150.5 -236.5t-232 -155t-292 -56.5q-151 0 -281 51.5t-227 145.5l-123 -111l-82 88l125 115q-141 196 -141 455q0 210 93 379t260 265.5t376 96.5q302 0 508 -196l123 112l81 -90zM424 717q0 -119 51 -215l578 526
q-98 92 -252 92q-90 0 -163.5 -34t-119 -91.5t-70 -128.5t-24.5 -149zM801 311q90 0 163.5 34.5t119 92.5t70 129.5t24.5 149.5q0 119 -52 213l-577 -524q102 -95 252 -95zM784 1878h330l-199 -287h-264z" />
    <glyph glyph-name="oslashacute" unicode="&#x1ff;" horiz-adv-x="1216" 
d="M1055 852q110 -138 110 -334q0 -232 -158 -388.5t-399 -156.5q-219 0 -372 131l-99 -90l-74 82l97 88q-109 143 -109 334q0 153 71 277.5t199 196t287 71.5q220 0 373 -131l98 90l74 -80zM387 518q0 -54 25 -106l319 293q-52 36 -123 36q-98 0 -159.5 -65t-61.5 -158z
M608 297q98 0 159.5 64t61.5 157q0 58 -24 107l-322 -293q53 -35 125 -35zM592 1468h330l-199 -286h-264z" />
    <glyph glyph-name="Scommaaccent" unicode="&#x218;" horiz-adv-x="1220" 
d="M727 852q259 -72 356 -167t97 -265q0 -88 -38 -168t-108 -142.5t-178 -99.5t-238 -37q-102 0 -193 21t-170 63.5t-135 115t-79 169.5l324 100q15 -70 78 -120t171 -50q94 0 152.5 37t58.5 105q0 19 -7 35.5t-17 29t-30 23.5t-36.5 18t-46.5 16t-50 14t-57 14t-59 14
q-216 53 -316 158t-100 284q0 134 69.5 234.5t188.5 152t269 51.5q189 0 329.5 -95.5t180.5 -262.5l-324 -80q-15 59 -65.5 99t-137.5 40q-76 0 -123 -37.5t-47 -99.5q0 -23 9 -43t28 -35t37.5 -26.5t50 -21.5t51.5 -16t55 -15t50 -13zM475 -147h293l-166 -306h-240z" />
    <glyph glyph-name="scommaaccent" unicode="&#x219;" horiz-adv-x="989" 
d="M582 643q201 -42 283.5 -111.5t82.5 -209.5q0 -166 -120 -257.5t-345 -91.5q-110 0 -201 23.5t-160.5 81.5t-90.5 145l301 94q10 -36 46 -60t101 -24q56 0 90.5 18t34.5 56q0 21 -11 34.5t-36 22t-48.5 13t-65.5 11.5t-70 13q-160 36 -233.5 105.5t-73.5 214.5
q0 160 123.5 251t322.5 91q142 0 254.5 -69t144.5 -195l-278 -68q-9 36 -41 56t-78 20q-55 0 -91 -18t-36 -58q0 -19 11 -33t35.5 -23t43 -13.5t55.5 -10t50 -8.5zM338 -147h293l-166 -306h-240z" />
    <glyph glyph-name="circumflex" unicode="&#x2c6;" horiz-adv-x="985" 
d="M862 1182h-268l-100 139l-103 -139h-268l225 286h289z" />
    <glyph glyph-name="caron" unicode="&#x2c7;" horiz-adv-x="985" 
d="M596 1468h266l-225 -286h-287l-227 286h268l103 -141z" />
    <glyph glyph-name="breve" unicode="&#x2d8;" horiz-adv-x="897" 
d="M573 1460h201q0 -141 -86.5 -224t-238.5 -83q-154 0 -240 83t-86 224h201q0 -54 31.5 -89.5t93.5 -35.5t93 35.5t31 89.5z" />
    <glyph glyph-name="dotaccent" unicode="&#x2d9;" horiz-adv-x="565" 
d="M283 1487q66 0 112.5 -47t46.5 -113t-46.5 -113t-112.5 -47t-113 47t-47 113t47 113t113 47z" />
    <glyph glyph-name="ring" unicode="&#x2da;" horiz-adv-x="722" 
d="M360 1583q100 0 170 -69.5t70 -167.5q0 -100 -70 -170t-170 -70q-98 0 -167.5 70t-69.5 170q0 98 69.5 167.5t167.5 69.5zM360 1251q38 0 66.5 28.5t28.5 66.5t-28 65t-67 27q-37 0 -64.5 -27t-27.5 -65t27.5 -66.5t64.5 -28.5z" />
    <glyph glyph-name="ogonek" unicode="&#x2db;" horiz-adv-x="638" 
d="M348 -197q0 -94 109 -94q32 0 59 10v-182q-70 -29 -151 -29q-113 0 -177.5 53t-64.5 152q0 96 57.5 170t130.5 117h205q-65 -32 -116.5 -84.5t-51.5 -112.5z" />
    <glyph glyph-name="tilde" unicode="&#x2dc;" horiz-adv-x="917" 
d="M606 1419l189 -33q-12 -114 -59.5 -169.5t-133.5 -55.5q-55 0 -131.5 30t-103.5 30q-47 0 -56 -60l-188 33q32 225 211 225q47 0 114 -29.5t101 -29.5q52 0 57 59z" />
    <glyph glyph-name="hungarumlaut" unicode="&#x2dd;" horiz-adv-x="1144" 
d="M256 1468h330l-199 -286h-264zM692 1468h330l-199 -286h-264z" />
    <glyph glyph-name="Wgrave" unicode="&#x1e80;" horiz-adv-x="2052" 
d="M1663 1434h369l-445 -1434h-319l-242 858l-242 -858h-321l-443 1434h367l248 -942l266 942h250l264 -942zM1022 1878l133 -287h-264l-199 287h330z" />
    <glyph glyph-name="wgrave" unicode="&#x1e81;" horiz-adv-x="1652" 
d="M1280 1038h352l-348 -1038h-266l-191 559l-190 -559h-266l-351 1038h355l153 -581l195 581h209l194 -581zM821 1468l133 -286h-264l-198 286h329z" />
    <glyph glyph-name="Wacute" unicode="&#x1e82;" horiz-adv-x="2052" 
d="M1663 1434h369l-445 -1434h-319l-242 858l-242 -858h-321l-443 1434h367l248 -942l266 942h250l264 -942zM1030 1878h330l-199 -287h-264z" />
    <glyph glyph-name="wacute" unicode="&#x1e83;" horiz-adv-x="1652" 
d="M1280 1038h352l-348 -1038h-266l-191 559l-190 -559h-266l-351 1038h355l153 -581l195 581h209l194 -581zM829 1468h330l-198 -286h-265z" />
    <glyph glyph-name="Wdieresis" unicode="&#x1e84;" horiz-adv-x="2052" 
d="M1663 1434h369l-445 -1434h-319l-242 858l-242 -858h-321l-443 1434h367l248 -942l266 942h250l264 -942zM791 1896q66 0 112.5 -46.5t46.5 -112.5t-46.5 -113t-112.5 -47t-113 47t-47 113t47 112.5t113 46.5zM1257 1896q67 0 114.5 -46.5t47.5 -112.5t-47.5 -113
t-114.5 -47q-66 0 -112.5 47t-46.5 113t46.5 112.5t112.5 46.5z" />
    <glyph glyph-name="wdieresis" unicode="&#x1e85;" horiz-adv-x="1652" 
d="M1280 1038h352l-348 -1038h-266l-191 559l-190 -559h-266l-351 1038h355l153 -581l195 581h209l194 -581zM592 1487q66 0 113 -47t47 -113t-47 -113t-113 -47t-113 47t-47 113t47 113t113 47zM1059 1487q67 0 114.5 -47t47.5 -113t-47.5 -113t-114.5 -47q-66 0 -113 47
t-47 113t47 113t113 47z" />
    <glyph glyph-name="Ygrave" unicode="&#x1ef2;" horiz-adv-x="1425" 
d="M1405 1434l-516 -895v-539h-352v539l-517 895h377l316 -611l315 611h377zM729 1878l133 -287h-264l-199 287h330z" />
    <glyph glyph-name="ygrave" unicode="&#x1ef3;" horiz-adv-x="1169" 
d="M795 1038h354l-569 -1433h-338l190 456l-412 977h353l209 -592zM600 1468l133 -286h-264l-199 286h330z" />
    <glyph glyph-name="endash" unicode="&#x2013;" horiz-adv-x="1011" 
d="M123 756h766v-293h-766v293z" />
    <glyph glyph-name="emdash" unicode="&#x2014;" horiz-adv-x="1120" 
d="M123 756h874v-293h-874v293z" />
    <glyph glyph-name="quoteleft" unicode="&#x2018;" horiz-adv-x="589" 
d="M303 895l-221 127l260 418l166 -94z" />
    <glyph glyph-name="quoteright" unicode="&#x2019;" horiz-adv-x="589" 
d="M287 1440l221 -127l-260 -418l-166 94z" />
    <glyph glyph-name="quotesinglbase" unicode="&#x201a;" horiz-adv-x="530" 
d="M225 307l224 -129l-263 -418l-166 97z" />
    <glyph glyph-name="quotedblleft" unicode="&#x201c;" horiz-adv-x="1036" 
d="M303 895l-221 127l260 418l166 -94zM750 895l-222 127l260 418l166 -94z" />
    <glyph glyph-name="quotedblright" unicode="&#x201d;" horiz-adv-x="1036" 
d="M733 1440l221 -127l-260 -418l-166 94zM82 989l205 451l221 -127l-260 -418z" />
    <glyph glyph-name="quotedblbase" unicode="&#x201e;" horiz-adv-x="976" 
d="M672 307l223 -129l-262 -418l-166 97zM20 -143l205 450l221 -129l-260 -418z" />
    <glyph glyph-name="dagger" unicode="&#x2020;" horiz-adv-x="1054" 
d="M932 1159v-291h-238v-868h-334v868h-237v291h237v275h334v-275h238z" />
    <glyph glyph-name="daggerdbl" unicode="&#x2021;" horiz-adv-x="1054" 
d="M932 868h-238v-303h238v-293h-238v-272h-332v272h-239v293h239v303h-239v291h239v275h332v-275h238v-291z" />
    <glyph glyph-name="bullet" unicode="&#x2022;" horiz-adv-x="733" 
d="M367 909q109 0 186.5 -77t77.5 -187q0 -109 -77.5 -185.5t-186.5 -76.5t-187 77t-78 185q0 110 78 187t187 77z" />
    <glyph glyph-name="ellipsis" unicode="&#x2026;" horiz-adv-x="1597" 
d="M266 342q75 0 130 -54.5t55 -129.5q0 -76 -55 -130.5t-130 -54.5q-76 0 -130 54t-54 131q0 75 54 129.5t130 54.5zM799 342q75 0 129.5 -54.5t54.5 -129.5q0 -76 -54.5 -130.5t-129.5 -54.5q-77 0 -131 54.5t-54 130.5q0 75 54.5 129.5t130.5 54.5zM1331 342
q75 0 130 -54.5t55 -129.5q0 -76 -55 -130.5t-130 -54.5q-76 0 -130 54t-54 131q0 75 54 129.5t130 54.5z" />
    <glyph glyph-name="perthousand" unicode="&#x2030;" horiz-adv-x="2654" 
d="M1272 1434h201l-947 -1434h-200zM803 1081q0 -149 -106 -254.5t-255 -105.5t-254.5 105.5t-105.5 254.5t105.5 255t254.5 106t255 -106t106 -255zM299 1081q0 -59 42.5 -101t100.5 -42t100 42t42 101t-42 100.5t-100 41.5q-59 0 -101 -42t-42 -100zM1356 713
q149 0 254.5 -106t105.5 -255t-105.5 -254.5t-254.5 -105.5t-255 105.5t-106 254.5t106 255t255 106zM1356 211q58 0 99.5 41.5t41.5 99.5q0 59 -41.5 100.5t-99.5 41.5t-100 -42t-42 -100t41.5 -99.5t100.5 -41.5zM2212 713q149 0 254.5 -106t105.5 -255t-105.5 -254.5
t-254.5 -105.5t-255 105.5t-106 254.5t106 255t255 106zM2212 211q59 0 101 41.5t42 99.5t-42 100t-101 42q-58 0 -99.5 -41.5t-41.5 -100.5q0 -58 41.5 -99.5t99.5 -41.5z" />
    <glyph glyph-name="guilsinglleft" unicode="&#x2039;" horiz-adv-x="737" 
d="M655 877l-245 -363l245 -362h-327l-246 362l246 363h327z" />
    <glyph glyph-name="guilsinglright" unicode="&#x203a;" horiz-adv-x="739" 
d="M410 877l247 -363l-247 -362h-328l248 362l-248 363h328z" />
    <glyph glyph-name="fraction" unicode="&#x2044;" horiz-adv-x="1048" 
d="M674 1630h293l-592 -1829h-293z" />
    <glyph glyph-name="Euro" unicode="&#x20ac;" horiz-adv-x="1531" 
d="M911 311q186 0 287 133l293 -192q-99 -131 -249 -205t-331 -74q-264 0 -454.5 151t-249.5 396h-166v148h143v49v49h-143v145h166q59 246 249.5 396.5t454.5 150.5q181 0 331 -73t249 -203l-293 -193q-102 131 -287 131q-120 0 -205 -56.5t-128 -152.5h378v-145h-419
q-2 -16 -2 -49t2 -49h419v-148h-378q44 -95 129 -152t204 -57z" />
    <glyph glyph-name="ruble" unicode="&#x20bd;" horiz-adv-x="1423" 
d="M793 424h-183v-98h369v-146h-369v-180h-350v180h-178v146h178v98h-178v313h178v697h533q266 0 417.5 -140t151.5 -374q0 -123 -44.5 -219.5t-123 -156t-180 -90t-221.5 -30.5zM610 1102v-365h183q99 0 157 46t58 137q0 84 -57 133t-158 49h-183z" />
    <glyph glyph-name="bitcoin" unicode="&#x20bf;" horiz-adv-x="1286" 
d="M1225 436q0 -162 -83 -271t-255 -147v-245h-164v227h-27h-121v-227h-163v227h-289v1434h289v225h163v-225h68q26 0 80 -4v229h164v-258q137 -42 207.5 -135.5t70.5 -227.5q0 -190 -151 -280v-6q211 -92 211 -316zM813 1001q0 77 -48 116.5t-140 39.5h-152v-311h152
q93 0 140.5 42t47.5 113zM680 293q90 0 139 42.5t49 115.5q0 74 -48.5 114.5t-139.5 40.5h-207v-313h207z" />
    <glyph glyph-name="afii61352" unicode="&#x2116;" horiz-adv-x="2285" 
d="M989 598v836h352v-1434h-307l-561 836v-836h-350v1434h307zM1868 760q-139 0 -237.5 99t-98.5 237q0 140 98.5 239t237.5 99t237.5 -99t98.5 -239q0 -138 -98.5 -237t-237.5 -99zM1868 1214q-49 0 -83 -34t-34 -84q0 -48 34 -82.5t83 -34.5t83 34.5t34 82.5q0 50 -34 84
t-83 34zM1554 354v275h627v-275h-627z" />
    <glyph glyph-name="minus" unicode="&#x2212;" horiz-adv-x="903" 
d="M123 756h657v-293h-657v293z" />
    <glyph glyph-name="approxequal" unicode="&#x2248;" horiz-adv-x="1206" 
d="M414 758q-72 0 -86 -84l-226 49q24 129 89.5 200.5t191.5 71.5q68 0 142 -22t139 -44t112 -22q69 0 86 80l242 -51q-42 -272 -258 -272q-72 0 -154 23.5t-155 47t-123 23.5zM795 467q71 0 84 80l225 -51q-42 -273 -258 -273q-72 0 -149.5 23.5t-146 47t-118.5 23.5
q-72 0 -86 -84l-244 50q24 129 89.5 200.5t191.5 71.5q86 0 223 -44t189 -44z" />
    <glyph glyph-name="notequal" unicode="&#x2260;" horiz-adv-x="1011" 
d="M889 700h-264l-78 -182h342v-254h-453l-65 -155h-162l65 155h-151v254h262l78 182h-340v256h450l68 154h162l-68 -154h154v-256z" />
    <glyph glyph-name="lessequal" unicode="&#x2264;" horiz-adv-x="1013" 
d="M123 0v254h768v-254h-768zM891 1253v-272l-516 -152l516 -151v-272l-768 290v267z" />
    <glyph glyph-name="greaterequal" unicode="&#x2265;" horiz-adv-x="1011" 
d="M123 254h766v-254h-766v254zM889 963v-267l-766 -290v272l516 151l-516 152v272z" />
    <glyph glyph-name="commaaccent" unicode="&#xf6c3;" horiz-adv-x="651" 
d="M236 -147h292l-166 -306h-239z" />
    </font>
</defs>
</svg>
