<svg width="109" height="280" viewBox="0 0 109 280" fill="none" xmlns="http://www.w3.org/2000/svg">
<g clip-path="url(#clip0_2481_8174)">
<ellipse cx="14.4872" cy="7.63636" rx="7.48565" ry="7.63636" fill="#6F2F90"/>
<ellipse cx="43.3209" cy="7.63636" rx="7.48565" ry="7.63636" fill="#6F2F90"/>
<ellipse cx="72.1545" cy="7.63636" rx="7.48565" ry="7.63636" fill="#6F2F90"/>
<ellipse cx="100.988" cy="7.63636" rx="7.48565" ry="7.63636" fill="#6F2F90"/>
<ellipse cx="14.4872" cy="37.0504" rx="7.48565" ry="7.63636" fill="#6F2F90"/>
<ellipse cx="43.3209" cy="37.0504" rx="7.48565" ry="7.63636" fill="#6F2F90"/>
<ellipse cx="72.1545" cy="37.0504" rx="7.48565" ry="7.63636" fill="#6F2F90"/>
<ellipse cx="100.988" cy="37.0504" rx="7.48565" ry="7.63636" fill="#6F2F90"/>
<ellipse cx="14.4872" cy="66.4645" rx="7.48565" ry="7.63636" fill="#6F2F90"/>
<ellipse cx="43.3209" cy="66.4645" rx="7.48565" ry="7.63636" fill="#6F2F90"/>
<ellipse cx="72.1544" cy="66.4645" rx="7.48565" ry="7.63636" fill="#6F2F90"/>
<ellipse cx="100.988" cy="66.4645" rx="7.48565" ry="7.63636" fill="#6F2F90"/>
<ellipse cx="14.4872" cy="95.8785" rx="7.48565" ry="7.63636" fill="#6F2F90"/>
<ellipse cx="43.3209" cy="95.8785" rx="7.48565" ry="7.63636" fill="#6F2F90"/>
<ellipse cx="72.1544" cy="95.8785" rx="7.48565" ry="7.63636" fill="#6F2F90"/>
<ellipse cx="100.988" cy="95.8785" rx="7.48565" ry="7.63636" fill="#6F2F90"/>
<ellipse cx="14.4872" cy="125.293" rx="7.48565" ry="7.63636" fill="#6F2F90"/>
<ellipse cx="43.3209" cy="125.293" rx="7.48565" ry="7.63636" fill="#6F2F90"/>
<ellipse cx="72.1544" cy="125.293" rx="7.48565" ry="7.63636" fill="#6F2F90"/>
<ellipse cx="100.988" cy="125.293" rx="7.48565" ry="7.63636" fill="#6F2F90"/>
<ellipse cx="14.4872" cy="154.707" rx="7.48565" ry="7.63636" fill="#6F2F90"/>
<ellipse cx="43.3209" cy="154.707" rx="7.48565" ry="7.63636" fill="#6F2F90"/>
<ellipse cx="72.1545" cy="154.707" rx="7.48565" ry="7.63636" fill="#6F2F90"/>
<ellipse cx="100.988" cy="154.707" rx="7.48565" ry="7.63636" fill="#6F2F90"/>
<ellipse cx="14.4872" cy="184.121" rx="7.48565" ry="7.63636" fill="#6F2F90"/>
<ellipse cx="43.3209" cy="184.121" rx="7.48565" ry="7.63636" fill="#6F2F90"/>
<ellipse cx="72.1545" cy="184.121" rx="7.48565" ry="7.63636" fill="#6F2F90"/>
<ellipse cx="100.988" cy="184.121" rx="7.48565" ry="7.63636" fill="#6F2F90"/>
<ellipse cx="14.4872" cy="213.535" rx="7.48565" ry="7.63636" fill="#6F2F90"/>
<ellipse cx="43.3209" cy="213.535" rx="7.48565" ry="7.63636" fill="#6F2F90"/>
<ellipse cx="72.1545" cy="213.535" rx="7.48565" ry="7.63636" fill="#6F2F90"/>
<ellipse cx="100.988" cy="213.535" rx="7.48565" ry="7.63636" fill="#6F2F90"/>
<ellipse cx="14.4872" cy="242.949" rx="7.48565" ry="7.63636" fill="#6F2F90"/>
<ellipse cx="43.3209" cy="242.949" rx="7.48565" ry="7.63636" fill="#6F2F90"/>
<ellipse cx="72.1544" cy="242.949" rx="7.48565" ry="7.63636" fill="#6F2F90"/>
<ellipse cx="100.988" cy="242.949" rx="7.48565" ry="7.63636" fill="#6F2F90"/>
<ellipse cx="14.4872" cy="272.363" rx="7.48565" ry="7.63636" fill="#6F2F90"/>
<ellipse cx="43.3209" cy="272.363" rx="7.48565" ry="7.63636" fill="#6F2F90"/>
<ellipse cx="72.1544" cy="272.363" rx="7.48565" ry="7.63636" fill="#6F2F90"/>
<ellipse cx="100.988" cy="272.363" rx="7.48565" ry="7.63636" fill="#6F2F90"/>
</g>
<defs>
<clipPath id="clip0_2481_8174">
<rect width="274.474" height="280" fill="white" transform="translate(-166)"/>
</clipPath>
</defs>
</svg>
