<svg width="27" height="22" viewBox="0 0 27 22" fill="none" xmlns="http://www.w3.org/2000/svg">
<path d="M18.0771 22L15.4663 19.8067C15.9951 19.3119 16.5349 18.6033 17.0857 17.681C17.6585 16.7362 18.1652 15.7352 18.6059 14.6779C19.0465 13.6207 19.3219 12.6534 19.4321 11.7761C18.0441 11.4162 16.9425 10.7301 16.1273 9.71779C15.3121 8.68302 14.9045 7.44581 14.9045 6.00613C14.9045 4.22904 15.4663 2.78936 16.59 1.68711C17.7136 0.562372 19.1787 0 20.9853 0C22.814 0 24.2681 0.596114 25.3476 1.78834C26.4492 2.95808 27 4.56646 27 6.6135C27 9.08793 26.2069 11.6973 24.6206 14.4417C23.0343 17.1636 20.8531 19.683 18.0771 22ZM3.17258 22L0.594859 19.8067C1.12362 19.3119 1.6634 18.6033 2.2142 17.681C2.78703 16.7362 3.28274 15.7352 3.70135 14.6779C4.14198 13.6207 4.4284 12.6534 4.56059 11.7761C3.17258 11.4162 2.05998 10.7301 1.22277 9.71779C0.407589 8.68302 0 7.44581 0 6.00613C0 4.22904 0.561811 2.78936 1.68543 1.68711C2.80906 0.562372 4.27417 0 6.08078 0C7.90942 0 9.37454 0.596114 10.4761 1.78834C11.5777 2.95808 12.1285 4.56646 12.1285 6.6135C12.1285 9.08793 11.3354 11.6973 9.74908 14.4417C8.16279 17.1636 5.97062 19.683 3.17258 22Z" fill="#FFA77A"/>
</svg>
