<?xml version="1.0" encoding="UTF-8"?><svg id="Layer_1" xmlns="http://www.w3.org/2000/svg" viewBox="0 0 20 20"><defs><style>.cls-1{stroke-linejoin:round;}.cls-1,.cls-2{stroke-linecap:round;}.cls-1,.cls-2,.cls-3{fill:none;stroke:#2e2d2c;stroke-width:.61px;}.cls-2,.cls-3{stroke-miterlimit:10;}</style></defs><path class="cls-2" d="M8.17,4.9c-.06-.02-.15-.05-.23-.06-.08-.01-.19-.02-.28-.01-.09,0-.21,.02-.3,.04-.09,.02-.2,.06-.29,.11-.09,.04-.18,.11-.25,.17-.07,.06-.14,.15-.18,.23-.04,.08-.07,.18-.07,.27,0,.09,.01,.2,.05,.29,.04,.1,.11,.2,.19,.29,.09,.09,.2,.19,.33,.27,.13,.08,.3,.16,.47,.21,.17,.06,.37,.1,.57,.13,.2,.03,.42,.04,.64,.03,.22,0,.45-.04,.66-.09,.21-.05,.43-.12,.62-.2,.19-.09,.38-.19,.53-.32,.15-.12,.29-.26,.39-.41,.1-.15,.17-.31,.2-.48,.03-.16,.03-.34-.01-.51-.04-.17-.12-.34-.23-.51-.11-.16-.27-.32-.45-.47-.18-.14-.4-.28-.65-.39-.24-.11-.52-.21-.81-.28-.29-.07-.61-.12-.93-.15-.32-.02-.66-.02-.99,0-.33,.03-.67,.08-.98,.17-.32,.08-.63,.19-.91,.33-.28,.14-.55,.3-.78,.48-.23,.18-.43,.39-.58,.61-.15,.22-.26,.47-.32,.71-.06,.25-.06,.51-.01,.77,.05,.26,.16,.53,.32,.78,.17,.25,.39,.5,.66,.72,.28,.22,.61,.43,.98,.61,.37,.18,.79,.32,1.24,.43,.45,.11,.93,.18,1.42,.21,.49,.03,1,.02,1.49-.04,.49-.06,.98-.16,1.44-.3,.46-.14,.89-.33,1.27-.54,.38-.22,.72-.47,1-.75,.27-.28,.49-.58,.64-.9,.15-.32,.23-.65,.24-.98,0-.33-.05-.67-.19-.99-.13-.32-.33-.64-.59-.94-.26-.29-.58-.57-.96-.82-.37-.25-.8-.47-1.27-.65-.46-.18-.97-.33-1.5-.44-.53-.11-1.08-.18-1.65-.2-.56-.02-1.14,0-1.7,.06-.57,.07-1.13,.17-1.66,.33-.54,.15-1.05,.35-1.52,.59-.47,.24-.9,.52-1.27,.83-.37,.32-.69,.66-.93,1.04-.24,.38-.41,.78-.5,1.19-.08,.42-.09,.85,0,1.28,.1,.43,.28,.87,.56,1.28,.28,.42,.66,.82,1.12,1.18,.47,.37,1.02,.7,1.64,.98,.62,.28,1.32,.51,2.05,.68,.74,.17,1.85,.3,2.65,.3h10.96"/><path class="cls-1" d="M.48,5.73v7.88c0,.22,.02,.43,.07,.65,.1,.43,.28,.87,.56,1.28,.28,.42,.66,.82,1.12,1.18,.47,.37,1.02,.7,1.64,.98,.62,.28,1.32,.51,2.05,.68,.74,.17,1.85,.3,2.65,.3h10.96v-7.61"/><line class="cls-3" x1="14.28" y1="5.37" x2="14.28" y2="10.15"/><line class="cls-2" x1="17.07" y1="15.53" x2="17.07" y2="18.68"/><line class="cls-2" x1="14.61" y1="13.61" x2="14.61" y2="18.68"/><line class="cls-2" x1="12.15" y1="15.53" x2="12.15" y2="18.68"/><line class="cls-2" x1="9.69" y1="13.61" x2="9.69" y2="18.68"/><line class="cls-2" x1="7.24" y1="15.45" x2="7.24" y2="18.6"/><line class="cls-2" x1="4.78" y1="12.98" x2="4.78" y2="18.05"/><line class="cls-2" x1="2.32" y1="13.61" x2="2.32" y2="16.76"/></svg>