<?xml version="1.0" standalone="no"?> <!DOCTYPE svg PUBLIC "-//W3C//DTD SVG 1.0//EN" "http://www.w3.org/TR/2001/REC-SVG-20010904/DTD/svg10.dtd" > <svg xmlns="http://www.w3.org/2000/svg" width="100%" height="100%">
<defs >
<font horiz-adv-x="1362" ><font-face
    font-family="Spartan"
    units-per-em="2000"
    panose-1="0 0 0 0 0 0 0 0 0 0"
    ascent="1720"
    descent="-520"
    alphabetic="0" />
<missing-glyph horiz-adv-x="684" />
<glyph unicode=" " glyph-name="space" horiz-adv-x="514" />
<glyph unicode="!" glyph-name="exclam" horiz-adv-x="734" d="M310 397H424L438 1720H296L310 397ZM367 -32Q409 -32 439 -2T469 71Q469 113 439 143T367 173Q324 173 294 143T264 71Q264 28 294 -2T367 -32Z" />
<glyph unicode="&quot;" glyph-name="quotedbl" horiz-adv-x="874" d="M503 1243H601L629 1659H475L503 1243ZM272 1243H371L398 1659H245L272 1243Z" />
<glyph unicode="#" glyph-name="numbersign" horiz-adv-x="1442" d="M324 0H423L479 421H880L824 0H923L979 421H1247V520H991L1048 931H1247V1030H1061L1117 1453H1018L961 1030H560L618 1453H518L462 1030H195V931H450L393 520H195V421H380L324 0ZM491 520L548
931H949L893 520H491Z" />
<glyph unicode="$" glyph-name="dollar" horiz-adv-x="1486" d="M724 -276H821V-25Q958 -13 1059 48T1216 208T1272 437Q1272 577 1207 666T1030 816T775 933Q692 966 617 1003T495 1096T448 1243Q448 1326 488 1393T600 1501T765 1541Q873 1541 968 1490T1111
1358L1189 1465Q1138 1549 1037 1608T821 1677V1926H724V1676Q600 1668 505 1607T357 1450T303 1237Q303 1122 354 1046T490 919T677 825Q792 779 891 732T1051 616T1112 431Q1112 333 1066 261T940 150T759 111Q662 111 569 147T399 247T278 396L191 286Q217 226
273 170T403 69T561 -2T724 -30V-276Z" />
<glyph unicode="%" glyph-name="percent" horiz-adv-x="2191" d="M598 892Q714 892 807 942T954 1081T1008 1286Q1008 1402 954 1491T807 1630T598 1680Q482 1680 389 1630T242 1491T187 1286Q187 1170 241 1081T389 942T598 892ZM556 0H669L1629 1650H1516L556
0ZM598 993Q473 993 390 1075T307 1286Q307 1415 390 1497T598 1579Q681 1579 747 1542T852 1439T890 1286Q890 1200 852 1134T747 1031T598 993ZM1592 -31Q1708 -31 1801 19T1948 158T2003 363Q2003 479 1949 568T1801 707T1592 757Q1477 757 1384 707T1236 568T1181
363Q1181 247 1235 158T1383 19T1592 -31ZM1592 69Q1509 69 1443 106T1339 210T1301 363Q1301 449 1339 515T1443 618T1592 656Q1717 656 1800 574T1883 363Q1883 277 1845 211T1742 107T1592 69Z" />
<glyph unicode="&amp;" glyph-name="ampersand" horiz-adv-x="1797" d="M683 -32Q835 -32 975 37T1238 237L1453 0H1642L1345 324Q1395 381 1450 458T1545 599L1449 679Q1435 658 1399 608T1321 505T1250 422L806 904Q977 988 1065 1081T1153 1311Q1153 1414 1105
1498T970 1631T762 1681Q651 1681 562 1636T419 1509T366 1318Q366 1224 416 1137T590 926Q195 741 195 413Q195 272 261 173T437 21T683 -32ZM723 991Q643 1067 598 1122T534 1223T515 1319Q515 1427 586 1496T767 1566Q874 1566 947 1497T1021 1314Q1021 1200
943 1131T723 991ZM697 109Q606 109 529 146T404 254T357 429Q357 558 438 664T673 841L1141 340Q1039 228 926 169T697 109Z" />
<glyph unicode="&apos;" glyph-name="quotesingle" horiz-adv-x="643" d="M272 1243H371L398 1659H245L272 1243Z" />
<glyph unicode="(" glyph-name="parenleft" horiz-adv-x="752" d="M537 -520L632 -479Q558 -369 484 -207T361 163T311 614Q311 859 360 1066T483 1436T632 1709L537 1750Q476 1672 411 1558T291 1299T201 981T167 614Q167 420 201 248T290 -69T411 -328T537 -520Z" />
<glyph unicode=")" glyph-name="parenright" horiz-adv-x="752" d="M215 -520Q400 -278 491 16T582 615Q582 931 487 1224T215 1750L119 1709Q281 1468 360 1184T440 614Q440 317 357 34T119 -479L215 -520Z" />
<glyph unicode="*" glyph-name="asterisk" horiz-adv-x="919" d="M352 1284L458 1428L567 1284L620 1322L516 1471L690 1529L669 1594L495 1539V1720H423V1539L250 1594L229 1529L402 1471L298 1322L352 1284Z" />
<glyph unicode="+" glyph-name="plus" horiz-adv-x="1432" d="M652 316H779V766H1228V892H779V1341H652V892H204V766H652V316Z" />
<glyph unicode="," glyph-name="comma" horiz-adv-x="726" d="M313 -243Q381 -189 427 -106T473 52Q473 111 443 142T365 173Q319 173 290 145T261 72Q261 35 285 8T346 -26Q342 -78 322 -129T275 -211L313 -243Z" />
<glyph unicode="-" glyph-name="hyphen" horiz-adv-x="1075" d="M215 517H859V642H215V517Z" />
<glyph unicode="." glyph-name="period" horiz-adv-x="763" d="M381 -32Q424 -32 453 -2T483 71Q483 113 454 143T381 173Q339 173 309 143T279 71Q279 28 309 -2T381 -32Z" />
<glyph unicode="/" glyph-name="slash" horiz-adv-x="1041" d="M49 -240H168L992 1720H873L49 -240Z" />
<glyph unicode="0" glyph-name="zero" horiz-adv-x="1687" d="M844 -32Q1046 -32 1197 75T1432 375T1517 824Q1517 1080 1433 1272T1197 1572T844 1680Q643 1680 492 1573T256 1273T171 824Q171 568 255 376T491 76T844 -32ZM844 105Q690 105 575 194T396 445T332
824Q332 1042 395 1203T574 1454T844 1543Q998 1543 1113 1454T1292 1204T1356 824Q1356 607 1292 445T1113 194T844 105Z" />
<glyph unicode="1" glyph-name="one" horiz-adv-x="701" d="M291 0H443V1650H135V1500H291V0Z" />
<glyph unicode="2" glyph-name="two" horiz-adv-x="1453" d="M126 0H1295V143H435Q680 334 841 477T1094 731T1226 940T1265 1137Q1265 1292 1191 1415T991 1609T710 1681Q561 1681 439 1614T241 1430T149 1165L286 1119Q297 1240 354 1334T503 1483T703 1537Q813
1537 903 1483T1046 1338T1100 1135Q1100 1047 1055 953T901 740T603 459T126 71V0Z" />
<glyph unicode="3" glyph-name="three" horiz-adv-x="1338" d="M648 -32Q807 -32 921 29T1097 195T1159 434Q1159 592 1077 702T875 852Q991 898 1061 1003T1132 1237Q1132 1361 1071 1461T905 1621T669 1680Q549 1680 448 1628T283 1484T209 1274L337 1231Q341
1320 386 1392T505 1507T667 1550Q755 1550 827 1509T944 1396T988 1234Q988 1144 943 1068T820 947T646 901H591V786Q620 794 654 794Q750 794 829 746T955 615T1002 430Q1002 287 906 198T648 108Q538 108 452 150T317 269T265 446L119 395Q132 268 202 172T387
22T648 -32Z" />
<glyph unicode="4" glyph-name="four" horiz-adv-x="1351" d="M888 0H1033V318H1225V452H1033V1650H882L61 386V318H888V0ZM259 452L888 1439V452H259Z" />
<glyph unicode="5" glyph-name="five" horiz-adv-x="1452" d="M706 -31Q866 -31 999 30T1214 215T1295 520Q1295 675 1233 793T1060 981T805 1063Q579 1092 389 972L473 1516H1189V1650H347L212 782Q400 975 649 975Q792 975 904 919T1081 760T1146 515Q1146 387
1092 293T939 147T708 96Q545 96 422 174T249 387L128 327Q170 215 255 135T456 12T706 -31Z" />
<glyph unicode="6" glyph-name="six" horiz-adv-x="1453" d="M730 -32Q900 -32 1031 40T1236 240T1311 532Q1311 698 1238 826T1042 1026T772 1099Q654 1099 548 1042L1058 1650H873L324 995Q244 898 194 772T144 526Q144 417 184 317T301 139T485 14T730 -32ZM725
98Q595 98 499 156T351 311T298 523Q298 648 357 748T515 907T736 966Q854 966 950 910T1104 754T1161 529Q1161 405 1105 308T950 154T725 98Z" />
<glyph unicode="7" glyph-name="seven" horiz-adv-x="1264" d="M116 0H296L1168 1599V1650H131V1516H944L116 0Z" />
<glyph unicode="8" glyph-name="eight" horiz-adv-x="1376" d="M688 -32Q839 -32 957 30T1143 199T1212 439Q1212 589 1128 706T901 877Q1015 929 1082 1031T1149 1259Q1149 1383 1086 1477T917 1626T688 1680Q557 1680 453 1625T288 1474T227 1258Q227 1134 293
1032T474 877Q333 825 249 707T164 440Q164 306 232 199T419 30T688 -32ZM688 937Q598 937 527 977T415 1088T374 1248Q374 1337 415 1408T527 1520T688 1561Q778 1561 849 1520T961 1408T1002 1248Q1002 1159 961 1089T849 978T688 937ZM688 102Q583 102 502 148T374
273T328 453Q328 555 375 634T504 759T688 804Q792 804 873 759T1001 634T1048 452Q1048 352 1002 273T875 148T688 102Z" />
<glyph unicode="9" glyph-name="nine" horiz-adv-x="1453" d="M395 0H580L1128 655Q1214 759 1261 868T1308 1114Q1308 1276 1233 1404T1026 1606T721 1681Q549 1681 419 1607T215 1407T142 1120Q142 956 216 828T416 625T694 551Q821 551 916 620L395 0ZM726
687Q603 687 506 744T352 900T295 1122Q295 1245 351 1341T504 1492T726 1547Q850 1547 945 1492T1096 1342T1151 1122Q1151 1003 1094 904T940 746T726 687Z" />
<glyph unicode=":" glyph-name="colon" horiz-adv-x="732" d="M364 919Q407 919 437 948T467 1021Q467 1064 437 1094T364 1124Q322 1124 292 1094T262 1021Q262 978 292 949T364 919ZM364 -32Q407 -32 437 -2T467 71Q467 113 437 143T364 173Q322 173 292 143T262
71Q262 28 292 -2T364 -32Z" />
<glyph unicode=";" glyph-name="semicolon" horiz-adv-x="724" d="M364 919Q407 919 437 948T467 1021Q467 1064 437 1094T364 1124Q322 1124 292 1094T262 1021Q262 978 292 949T364 919ZM313 -243Q381 -189 427 -106T473 52Q473 111 443 142T365 173Q319 173
290 145T261 72Q261 35 285 8T346 -26Q342 -78 322 -129T275 -211L313 -243Z" />
<glyph unicode="&lt;" glyph-name="less" horiz-adv-x="1506" d="M1284 270V393L346 832L1284 1271V1394L190 880V784L1284 270Z" />
<glyph unicode="=" glyph-name="equal" horiz-adv-x="1670" d="M323 967H1348V1093H323V967ZM323 566H1348V692H323V566Z" />
<glyph unicode="&gt;" glyph-name="greater" horiz-adv-x="1506" d="M222 270L1316 784V880L222 1394V1271L1160 832L222 393V270Z" />
<glyph unicode="?" glyph-name="question" horiz-adv-x="1334" d="M549 421H684V693Q826 700 933 767T1100 944T1160 1186Q1160 1325 1094 1436T913 1614T646 1680Q515 1680 406 1626T228 1466T151 1208L278 1189Q283 1354 383 1450T649 1546Q814 1546 917 1452T1020
1187Q1020 1011 910 914T627 817Q605 817 587 819T549 824V421ZM615 -32Q658 -32 688 -2T718 71Q718 113 688 143T615 173Q573 173 543 143T513 71Q513 28 543 -2T615 -32Z" />
<glyph unicode="@" glyph-name="at" horiz-adv-x="2119" d="M1069 -383Q1284 -383 1447 -297T1705 -78L1599 -14Q1523 -114 1388 -187T1070 -260Q911 -260 779 -203T550 -45T400 189T347 473Q347 629 402 764T557 1000T791 1158T1084 1215Q1218 1215 1346 1171T1578
1038T1743 814T1805 497Q1805 347 1763 262T1649 177Q1590 177 1556 222T1522 346V925H1416V721Q1361 828 1258 891T1025 954Q892 954 786 890T619 714T557 458Q557 314 618 202T785 26T1023 -38Q1158 -38 1262 29T1421 206Q1448 154 1505 117T1635 80Q1725 80
1786 140T1877 299T1908 511Q1908 711 1839 863T1651 1119T1383 1276T1075 1329Q895 1329 740 1265T467 1084T284 810T218 469Q218 289 281 134T460 -137T731 -318T1069 -383ZM1045 63Q937 63 853 113T720 253T671 458Q671 575 720 664T854 805T1046 856Q1154 856
1238 805T1371 665T1420 458Q1420 343 1372 254T1239 114T1045 63Z" />
<glyph unicode="A" glyph-name="A" horiz-adv-x="1657" d="M108 0H271L474 526H1183L1384 0H1548L899 1650H758L108 0ZM525 660L828 1450L1131 660H525Z" />
<glyph unicode="B" glyph-name="B" horiz-adv-x="1297" d="M199 0H685Q927 0 1064 117T1202 442Q1202 618 1102 727T818 861Q1056 960 1056 1233Q1056 1436 923 1543T548 1650H199V0ZM351 908V1529H521Q709 1529 810 1449T911 1218Q911 1069 810 989T521 908H351ZM351
124V774H645Q836 774 941 688T1047 446Q1047 292 943 208T645 124H351Z" />
<glyph unicode="C" glyph-name="C" horiz-adv-x="1608" d="M989 -32Q1146 -32 1281 14T1520 138L1448 265Q1360 194 1244 156T998 118Q841 118 711 172T484 322T336 547T283 824Q283 973 335 1101T484 1325T710 1476T998 1530Q1128 1530 1244 1492T1448 1383L1520
1510Q1416 1589 1280 1634T989 1680Q803 1680 645 1615T368 1434T183 1161T117 824Q117 643 183 487T367 215T644 33T989 -32Z" />
<glyph unicode="D" glyph-name="D" horiz-adv-x="1638" d="M269 0H641Q817 0 968 62T1233 237T1410 500T1473 824Q1473 998 1410 1148T1233 1411T968 1587T641 1650H269V0ZM421 136V1514H627Q772 1514 897 1462T1115 1315T1261 1096T1313 825Q1313 679 1261 554T1116
335T897 189T627 136H421Z" />
<glyph unicode="E" glyph-name="E" horiz-adv-x="1276" d="M269 0H1100V134H421V760H1076V894H421V1516H1100V1650H269V0Z" />
<glyph unicode="F" glyph-name="F" horiz-adv-x="1244" d="M269 0H421V760H1058V894H421V1516H1104V1650H269V0Z" />
<glyph unicode="G" glyph-name="G" horiz-adv-x="1893" d="M982 -32Q1117 -32 1251 12T1495 144T1672 364T1738 671V818H974V695H1582V638Q1582 517 1532 419T1396 251T1204 144T985 107Q847 107 729 161T521 314T383 544T333 829Q333 971 377 1099T506 1328T713
1487T992 1545Q1155 1545 1297 1481T1533 1309L1612 1425Q1504 1540 1345 1610T994 1680Q799 1680 646 1610T387 1418T226 1143T170 824Q170 645 232 490T404 217T662 34T982 -32Z" />
<glyph unicode="H" glyph-name="H" horiz-adv-x="1742" d="M269 0H421V760H1322V0H1473V1650H1322V894H421V1650H269V0Z" />
<glyph unicode="I" glyph-name="I" horiz-adv-x="689" d="M269 0H421V1650H269V0Z" />
<glyph unicode="J" glyph-name="J" horiz-adv-x="1262" d="M519 -32Q751 -32 881 99T1011 464V1650H860V510Q860 321 767 217T505 113Q332 113 200 248L140 121Q299 -32 519 -32Z" />
<glyph unicode="K" glyph-name="K" horiz-adv-x="1507" d="M269 0H421V749L1223 0H1437L553 833L1353 1650H1161L421 894V1650H269V0Z" />
<glyph unicode="L" glyph-name="L" horiz-adv-x="1223" d="M269 0H1112V134H421V1650H269V0Z" />
<glyph unicode="M" glyph-name="M" horiz-adv-x="2071" d="M175 0H327L510 1367L981 101H1090L1561 1367L1744 0H1896L1682 1650H1521L1035 359L550 1650H389L175 0Z" />
<glyph unicode="N" glyph-name="N" horiz-adv-x="1728" d="M269 0H421V1389L1307 0H1459V1650H1307V259L421 1650H269V0Z" />
<glyph unicode="O" glyph-name="O" horiz-adv-x="2000" d="M1000 -32Q1173 -32 1324 34T1589 217T1767 490T1832 824Q1832 1003 1768 1158T1589 1430T1324 1614T1000 1680Q827 1680 676 1614T411 1431T233 1158T168 824Q168 646 232 491T411 218T676 34T1000 -32ZM1000
115Q859 115 738 169T525 320T382 546T331 824Q331 973 382 1102T524 1328T737 1479T1000 1533Q1141 1533 1262 1479T1474 1328T1617 1102T1668 824Q1668 675 1617 546T1475 320T1262 169T1000 115Z" />
<glyph unicode="P" glyph-name="P" horiz-adv-x="1369" d="M269 0H421V699H697Q859 699 977 760T1160 930T1224 1184Q1224 1402 1082 1526T697 1650H269V0ZM421 827V1526H661Q846 1526 957 1436T1068 1180Q1068 1017 957 922T661 827H421Z" />
<glyph unicode="Q" glyph-name="Q" horiz-adv-x="1981" d="M1782 -54L1849 83Q1779 106 1705 141T1553 221Q1672 336 1736 492T1801 823Q1801 1002 1737 1157T1559 1430T1295 1614T970 1680Q796 1680 645 1614T380 1430T201 1156T137 819Q137 638 200 483T375
213T639 33T967 -32Q1239 -32 1450 120Q1534 65 1617 22T1782 -54ZM966 115Q823 115 702 167T490 315T350 539T300 819Q300 971 351 1100T493 1327T706 1479T970 1533Q1111 1533 1232 1479T1444 1329T1585 1103T1636 823Q1636 669 1579 533T1414 300Q1235 421 1088
571L1020 491Q1085 418 1160 350T1317 221Q1163 115 966 115Z" />
<glyph unicode="R" glyph-name="R" horiz-adv-x="1398" d="M269 0H421V695H609L1135 0H1328L779 709Q984 731 1104 858T1224 1184Q1224 1402 1082 1526T697 1650H269V0ZM421 827V1526H661Q852 1526 960 1434T1068 1180Q1068 1017 959 922T661 827H421Z" />
<glyph unicode="S" glyph-name="S" horiz-adv-x="1367" d="M681 -32Q831 -32 950 22T1139 181T1209 433Q1209 547 1168 626T1057 760T897 856T711 933Q634 961 559 995T434 1086T384 1237Q384 1314 421 1383T529 1497T703 1541Q825 1541 915 1484T1048 1358L1126
1463Q1092 1516 1030 1565T884 1647T702 1680Q565 1680 461 1619T298 1458T239 1237Q239 1141 274 1073T367 958T489 879T615 824Q730 781 829 735T988 617T1049 428Q1049 323 999 252T867 145T684 109Q579 109 499 142T362 224T269 320T214 396L127 284Q143 257
183 206T292 100T456 7T681 -32Z" />
<glyph unicode="T" glyph-name="T" horiz-adv-x="1382" d="M615 0H767V1512H1272V1650H112V1512H615V0Z" />
<glyph unicode="U" glyph-name="U" horiz-adv-x="1633" d="M817 -32Q1389 -32 1389 591V1650H1236V624Q1236 118 817 118Q397 118 397 624V1650H245V591Q245 -32 817 -32Z" />
<glyph unicode="V" glyph-name="V" horiz-adv-x="1717" d="M799 0H918L1610 1650H1438L859 229L279 1650H107L799 0Z" />
<glyph unicode="W" glyph-name="W" horiz-adv-x="2489" d="M610 0H782L1245 1351L1707 0H1878L2368 1650H2199L1788 198L1303 1650H1185L702 198L289 1650H120L610 0Z" />
<glyph unicode="X" glyph-name="X" horiz-adv-x="1652" d="M100 0H290L826 758L1361 0H1551L920 891L1453 1650H1270L826 1020L382 1650H198L732 891L100 0Z" />
<glyph unicode="Y" glyph-name="Y" horiz-adv-x="1480" d="M664 0H816V715L1384 1650H1200L740 877L280 1650H97L664 715V0Z" />
<glyph unicode="Z" glyph-name="Z" horiz-adv-x="1586" d="M111 0H1410V138H387L1465 1650H225V1512H1189L111 0Z" />
<glyph unicode="[" glyph-name="bracketleft" horiz-adv-x="787" d="M259 -520H678V-411H390V1611H678V1720H259V-520Z" />
<glyph unicode="\" glyph-name="backslash" horiz-adv-x="1041" d="M873 0H992L168 1720H49L873 0Z" />
<glyph unicode="]" glyph-name="bracketright" horiz-adv-x="787" d="M109 -520H529V1720H109V1611H398V-411H109V-520Z" />
<glyph unicode="^" glyph-name="asciicircum" horiz-adv-x="1264" d="M181 1210H311L632 1581L953 1210H1084L670 1681H595L181 1210Z" />
<glyph unicode="_" glyph-name="underscore" horiz-adv-x="1457" d="M215 -201H1241V-122H215V-201Z" />
<glyph unicode="`" glyph-name="grave" horiz-adv-x="364" d="M229 1158L305 1213L115 1592L0 1510L229 1158Z" />
<glyph unicode="a" glyph-name="a" horiz-adv-x="1437" d="M652 -32Q788 -32 899 34T1076 216V0H1222V1024H1076V811Q1018 926 905 991T652 1056Q506 1056 391 986T209 792T142 513Q142 355 209 232T392 39T652 -32ZM688 95Q574 95 485 149T344 297T293 512Q293
634 344 728T484 875T688 929Q803 929 892 876T1031 728T1082 512Q1082 391 1031 297T892 149T688 95Z" />
<glyph unicode="b" glyph-name="b" horiz-adv-x="1437" d="M786 -32Q930 -32 1045 38T1227 231T1295 512Q1295 669 1228 792T1046 985T783 1056Q646 1056 535 991T361 811V1720H215V0H361V216Q426 100 538 34T786 -32ZM750 95Q635 95 546 148T406 296T355 511Q355
633 406 727T546 875T750 929Q865 929 953 876T1093 728T1144 511Q1144 391 1094 297T954 149T750 95Z" />
<glyph unicode="c" glyph-name="c" horiz-adv-x="1143" d="M691 -32Q793 -32 883 -2T1040 81L979 179Q869 92 709 92Q584 92 489 147T339 297T285 512Q285 630 338 725T486 876T708 932Q867 932 980 845L1040 943Q974 996 883 1026T691 1056Q534 1056 408 985T209
790T136 512Q136 356 210 233T411 39T691 -32Z" />
<glyph unicode="d" glyph-name="d" horiz-adv-x="1437" d="M652 -32Q788 -32 899 34T1076 216V0H1222V1721H1076V811Q1013 926 902 991T654 1056Q507 1056 392 986T209 792T142 512Q142 354 209 231T392 38T652 -32ZM687 95Q572 95 483 149T344 297T293 511Q293
633 344 727T484 875T688 929Q803 929 891 876T1031 728T1082 511Q1082 390 1031 296T891 149T687 95Z" />
<glyph unicode="e" glyph-name="e" horiz-adv-x="1335" d="M695 -32Q848 -32 973 34T1172 219L1064 277Q936 89 701 89Q579 89 484 141T336 286T282 498H1204Q1206 509 1206 517T1207 536Q1203 689 1134 806T946 990T675 1056Q564 1056 467 1014T295 897T179 723T137
508Q137 355 209 233T408 39T695 -32ZM290 608Q303 705 356 778T493 893T677 935Q776 935 858 893T994 777T1061 608H290Z" />
<glyph unicode="f" glyph-name="f" horiz-adv-x="724" d="M236 0H382V914H643V1024H382V1395Q382 1500 421 1561T545 1622Q614 1622 661 1586L712 1690Q637 1750 520 1750Q382 1750 309 1657T236 1391V1024H133V914H236V0Z" />
<glyph unicode="g" glyph-name="g" horiz-adv-x="1438" d="M667 -550Q924 -550 1073 -416T1222 -28V1024H1076V811Q1014 926 903 991T655 1056Q508 1056 393 986T210 792T143 512Q143 354 210 231T393 38T652 -32Q789 -32 900 34T1076 216V-34Q1076 -157 1023
-245T877 -379T667 -426Q528 -426 419 -364T263 -195L140 -252Q273 -550 667 -550ZM687 95Q573 95 484 149T344 297T293 511Q293 633 344 727T484 875T688 929Q803 929 892 876T1032 728T1083 511Q1083 390 1032 296T892 149T687 95Z" />
<glyph unicode="h" glyph-name="h" horiz-adv-x="1286" d="M215 0H361V667Q361 739 396 800T499 900T660 938Q794 938 868 854T943 611V0H1089V639Q1089 837 987 946T706 1056Q579 1056 491 1006T361 884V1721H215V0Z" />
<glyph unicode="i" glyph-name="i" horiz-adv-x="577" d="M287 1229Q327 1229 355 1257T383 1325Q383 1365 355 1392T287 1420Q247 1420 220 1393T192 1325Q192 1285 219 1257T287 1229ZM214 0H360V1024H214V0Z" />
<glyph unicode="j" glyph-name="j" horiz-adv-x="578" d="M289 1231Q329 1231 357 1259T385 1327Q385 1366 357 1394T289 1422Q250 1422 222 1394T193 1327Q193 1287 221 1259T289 1231ZM85 -550Q220 -550 291 -467T362 -225V1024H216V-212Q216 -420 59 -420Q-11
-420 -57 -382L-100 -499Q-68 -524 -18 -537T85 -550Z" />
<glyph unicode="k" glyph-name="k" horiz-adv-x="1102" d="M215 0H361V486L798 0H985L494 542L961 1024H770L361 605V1720H215V0Z" />
<glyph unicode="l" glyph-name="l" horiz-adv-x="577" d="M215 0H361V1720H215V0Z" />
<glyph unicode="m" glyph-name="m" horiz-adv-x="1989" d="M215 0H361V694Q361 753 402 808T513 900T666 936Q786 936 858 858T930 647V0H1076V683Q1076 746 1116 804T1224 899T1376 936Q1498 936 1571 854T1644 632V0H1790V673Q1790 857 1684 956T1414 1056Q1288
1056 1197 997T1046 840Q1010 940 917 998T697 1056Q484 1056 361 884V1024H215V0Z" />
<glyph unicode="n" glyph-name="n" horiz-adv-x="1286" d="M215 0H361V667Q361 739 396 800T499 899T660 937Q794 937 868 853T943 611V0H1089V639Q1089 837 987 946T706 1056Q579 1056 491 1006T361 884V1024H215V0Z" />
<glyph unicode="o" glyph-name="o" horiz-adv-x="1408" d="M704 -32Q864 -32 992 37T1196 229T1271 512Q1271 673 1196 795T993 987T704 1056Q544 1056 416 987T212 796T137 512Q137 352 212 229T415 37T704 -32ZM704 98Q584 98 490 151T342 297T288 512Q288 633
342 726T490 873T704 926Q824 926 918 873T1066 727T1120 512Q1120 391 1066 298T918 151T704 98Z" />
<glyph unicode="p" glyph-name="p" horiz-adv-x="1437" d="M215 -520H361V216Q426 100 537 34T784 -32Q931 -32 1046 39T1228 233T1295 512Q1295 669 1228 791T1046 985T782 1056Q646 1056 535 992T361 812V1024H215V-520ZM750 95Q635 95 546 148T406 296T355
512Q355 634 406 728T546 875T750 929Q865 929 953 876T1093 728T1144 511Q1144 390 1093 296T954 149T750 95Z" />
<glyph unicode="q" glyph-name="q" horiz-adv-x="1437" d="M1076 -520H1222V1024H1076V811Q1013 927 902 991T656 1056Q508 1056 392 985T209 792T142 512Q142 356 208 233T391 39T653 -32Q788 -32 899 34T1076 216V-520ZM687 95Q573 95 484 148T344 296T293 512Q293
634 344 728T484 875T688 929Q803 929 891 876T1031 728T1082 512Q1082 391 1031 297T891 149T687 95Z" />
<glyph unicode="r" glyph-name="r" horiz-adv-x="894" d="M215 0H361V676Q361 741 400 798T503 892T637 928Q714 928 779 897L839 1020Q764 1056 667 1056Q460 1056 361 873V1024H215V0Z" />
<glyph unicode="s" glyph-name="s" horiz-adv-x="991" d="M481 -32Q648 -32 753 58T859 302Q859 392 822 444T718 531T562 599Q500 623 447 647T360 704T327 790Q327 861 379 905T516 949Q653 949 745 828L812 913Q752 981 677 1018T515 1055Q421 1055 347 1020T231
923T189 782Q189 704 228 654T329 570T455 511Q538 479 595 454T681 394T711 297Q711 197 643 139T480 81Q386 81 309 135T184 288L106 204Q160 91 257 30T481 -32Z" />
<glyph unicode="t" glyph-name="t" horiz-adv-x="746" d="M470 -32Q568 -32 642 14L605 130Q561 97 501 97Q374 97 374 272V914H629V1024H374V1407H228V1024H124V914H228V264Q228 123 291 46T470 -32Z" />
<glyph unicode="u" glyph-name="u" horiz-adv-x="1259" d="M629 -32Q862 -32 962 72T1062 424V1024H916V450Q916 256 851 174T629 91Q474 91 408 173T342 450V1024H196V424Q196 177 296 73T629 -32Z" />
<glyph unicode="v" glyph-name="v" horiz-adv-x="1218" d="M561 0H657L1155 1024H984L609 208L235 1024H64L561 0Z" />
<glyph unicode="w" glyph-name="w" horiz-adv-x="1956" d="M561 0H657L978 797L1298 0H1395L1892 1024H1725L1350 210L1027 1024H929L606 210L231 1024H64L561 0Z" />
<glyph unicode="x" glyph-name="x" horiz-adv-x="1177" d="M62 0H235L589 435L942 0H1115L683 528L1057 1024H890L589 629L288 1024H120L495 528L62 0Z" />
<glyph unicode="y" glyph-name="y" horiz-adv-x="1232" d="M298 -520H463L1166 1024H1001L633 175L228 1024H63L550 25L298 -520Z" />
<glyph unicode="z" glyph-name="z" horiz-adv-x="1198" d="M80 0H1081V120H345L1104 1024H158V904H838L80 0Z" />
<glyph unicode="{" glyph-name="braceleft" horiz-adv-x="774" d="M571 -520H650V-404H605Q494 -404 439 -337T384 -149V482Q384 529 369 557T328 600Q354 614 369 642T384 718V1349Q384 1470 439 1537T605 1604H650V1720H571Q475 1720 413 1688T316 1602T267
1484T253 1358V744Q253 691 231 668T165 645V555Q209 555 231 532T253 456V-158Q253 -220 267 -284T316 -401T413 -487T571 -520Z" />
<glyph unicode="|" glyph-name="bar" horiz-adv-x="777" d="M323 0H454V1720H323V0Z" />
<glyph unicode="}" glyph-name="braceright" horiz-adv-x="774" d="M124 -520H203Q299 -520 361 -488T458 -402T507 -284T521 -158V456Q521 509 543 532T610 555V645Q566 645 544 668T521 744V1358Q521 1420 507 1484T458 1601T361 1687T203 1720H124V1604H169Q281
1604 335 1537T390 1349V718Q390 671 405 643T446 600Q420 586 405 558T390 482V-149Q390 -270 336 -337T169 -404H124V-520Z" />
<glyph unicode="~" glyph-name="asciitilde" horiz-adv-x="1517" d="M962 689Q1054 689 1135 745T1266 891L1183 963Q1146 890 1089 849T963 808Q906 808 859 832T767 889T670 946T553 971Q455 971 375 911T250 769L333 696Q365 761 420 806T552 852Q609 852 656
828T748 771T845 714T962 689Z" />
</font>
</defs>
</svg>
