<?xml version="1.0" encoding="utf-8"?>
<!-- Generator: Adobe Illustrator 23.0.1, SVG Export Plug-In . SVG Version: 6.00 Build 0)  -->
<svg version="1.1" id="Layer_1" xmlns="http://www.w3.org/2000/svg" xmlns:xlink="http://www.w3.org/1999/xlink" x="0px" y="0px"
	 viewBox="0 0 60 60" style="enable-background:new 0 0 60 60;" xml:space="preserve">
<style type="text/css">
	.st0{fill:#48C2FF;}
</style>
<path class="st0" d="M0,30c0,16.5,13.5,30,30,30c16.5,0,30-13.5,30-30C60,13.5,46.5,0,30,0C13.5,0,0,13.5,0,30z M12.7,29
	c0.1-0.3,0.3-0.6,0.5-0.8l10-10c1-1,2.6-1,3.5,0c1,1,1,2.6,0,3.5L21,27.5h24c1.4,0,2.5,1.1,2.5,2.5c0,1.4-1.1,2.5-2.5,2.5H21
	l5.7,5.7c1,1,1,2.6,0,3.5c-0.5,0.5-1.1,0.7-1.8,0.7c-0.6,0-1.3-0.2-1.8-0.7l-10-10c-0.2-0.2-0.4-0.5-0.5-0.8
	C12.4,30.3,12.4,29.7,12.7,29z"/>
</svg>
