<?xml version="1.0" encoding="utf-8"?>
<!-- Generator: Adobe Illustrator 23.0.1, SVG Export Plug-In . SVG Version: 6.00 Build 0)  -->
<svg version="1.1" id="Layer_1" xmlns="http://www.w3.org/2000/svg" xmlns:xlink="http://www.w3.org/1999/xlink" x="0px" y="0px"
	 viewBox="0 0 60 60" style="enable-background:new 0 0 60 60;" xml:space="preserve">
<style type="text/css">
	.st0{fill:#95D6F6;}
</style>
<path class="st0" d="M30,0C13.5,0,0,13.5,0,30s13.5,30,30,30s30-13.5,30-30S46.5,0,30,0z M47.3,31c-0.1,0.3-0.3,0.6-0.5,0.8l-10,10
	c-0.5,0.5-1.1,0.7-1.8,0.7c-0.6,0-1.3-0.2-1.8-0.7c-1-1-1-2.6,0-3.5l5.7-5.7H15c-1.4,0-2.5-1.1-2.5-2.5s1.1-2.5,2.5-2.5h24l-5.7-5.7
	c-1-1-1-2.6,0-3.5c1-1,2.6-1,3.5,0l10,10c0.2,0.2,0.4,0.5,0.5,0.8C47.6,29.7,47.6,30.3,47.3,31z"/>
</svg>
