<svg width="18" height="20" viewBox="0 0 18 20" fill="none" xmlns="http://www.w3.org/2000/svg">
<path d="M2 19.9998H16C16.5304 19.9998 17.0391 19.7891 17.4142 19.414C17.7893 19.039 18 18.5303 18 17.9998V8.99982C18.0008 8.86821 17.9755 8.73775 17.9258 8.61591C17.876 8.49407 17.8027 8.38326 17.71 8.28982L9.71 0.289816C9.52264 0.103565 9.26919 -0.000976562 9.005 -0.000976562C8.74081 -0.000976562 8.48736 0.103565 8.3 0.289816L0.3 8.28982C0.205512 8.38243 0.130342 8.49288 0.0788453 8.61475C0.0273487 8.73663 0.00054925 8.86751 0 8.99982V17.9998C0 18.5303 0.210714 19.039 0.585786 19.414C0.960859 19.7891 1.46957 19.9998 2 19.9998ZM7 17.9998V12.9998H11V17.9998H7ZM2 9.40982L9 2.40982L16 9.40982V17.9998H13V12.9998C13 12.4694 12.7893 11.9607 12.4142 11.5856C12.0391 11.2105 11.5304 10.9998 11 10.9998H7C6.46957 10.9998 5.96086 11.2105 5.58579 11.5856C5.21071 11.9607 5 12.4694 5 12.9998V17.9998H2V9.40982Z" fill="black"/>
</svg>
